<svg width="677" height="562" viewBox="0 0 677 562" fill="none" xmlns="http://www.w3.org/2000/svg">
<rect width="677" height="562" rx="29.181" fill="white"/>
<g filter="url(#filter0_d_21_199)">
<rect x="209" y="338" width="140" height="175" rx="5.83621" fill="white"/>
</g>
<path d="M231.941 380V367.266H239.626V368.634H233.483V372.937H239.228V374.305H233.483V378.632H239.725V380H231.941ZM242.206 380V370.45H243.624V371.942H243.748C243.947 371.432 244.268 371.036 244.712 370.755C245.155 370.468 245.688 370.325 246.31 370.325C246.94 370.325 247.464 370.468 247.883 370.755C248.305 371.036 248.635 371.432 248.871 371.942H248.971C249.215 371.449 249.582 371.057 250.071 370.767C250.56 370.473 251.147 370.325 251.831 370.325C252.685 370.325 253.383 370.593 253.926 371.128C254.469 371.658 254.741 372.485 254.741 373.608V380H253.273V373.608C253.273 372.904 253.08 372.4 252.695 372.097C252.309 371.795 251.856 371.644 251.333 371.644C250.662 371.644 250.142 371.847 249.773 372.253C249.404 372.655 249.219 373.165 249.219 373.782V380H247.727V373.459C247.727 372.916 247.551 372.479 247.199 372.147C246.846 371.811 246.392 371.644 245.837 371.644C245.456 371.644 245.099 371.745 244.768 371.948C244.44 372.151 244.175 372.433 243.972 372.794C243.773 373.15 243.673 373.563 243.673 374.031V380H242.206ZM257.622 380V367.266H259.09V371.967H259.214C259.322 371.801 259.471 371.59 259.662 371.333C259.857 371.072 260.134 370.839 260.495 370.636C260.86 370.429 261.353 370.325 261.975 370.325C262.779 370.325 263.488 370.527 264.101 370.929C264.714 371.331 265.193 371.901 265.537 372.638C265.881 373.376 266.053 374.247 266.053 375.25C266.053 376.261 265.881 377.138 265.537 377.88C265.193 378.618 264.717 379.19 264.107 379.596C263.498 379.998 262.795 380.199 261.999 380.199C261.386 380.199 260.895 380.097 260.526 379.894C260.157 379.687 259.873 379.453 259.674 379.192C259.475 378.926 259.322 378.707 259.214 378.533H259.04V380H257.622ZM259.065 375.225C259.065 375.946 259.171 376.582 259.382 377.134C259.593 377.681 259.902 378.11 260.308 378.421C260.715 378.727 261.212 378.881 261.801 378.881C262.414 378.881 262.926 378.719 263.336 378.396C263.751 378.068 264.062 377.629 264.269 377.078C264.48 376.522 264.586 375.905 264.586 375.225C264.586 374.553 264.482 373.948 264.275 373.409C264.072 372.866 263.763 372.437 263.349 372.122C262.938 371.803 262.422 371.644 261.801 371.644C261.204 371.644 260.702 371.795 260.296 372.097C259.89 372.396 259.583 372.815 259.376 373.353C259.168 373.888 259.065 374.512 259.065 375.225ZM272.302 380.199C271.382 380.199 270.588 379.996 269.921 379.59C269.257 379.179 268.746 378.607 268.385 377.874C268.028 377.136 267.85 376.278 267.85 375.3C267.85 374.321 268.028 373.459 268.385 372.713C268.746 371.963 269.247 371.378 269.89 370.96C270.536 370.537 271.291 370.325 272.153 370.325C272.65 370.325 273.141 370.408 273.626 370.574C274.111 370.74 274.553 371.009 274.951 371.382C275.349 371.751 275.666 372.24 275.902 372.85C276.138 373.459 276.256 374.209 276.256 375.101V375.722H268.895V374.454H274.764C274.764 373.915 274.656 373.434 274.441 373.011C274.229 372.589 273.927 372.255 273.533 372.01C273.143 371.766 272.683 371.644 272.153 371.644C271.568 371.644 271.063 371.789 270.636 372.079C270.213 372.365 269.887 372.738 269.66 373.198C269.432 373.658 269.318 374.151 269.318 374.678V375.523C269.318 376.245 269.442 376.856 269.691 377.358C269.943 377.855 270.294 378.234 270.741 378.495C271.189 378.752 271.709 378.881 272.302 378.881C272.687 378.881 273.036 378.827 273.347 378.719C273.662 378.607 273.933 378.441 274.161 378.222C274.389 377.998 274.565 377.72 274.69 377.389L276.107 377.787C275.958 378.267 275.707 378.69 275.355 379.055C275.002 379.416 274.567 379.697 274.049 379.901C273.531 380.099 272.949 380.199 272.302 380.199ZM282.095 380.199C281.299 380.199 280.596 379.998 279.987 379.596C279.378 379.19 278.901 378.618 278.557 377.88C278.213 377.138 278.041 376.261 278.041 375.25C278.041 374.247 278.213 373.376 278.557 372.638C278.901 371.901 279.38 371.331 279.993 370.929C280.607 370.527 281.315 370.325 282.119 370.325C282.741 370.325 283.232 370.429 283.593 370.636C283.958 370.839 284.236 371.072 284.426 371.333C284.621 371.59 284.772 371.801 284.88 371.967H285.004V367.266H286.472V380H285.054V378.533H284.88C284.772 378.707 284.619 378.926 284.42 379.192C284.221 379.453 283.937 379.687 283.568 379.894C283.199 380.097 282.708 380.199 282.095 380.199ZM282.294 378.881C282.882 378.881 283.38 378.727 283.786 378.421C284.192 378.11 284.501 377.681 284.712 377.134C284.924 376.582 285.029 375.946 285.029 375.225C285.029 374.512 284.926 373.888 284.718 373.353C284.511 372.815 284.204 372.396 283.798 372.097C283.392 371.795 282.89 371.644 282.294 371.644C281.672 371.644 281.154 371.803 280.739 372.122C280.329 372.437 280.02 372.866 279.813 373.409C279.61 373.948 279.508 374.553 279.508 375.225C279.508 375.905 279.612 376.522 279.819 377.078C280.03 377.629 280.341 378.068 280.752 378.396C281.166 378.719 281.68 378.881 282.294 378.881ZM292.969 380.199C292.173 380.199 291.471 379.998 290.861 379.596C290.252 379.19 289.775 378.618 289.431 377.88C289.087 377.138 288.915 376.261 288.915 375.25C288.915 374.247 289.087 373.376 289.431 372.638C289.775 371.901 290.254 371.331 290.868 370.929C291.481 370.527 292.19 370.325 292.994 370.325C293.616 370.325 294.107 370.429 294.468 370.636C294.832 370.839 295.11 371.072 295.301 371.333C295.496 371.59 295.647 371.801 295.755 371.967H295.879V367.266H297.346V380H295.929V378.533H295.755C295.647 378.707 295.493 378.926 295.294 379.192C295.096 379.453 294.812 379.687 294.443 379.894C294.074 380.097 293.583 380.199 292.969 380.199ZM293.168 378.881C293.757 378.881 294.254 378.727 294.66 378.421C295.066 378.11 295.375 377.681 295.587 377.134C295.798 376.582 295.904 375.946 295.904 375.225C295.904 374.512 295.8 373.888 295.593 373.353C295.386 372.815 295.079 372.396 294.673 372.097C294.267 371.795 293.765 371.644 293.168 371.644C292.546 371.644 292.028 371.803 291.614 372.122C291.203 372.437 290.895 372.866 290.687 373.409C290.484 373.948 290.383 374.553 290.383 375.225C290.383 375.905 290.486 376.522 290.693 377.078C290.905 377.629 291.216 378.068 291.626 378.396C292.041 378.719 292.555 378.881 293.168 378.881ZM300.237 380V370.45H301.705V380H300.237ZM300.984 368.858C300.698 368.858 300.451 368.761 300.244 368.566C300.041 368.371 299.939 368.137 299.939 367.863C299.939 367.59 300.041 367.356 300.244 367.161C300.451 366.966 300.698 366.869 300.984 366.869C301.27 366.869 301.514 366.966 301.717 367.161C301.924 367.356 302.028 367.59 302.028 367.863C302.028 368.137 301.924 368.371 301.717 368.566C301.514 368.761 301.27 368.858 300.984 368.858ZM305.86 374.255V380H304.392V370.45H305.81V371.942H305.934C306.158 371.457 306.498 371.067 306.954 370.773C307.41 370.475 307.998 370.325 308.72 370.325C309.366 370.325 309.932 370.458 310.417 370.723C310.902 370.985 311.279 371.382 311.549 371.917C311.818 372.448 311.953 373.119 311.953 373.932V380H310.486V374.031C310.486 373.281 310.291 372.696 309.901 372.278C309.511 371.855 308.977 371.644 308.297 371.644C307.829 371.644 307.41 371.745 307.041 371.948C306.676 372.151 306.388 372.448 306.177 372.837C305.965 373.227 305.86 373.7 305.86 374.255ZM318.489 383.78C317.78 383.78 317.171 383.689 316.661 383.507C316.151 383.328 315.726 383.092 315.386 382.798C315.051 382.508 314.783 382.197 314.584 381.865L315.753 381.045C315.886 381.219 316.054 381.418 316.257 381.641C316.46 381.869 316.738 382.066 317.09 382.232C317.447 382.402 317.913 382.487 318.489 382.487C319.26 382.487 319.896 382.3 320.398 381.927C320.899 381.554 321.15 380.97 321.15 380.174V378.234H321.026C320.918 378.408 320.765 378.624 320.566 378.881C320.371 379.134 320.089 379.36 319.72 379.559C319.355 379.753 318.862 379.851 318.24 379.851C317.469 379.851 316.777 379.668 316.164 379.304C315.554 378.939 315.071 378.408 314.715 377.712C314.363 377.016 314.186 376.17 314.186 375.175C314.186 374.197 314.359 373.345 314.703 372.62C315.047 371.89 315.525 371.327 316.139 370.929C316.752 370.527 317.461 370.325 318.265 370.325C318.887 370.325 319.38 370.429 319.745 370.636C320.114 370.839 320.396 371.072 320.591 371.333C320.79 371.59 320.943 371.801 321.051 371.967H321.2V370.45H322.617V380.274C322.617 381.094 322.431 381.762 322.058 382.276C321.689 382.794 321.192 383.173 320.566 383.413C319.944 383.658 319.252 383.78 318.489 383.78ZM318.439 378.533C319.028 378.533 319.525 378.398 319.932 378.129C320.338 377.859 320.647 377.472 320.858 376.966C321.069 376.46 321.175 375.855 321.175 375.15C321.175 374.462 321.071 373.855 320.864 373.329C320.657 372.802 320.35 372.39 319.944 372.091C319.538 371.793 319.036 371.644 318.439 371.644C317.818 371.644 317.299 371.801 316.885 372.116C316.475 372.431 316.166 372.854 315.958 373.385C315.755 373.915 315.654 374.504 315.654 375.15C315.654 375.814 315.757 376.4 315.965 376.91C316.176 377.416 316.487 377.813 316.897 378.104C317.312 378.39 317.826 378.533 318.439 378.533ZM235.622 401.199C234.759 401.199 234.003 400.994 233.352 400.583C232.706 400.173 232.2 399.599 231.835 398.861C231.474 398.123 231.294 397.261 231.294 396.275C231.294 395.28 231.474 394.411 231.835 393.67C232.2 392.928 232.706 392.351 233.352 391.941C234.003 391.531 234.759 391.325 235.622 391.325C236.484 391.325 237.238 391.531 237.885 391.941C238.536 392.351 239.041 392.928 239.402 393.67C239.767 394.411 239.949 395.28 239.949 396.275C239.949 397.261 239.767 398.123 239.402 398.861C239.041 399.599 238.536 400.173 237.885 400.583C237.238 400.994 236.484 401.199 235.622 401.199ZM235.622 399.881C236.276 399.881 236.815 399.713 237.238 399.377C237.661 399.041 237.974 398.6 238.177 398.053C238.38 397.506 238.482 396.913 238.482 396.275C238.482 395.636 238.38 395.042 238.177 394.49C237.974 393.939 237.661 393.493 237.238 393.153C236.815 392.814 236.276 392.644 235.622 392.644C234.967 392.644 234.428 392.814 234.005 393.153C233.582 393.493 233.269 393.939 233.066 394.49C232.863 395.042 232.761 395.636 232.761 396.275C232.761 396.913 232.863 397.506 233.066 398.053C233.269 398.6 233.582 399.041 234.005 399.377C234.428 399.713 234.967 399.881 235.622 399.881ZM246.442 391.45V392.693H241.294V391.45H246.442ZM242.835 401V390.132C242.835 389.585 242.964 389.129 243.221 388.764C243.478 388.399 243.812 388.126 244.222 387.943C244.632 387.761 245.065 387.67 245.521 387.67C245.882 387.67 246.176 387.699 246.404 387.757C246.632 387.815 246.802 387.869 246.914 387.918L246.491 389.187C246.417 389.162 246.313 389.131 246.18 389.093C246.052 389.056 245.882 389.037 245.671 389.037C245.186 389.037 244.835 389.16 244.62 389.404C244.408 389.649 244.303 390.007 244.303 390.48V401H242.835ZM235.895 412.45V413.693H230.946V412.45H235.895ZM232.388 410.162H233.856V419.264C233.856 419.679 233.916 419.99 234.036 420.197C234.16 420.4 234.318 420.537 234.509 420.607C234.703 420.674 234.909 420.707 235.124 420.707C235.286 420.707 235.418 420.698 235.522 420.682C235.626 420.661 235.709 420.645 235.771 420.632L236.069 421.95C235.97 421.988 235.831 422.025 235.653 422.062C235.474 422.104 235.248 422.124 234.975 422.124C234.56 422.124 234.154 422.035 233.756 421.857C233.363 421.679 233.035 421.407 232.774 421.042C232.517 420.678 232.388 420.218 232.388 419.662V410.162ZM239.775 416.255V422H238.308V409.266H239.775V413.942H239.899C240.123 413.449 240.459 413.057 240.906 412.767C241.358 412.473 241.959 412.325 242.71 412.325C243.36 412.325 243.93 412.456 244.419 412.717C244.908 412.974 245.288 413.37 245.557 413.905C245.831 414.435 245.968 415.111 245.968 415.932V422H244.5V416.031C244.5 415.273 244.303 414.686 243.91 414.272C243.52 413.853 242.979 413.644 242.287 413.644C241.806 413.644 241.375 413.745 240.994 413.948C240.616 414.151 240.318 414.448 240.098 414.837C239.883 415.227 239.775 415.7 239.775 416.255ZM252.656 422.199C251.736 422.199 250.942 421.996 250.275 421.59C249.612 421.179 249.1 420.607 248.739 419.874C248.383 419.136 248.204 418.278 248.204 417.3C248.204 416.321 248.383 415.459 248.739 414.713C249.1 413.963 249.601 413.378 250.244 412.96C250.89 412.537 251.645 412.325 252.507 412.325C253.004 412.325 253.495 412.408 253.98 412.574C254.465 412.74 254.907 413.009 255.305 413.382C255.703 413.751 256.02 414.24 256.256 414.85C256.492 415.459 256.61 416.209 256.61 417.101V417.722H249.249V416.454H255.118C255.118 415.915 255.01 415.434 254.795 415.011C254.584 414.589 254.281 414.255 253.887 414.01C253.498 413.766 253.037 413.644 252.507 413.644C251.922 413.644 251.417 413.789 250.99 414.079C250.567 414.365 250.242 414.738 250.014 415.198C249.786 415.658 249.672 416.151 249.672 416.678V417.523C249.672 418.245 249.796 418.856 250.045 419.358C250.298 419.855 250.648 420.234 251.095 420.495C251.543 420.752 252.063 420.881 252.656 420.881C253.042 420.881 253.39 420.827 253.701 420.719C254.016 420.607 254.287 420.441 254.515 420.222C254.743 419.998 254.919 419.72 255.044 419.389L256.461 419.787C256.312 420.267 256.061 420.69 255.709 421.055C255.357 421.416 254.921 421.697 254.403 421.901C253.885 422.099 253.303 422.199 252.656 422.199ZM233.209 437.255V443H231.742V433.45H233.159V434.942H233.284C233.508 434.457 233.847 434.067 234.303 433.773C234.759 433.475 235.348 433.325 236.069 433.325C236.716 433.325 237.282 433.458 237.767 433.723C238.252 433.985 238.629 434.382 238.898 434.917C239.168 435.448 239.302 436.119 239.302 436.932V443H237.835V437.031C237.835 436.281 237.64 435.696 237.251 435.278C236.861 434.855 236.326 434.644 235.646 434.644C235.178 434.644 234.759 434.745 234.39 434.948C234.026 435.151 233.738 435.448 233.526 435.837C233.315 436.227 233.209 436.7 233.209 437.255ZM245.988 443.199C245.068 443.199 244.274 442.996 243.606 442.59C242.943 442.179 242.431 441.607 242.071 440.874C241.714 440.136 241.536 439.278 241.536 438.3C241.536 437.321 241.714 436.459 242.071 435.713C242.431 434.963 242.933 434.378 243.575 433.96C244.222 433.537 244.976 433.325 245.839 433.325C246.336 433.325 246.827 433.408 247.312 433.574C247.797 433.74 248.239 434.009 248.636 434.382C249.034 434.751 249.351 435.24 249.588 435.85C249.824 436.459 249.942 437.209 249.942 438.101V438.722H242.581V437.454H248.45C248.45 436.915 248.342 436.434 248.127 436.011C247.915 435.589 247.613 435.255 247.219 435.01C246.829 434.766 246.369 434.644 245.839 434.644C245.254 434.644 244.748 434.789 244.321 435.079C243.899 435.365 243.573 435.738 243.345 436.198C243.117 436.658 243.003 437.151 243.003 437.678V438.523C243.003 439.245 243.128 439.856 243.376 440.358C243.629 440.855 243.979 441.234 244.427 441.495C244.875 441.752 245.395 441.881 245.988 441.881C246.373 441.881 246.721 441.827 247.032 441.719C247.347 441.607 247.619 441.441 247.847 441.222C248.075 440.998 248.251 440.72 248.375 440.389L249.793 440.787C249.644 441.267 249.393 441.69 249.041 442.055C248.688 442.416 248.253 442.697 247.735 442.901C247.217 443.099 246.634 443.199 245.988 443.199ZM254.985 443.224C254.379 443.224 253.83 443.11 253.337 442.882C252.844 442.65 252.452 442.316 252.162 441.881C251.872 441.441 251.727 440.911 251.727 440.289C251.727 439.742 251.834 439.298 252.05 438.959C252.265 438.615 252.553 438.345 252.914 438.15C253.275 437.955 253.673 437.81 254.108 437.715C254.547 437.616 254.989 437.537 255.432 437.479C256.013 437.404 256.483 437.348 256.844 437.311C257.208 437.269 257.474 437.201 257.639 437.106C257.809 437.01 257.894 436.845 257.894 436.608V436.559C257.894 435.945 257.726 435.468 257.391 435.129C257.059 434.789 256.556 434.619 255.88 434.619C255.179 434.619 254.63 434.772 254.232 435.079C253.834 435.386 253.555 435.713 253.393 436.061L252 435.564C252.249 434.984 252.58 434.532 252.995 434.208C253.414 433.881 253.87 433.653 254.363 433.524C254.86 433.392 255.349 433.325 255.83 433.325C256.137 433.325 256.489 433.363 256.887 433.437C257.289 433.508 257.677 433.655 258.05 433.879C258.427 434.103 258.74 434.441 258.989 434.892C259.237 435.344 259.362 435.949 259.362 436.708V443H257.894V441.707H257.82C257.72 441.914 257.554 442.136 257.322 442.372C257.09 442.608 256.781 442.809 256.396 442.975C256.01 443.141 255.54 443.224 254.985 443.224ZM255.208 441.906C255.789 441.906 256.278 441.792 256.676 441.564C257.078 441.336 257.38 441.041 257.583 440.681C257.791 440.32 257.894 439.941 257.894 439.543V438.2C257.832 438.275 257.695 438.343 257.484 438.405C257.277 438.463 257.036 438.515 256.763 438.561C256.493 438.602 256.23 438.639 255.973 438.673C255.72 438.702 255.515 438.726 255.358 438.747C254.976 438.797 254.62 438.878 254.288 438.99C253.961 439.097 253.695 439.261 253.492 439.481C253.293 439.696 253.194 439.991 253.194 440.364C253.194 440.874 253.382 441.259 253.76 441.52C254.141 441.777 254.624 441.906 255.208 441.906ZM262.04 443V433.45H263.458V434.892H263.557C263.731 434.42 264.046 434.036 264.502 433.742C264.958 433.448 265.472 433.301 266.044 433.301C266.152 433.301 266.286 433.303 266.448 433.307C266.61 433.311 266.732 433.317 266.815 433.325V434.818C266.765 434.805 266.651 434.787 266.473 434.762C266.299 434.733 266.114 434.718 265.92 434.718C265.455 434.718 265.041 434.816 264.676 435.01C264.316 435.201 264.03 435.466 263.818 435.806C263.611 436.142 263.507 436.525 263.507 436.957V443H262.04ZM272.268 443.199C271.348 443.199 270.554 442.996 269.886 442.59C269.223 442.179 268.711 441.607 268.351 440.874C267.994 440.136 267.816 439.278 267.816 438.3C267.816 437.321 267.994 436.459 268.351 435.713C268.711 434.963 269.213 434.378 269.855 433.96C270.502 433.537 271.256 433.325 272.119 433.325C272.616 433.325 273.107 433.408 273.592 433.574C274.077 433.74 274.519 434.009 274.916 434.382C275.314 434.751 275.631 435.24 275.868 435.85C276.104 436.459 276.222 437.209 276.222 438.101V438.722H268.861V437.454H274.73C274.73 436.915 274.622 436.434 274.407 436.011C274.195 435.589 273.893 435.255 273.499 435.01C273.109 434.766 272.649 434.644 272.119 434.644C271.534 434.644 271.028 434.789 270.601 435.079C270.179 435.365 269.853 435.738 269.625 436.198C269.397 436.658 269.283 437.151 269.283 437.678V438.523C269.283 439.245 269.408 439.856 269.656 440.358C269.909 440.855 270.26 441.234 270.707 441.495C271.155 441.752 271.675 441.881 272.268 441.881C272.653 441.881 273.001 441.827 273.312 441.719C273.627 441.607 273.899 441.441 274.127 441.222C274.355 440.998 274.531 440.72 274.655 440.389L276.073 440.787C275.924 441.267 275.673 441.69 275.321 442.055C274.968 442.416 274.533 442.697 274.015 442.901C273.497 443.099 272.914 443.199 272.268 443.199ZM285.219 435.589L283.901 435.962C283.818 435.742 283.696 435.529 283.534 435.321C283.376 435.11 283.161 434.936 282.887 434.799C282.614 434.662 282.264 434.594 281.837 434.594C281.252 434.594 280.765 434.729 280.375 434.998C279.99 435.263 279.797 435.601 279.797 436.011C279.797 436.376 279.93 436.664 280.195 436.876C280.46 437.087 280.875 437.263 281.439 437.404L282.856 437.752C283.71 437.96 284.346 438.277 284.765 438.704C285.184 439.126 285.393 439.672 285.393 440.339C285.393 440.886 285.236 441.375 284.92 441.806C284.61 442.237 284.174 442.577 283.615 442.826C283.055 443.075 282.404 443.199 281.662 443.199C280.688 443.199 279.882 442.988 279.244 442.565C278.606 442.142 278.201 441.524 278.031 440.712L279.424 440.364C279.557 440.878 279.808 441.263 280.177 441.52C280.55 441.777 281.037 441.906 281.638 441.906C282.322 441.906 282.865 441.761 283.267 441.47C283.673 441.176 283.876 440.824 283.876 440.413C283.876 440.082 283.76 439.804 283.528 439.58C283.296 439.352 282.939 439.182 282.458 439.071L280.867 438.697C279.992 438.49 279.35 438.169 278.939 437.734C278.533 437.294 278.33 436.745 278.33 436.086C278.33 435.547 278.481 435.071 278.784 434.656C279.091 434.242 279.507 433.916 280.034 433.68C280.564 433.444 281.165 433.325 281.837 433.325C282.782 433.325 283.524 433.533 284.062 433.947C284.605 434.362 284.991 434.909 285.219 435.589ZM291.755 433.45V434.693H286.806V433.45H291.755ZM288.248 431.162H289.716V440.264C289.716 440.679 289.776 440.99 289.896 441.197C290.02 441.4 290.178 441.537 290.369 441.607C290.563 441.674 290.769 441.707 290.984 441.707C291.146 441.707 291.278 441.698 291.382 441.682C291.486 441.661 291.569 441.645 291.631 441.632L291.929 442.95C291.83 442.988 291.691 443.025 291.513 443.062C291.334 443.104 291.109 443.124 290.835 443.124C290.42 443.124 290.014 443.035 289.616 442.857C289.223 442.679 288.895 442.407 288.634 442.042C288.377 441.678 288.248 441.218 288.248 440.662V431.162ZM233.209 451.266V464H231.742V451.266H233.209ZM239.901 464.199C238.981 464.199 238.187 463.996 237.519 463.59C236.856 463.179 236.344 462.607 235.984 461.874C235.627 461.136 235.449 460.278 235.449 459.3C235.449 458.321 235.627 457.459 235.984 456.713C236.344 455.963 236.846 455.378 237.488 454.96C238.135 454.537 238.889 454.325 239.752 454.325C240.249 454.325 240.74 454.408 241.225 454.574C241.71 454.74 242.152 455.009 242.549 455.382C242.947 455.751 243.264 456.24 243.501 456.85C243.737 457.459 243.855 458.209 243.855 459.101V459.722H236.494V458.454H242.363C242.363 457.915 242.255 457.434 242.04 457.011C241.828 456.589 241.526 456.255 241.132 456.01C240.742 455.766 240.282 455.644 239.752 455.644C239.167 455.644 238.661 455.789 238.234 456.079C237.812 456.365 237.486 456.738 237.258 457.198C237.03 457.658 236.916 458.151 236.916 458.678V459.523C236.916 460.245 237.041 460.856 237.289 461.358C237.542 461.855 237.893 462.234 238.34 462.495C238.788 462.752 239.308 462.881 239.901 462.881C240.286 462.881 240.634 462.827 240.945 462.719C241.26 462.607 241.532 462.441 241.76 462.222C241.988 461.998 242.164 461.72 242.288 461.389L243.706 461.787C243.557 462.267 243.306 462.69 242.954 463.055C242.601 463.416 242.166 463.697 241.648 463.901C241.13 464.099 240.547 464.199 239.901 464.199ZM250.241 454.45V455.693H245.291V454.45H250.241ZM246.734 452.162H248.201V461.264C248.201 461.679 248.261 461.99 248.382 462.197C248.506 462.4 248.663 462.537 248.854 462.607C249.049 462.674 249.254 462.707 249.47 462.707C249.631 462.707 249.764 462.698 249.868 462.682C249.971 462.661 250.054 462.645 250.116 462.632L250.415 463.95C250.315 463.988 250.176 464.025 249.998 464.062C249.82 464.104 249.594 464.124 249.32 464.124C248.906 464.124 248.5 464.035 248.102 463.857C247.708 463.679 247.38 463.407 247.119 463.042C246.862 462.678 246.734 462.218 246.734 461.662V452.162ZM256.601 454.45V455.693H251.652V454.45H256.601ZM253.094 452.162H254.562V461.264C254.562 461.679 254.622 461.99 254.742 462.197C254.866 462.4 255.024 462.537 255.215 462.607C255.409 462.674 255.615 462.707 255.83 462.707C255.992 462.707 256.124 462.698 256.228 462.682C256.332 462.661 256.415 462.645 256.477 462.632L256.775 463.95C256.676 463.988 256.537 464.025 256.359 464.062C256.18 464.104 255.954 464.124 255.681 464.124C255.266 464.124 254.86 464.035 254.462 463.857C254.068 463.679 253.741 463.407 253.48 463.042C253.223 462.678 253.094 462.218 253.094 461.662V452.162ZM262.71 464.199C261.79 464.199 260.996 463.996 260.329 463.59C259.665 463.179 259.153 462.607 258.793 461.874C258.436 461.136 258.258 460.278 258.258 459.3C258.258 458.321 258.436 457.459 258.793 456.713C259.153 455.963 259.655 455.378 260.297 454.96C260.944 454.537 261.698 454.325 262.561 454.325C263.058 454.325 263.549 454.408 264.034 454.574C264.519 454.74 264.961 455.009 265.359 455.382C265.756 455.751 266.074 456.24 266.31 456.85C266.546 457.459 266.664 458.209 266.664 459.101V459.722H259.303V458.454H265.172C265.172 457.915 265.064 457.434 264.849 457.011C264.637 456.589 264.335 456.255 263.941 456.01C263.551 455.766 263.091 455.644 262.561 455.644C261.976 455.644 261.47 455.789 261.044 456.079C260.621 456.365 260.295 456.738 260.067 457.198C259.839 457.658 259.725 458.151 259.725 458.678V459.523C259.725 460.245 259.85 460.856 260.098 461.358C260.351 461.855 260.702 462.234 261.149 462.495C261.597 462.752 262.117 462.881 262.71 462.881C263.095 462.881 263.444 462.827 263.754 462.719C264.069 462.607 264.341 462.441 264.569 462.222C264.797 461.998 264.973 461.72 265.097 461.389L266.515 461.787C266.366 462.267 266.115 462.69 265.763 463.055C265.41 463.416 264.975 463.697 264.457 463.901C263.939 464.099 263.356 464.199 262.71 464.199ZM268.896 464V454.45H270.314V455.892H270.413C270.587 455.42 270.903 455.036 271.358 454.742C271.814 454.448 272.328 454.301 272.9 454.301C273.008 454.301 273.143 454.303 273.305 454.307C273.466 454.311 273.588 454.317 273.671 454.325V455.818C273.622 455.805 273.508 455.787 273.329 455.762C273.155 455.733 272.971 455.718 272.776 455.718C272.312 455.718 271.897 455.816 271.533 456.01C271.172 456.201 270.886 456.466 270.675 456.806C270.467 457.142 270.364 457.525 270.364 457.957V464H268.896ZM233.11 481.518L233.085 479.703H233.383L237.561 475.45H239.377L234.925 479.951H234.801L233.11 481.518ZM231.742 485V472.266H233.209V485H231.742ZM237.81 485L234.08 480.275L235.124 479.255L239.675 485H237.81ZM244.876 485.199C243.956 485.199 243.162 484.996 242.495 484.59C241.832 484.179 241.32 483.607 240.959 482.874C240.603 482.136 240.425 481.278 240.425 480.3C240.425 479.321 240.603 478.459 240.959 477.713C241.32 476.963 241.821 476.378 242.464 475.96C243.111 475.537 243.865 475.325 244.727 475.325C245.225 475.325 245.716 475.408 246.201 475.574C246.686 475.74 247.127 476.009 247.525 476.382C247.923 476.751 248.24 477.24 248.476 477.85C248.713 478.459 248.831 479.209 248.831 480.101V480.722H241.469V479.454H247.339C247.339 478.915 247.231 478.434 247.015 478.011C246.804 477.589 246.501 477.255 246.107 477.01C245.718 476.766 245.258 476.644 244.727 476.644C244.143 476.644 243.637 476.789 243.21 477.079C242.787 477.365 242.462 477.738 242.234 478.198C242.006 478.658 241.892 479.151 241.892 479.678V480.523C241.892 481.245 242.016 481.856 242.265 482.358C242.518 482.855 242.868 483.234 243.316 483.495C243.763 483.752 244.284 483.881 244.876 483.881C245.262 483.881 245.61 483.827 245.921 483.719C246.236 483.607 246.507 483.441 246.735 483.222C246.963 482.998 247.14 482.72 247.264 482.389L248.682 482.787C248.532 483.267 248.282 483.69 247.929 484.055C247.577 484.416 247.142 484.697 246.623 484.901C246.105 485.099 245.523 485.199 244.876 485.199ZM251.717 488.581C251.469 488.581 251.247 488.561 251.052 488.519C250.857 488.482 250.722 488.445 250.648 488.407L251.021 487.114C251.377 487.205 251.692 487.238 251.966 487.213C252.24 487.189 252.482 487.066 252.693 486.847C252.909 486.631 253.106 486.281 253.284 485.796L253.558 485.05L250.026 475.45H251.618L254.254 483.06H254.353L256.99 475.45H258.581L254.528 486.393C254.345 486.886 254.119 487.294 253.85 487.618C253.58 487.945 253.267 488.188 252.911 488.345C252.559 488.503 252.161 488.581 251.717 488.581Z" fill="black"/>
<g filter="url(#filter1_d_21_199)">
<rect x="129" y="48" width="249" height="54" rx="5.83621" fill="white"/>
</g>
<path d="M163.506 72.4498C163.431 71.8198 163.128 71.3307 162.598 70.9825C162.067 70.6343 161.417 70.4602 160.646 70.4602C160.082 70.4602 159.589 70.5514 159.166 70.7338C158.747 70.9162 158.42 71.167 158.183 71.4861C157.951 71.8053 157.835 72.168 157.835 72.5742C157.835 72.9141 157.916 73.2063 158.078 73.4509C158.243 73.6913 158.455 73.8923 158.712 74.054C158.969 74.2115 159.238 74.3421 159.52 74.4457C159.802 74.5452 160.061 74.626 160.297 74.6882L161.591 75.0363C161.922 75.1234 162.291 75.2436 162.697 75.397C163.108 75.5503 163.499 75.7597 163.872 76.0249C164.25 76.2861 164.561 76.6218 164.805 77.0322C165.05 77.4425 165.172 77.9462 165.172 78.543C165.172 79.2311 164.992 79.8529 164.631 80.4083C164.275 80.9637 163.752 81.4052 163.064 81.7326C162.38 82.0601 161.549 82.2238 160.571 82.2238C159.659 82.2238 158.869 82.0767 158.202 81.7824C157.539 81.4881 157.017 81.0777 156.635 80.5513C156.258 80.0249 156.045 79.4135 155.995 78.7171H157.587C157.628 79.198 157.79 79.5959 158.071 79.9109C158.357 80.2218 158.718 80.4539 159.153 80.6073C159.593 80.7565 160.065 80.8311 160.571 80.8311C161.16 80.8311 161.688 80.7358 162.156 80.5451C162.625 80.3503 162.996 80.0808 163.269 79.7368C163.543 79.3886 163.68 78.9824 163.68 78.5182C163.68 78.0954 163.562 77.7513 163.325 77.4861C163.089 77.2208 162.778 77.0052 162.393 76.8394C162.007 76.6736 161.591 76.5286 161.143 76.4042L159.576 75.9565C158.581 75.6705 157.794 75.2622 157.213 74.7317C156.633 74.2011 156.343 73.5068 156.343 72.6488C156.343 71.9359 156.536 71.3141 156.921 70.7835C157.311 70.2488 157.833 69.8343 158.488 69.54C159.147 69.2416 159.883 69.0924 160.695 69.0924C161.516 69.0924 162.246 69.2395 162.884 69.5338C163.522 69.824 164.028 70.2219 164.401 70.7276C164.778 71.2333 164.977 71.8074 164.998 72.4498H163.506ZM169.672 82L166.762 72.4498H168.304L170.368 79.7617H170.468L172.507 72.4498H174.074L176.088 79.7368H176.188L178.252 72.4498H179.794L176.884 82H175.442L173.353 74.6633H173.203L171.114 82H169.672ZM181.734 82V72.4498H183.201V82H181.734ZM182.48 70.8582C182.194 70.8582 181.947 70.7607 181.74 70.5659C181.537 70.3711 181.435 70.1369 181.435 69.8633C181.435 69.5898 181.537 69.3556 181.74 69.1608C181.947 68.9659 182.194 68.8685 182.48 68.8685C182.766 68.8685 183.011 68.9659 183.214 69.1608C183.421 69.3556 183.525 69.5898 183.525 69.8633C183.525 70.1369 183.421 70.3711 183.214 70.5659C183.011 70.7607 182.766 70.8582 182.48 70.8582ZM185.889 85.5813V72.4498H187.306V73.9669H187.48C187.588 73.8011 187.737 73.5897 187.928 73.3327C188.123 73.0716 188.401 72.8395 188.761 72.6364C189.126 72.4291 189.619 72.3255 190.241 72.3255C191.045 72.3255 191.754 72.5265 192.367 72.9286C192.981 73.3307 193.46 73.9006 193.804 74.6384C194.148 75.3762 194.32 76.2467 194.32 77.2498C194.32 78.2612 194.148 79.1379 193.804 79.8798C193.46 80.6176 192.983 81.1896 192.374 81.5959C191.764 81.9979 191.062 82.199 190.266 82.199C189.652 82.199 189.161 82.0974 188.792 81.8943C188.423 81.687 188.14 81.4529 187.941 81.1917C187.742 80.9264 187.588 80.7067 187.48 80.5327H187.356V85.5813H185.889ZM187.331 77.2249C187.331 77.9462 187.437 78.5824 187.648 79.1337C187.86 79.6809 188.169 80.1099 188.575 80.4207C188.981 80.7275 189.478 80.8808 190.067 80.8808C190.68 80.8808 191.192 80.7192 191.603 80.3959C192.017 80.0684 192.328 79.629 192.535 79.0778C192.747 78.5223 192.852 77.9047 192.852 77.2249C192.852 76.5534 192.749 75.9483 192.542 75.4094C192.338 74.8664 192.03 74.4374 191.615 74.1224C191.205 73.8032 190.689 73.6436 190.067 73.6436C189.47 73.6436 188.969 73.7949 188.562 74.0975C188.156 74.3959 187.849 74.8146 187.642 75.3534C187.435 75.8881 187.331 76.512 187.331 77.2249ZM200.562 82.199C199.642 82.199 198.848 81.9959 198.181 81.5896C197.518 81.1793 197.006 80.6073 196.645 79.8736C196.289 79.1358 196.11 78.2778 196.11 77.2995C196.11 76.3213 196.289 75.4591 196.645 74.713C197.006 73.9628 197.507 73.3783 198.15 72.9597C198.796 72.5369 199.551 72.3255 200.413 72.3255C200.91 72.3255 201.402 72.4084 201.887 72.5742C202.372 72.74 202.813 73.0094 203.211 73.3825C203.609 73.7514 203.926 74.2405 204.162 74.8498C204.398 75.4591 204.517 76.2094 204.517 77.1006V77.7223H197.155V76.4539H203.024C203.024 75.9151 202.917 75.4343 202.701 75.0115C202.49 74.5887 202.187 74.255 201.793 74.0104C201.404 73.7659 200.944 73.6436 200.413 73.6436C199.829 73.6436 199.323 73.7887 198.896 74.0788C198.473 74.3648 198.148 74.7379 197.92 75.198C197.692 75.6581 197.578 76.1514 197.578 76.6778V77.5234C197.578 78.2446 197.702 78.856 197.951 79.3575C198.204 79.8549 198.554 80.2342 199.002 80.4954C199.449 80.7523 199.969 80.8808 200.562 80.8808C200.948 80.8808 201.296 80.827 201.607 80.7192C201.922 80.6073 202.193 80.4415 202.421 80.2218C202.649 79.9979 202.825 79.7202 202.95 79.3886L204.367 79.7866C204.218 80.2674 203.967 80.6902 203.615 81.0549C203.263 81.4156 202.827 81.6974 202.309 81.9005C201.791 82.0995 201.209 82.199 200.562 82.199ZM211.673 85.5813V72.4498H213.091V73.9669H213.265C213.372 73.8011 213.522 73.5897 213.712 73.3327C213.907 73.0716 214.185 72.8395 214.545 72.6364C214.91 72.4291 215.403 72.3255 216.025 72.3255C216.829 72.3255 217.538 72.5265 218.152 72.9286C218.765 73.3307 219.244 73.9006 219.588 74.6384C219.932 75.3762 220.104 76.2467 220.104 77.2498C220.104 78.2612 219.932 79.1379 219.588 79.8798C219.244 80.6176 218.767 81.1896 218.158 81.5959C217.549 81.9979 216.846 82.199 216.05 82.199C215.437 82.199 214.945 82.0974 214.577 81.8943C214.208 81.687 213.924 81.4529 213.725 81.1917C213.526 80.9264 213.372 80.7067 213.265 80.5327H213.14V85.5813H211.673ZM213.115 77.2249C213.115 77.9462 213.221 78.5824 213.433 79.1337C213.644 79.6809 213.953 80.1099 214.359 80.4207C214.765 80.7275 215.263 80.8808 215.851 80.8808C216.465 80.8808 216.977 80.7192 217.387 80.3959C217.801 80.0684 218.112 79.629 218.32 79.0778C218.531 78.5223 218.637 77.9047 218.637 77.2249C218.637 76.5534 218.533 75.9483 218.326 75.4094C218.123 74.8664 217.814 74.4374 217.399 74.1224C216.989 73.8032 216.473 73.6436 215.851 73.6436C215.254 73.6436 214.753 73.7949 214.347 74.0975C213.94 74.3959 213.634 74.8146 213.426 75.3534C213.219 75.8881 213.115 76.512 213.115 77.2249ZM226.222 82.199C225.36 82.199 224.603 81.9938 223.953 81.5834C223.306 81.1731 222.8 80.599 222.436 79.8612C222.075 79.1233 221.895 78.2612 221.895 77.2747C221.895 76.2799 222.075 75.4115 222.436 74.6695C222.8 73.9275 223.306 73.3514 223.953 72.941C224.603 72.5307 225.36 72.3255 226.222 72.3255C227.084 72.3255 227.839 72.5307 228.485 72.941C229.136 73.3514 229.642 73.9275 230.002 74.6695C230.367 75.4115 230.549 76.2799 230.549 77.2747C230.549 78.2612 230.367 79.1233 230.002 79.8612C229.642 80.599 229.136 81.1731 228.485 81.5834C227.839 81.9938 227.084 82.199 226.222 82.199ZM226.222 80.8808C226.877 80.8808 227.416 80.713 227.839 80.3772C228.261 80.0415 228.574 79.6 228.777 79.0529C228.981 78.5057 229.082 77.913 229.082 77.2747C229.082 76.6363 228.981 76.0415 228.777 75.4902C228.574 74.9389 228.261 74.4933 227.839 74.1535C227.416 73.8136 226.877 73.6436 226.222 73.6436C225.567 73.6436 225.028 73.8136 224.605 74.1535C224.183 74.4933 223.87 74.9389 223.667 75.4902C223.464 76.0415 223.362 76.6363 223.362 77.2747C223.362 77.913 223.464 78.5057 223.667 79.0529C223.87 79.6 224.183 80.0415 224.605 80.3772C225.028 80.713 225.567 80.8808 226.222 80.8808ZM232.789 82V72.4498H234.257V82H232.789ZM233.535 70.8582C233.249 70.8582 233.003 70.7607 232.796 70.5659C232.592 70.3711 232.491 70.1369 232.491 69.8633C232.491 69.5898 232.592 69.3556 232.796 69.1608C233.003 68.9659 233.249 68.8685 233.535 68.8685C233.821 68.8685 234.066 68.9659 234.269 69.1608C234.476 69.3556 234.58 69.5898 234.58 69.8633C234.58 70.1369 234.476 70.3711 234.269 70.5659C234.066 70.7607 233.821 70.8582 233.535 70.8582ZM238.412 76.255V82H236.944V72.4498H238.362V73.9421H238.486C238.71 73.4571 239.05 73.0675 239.506 72.7732C239.962 72.4747 240.55 72.3255 241.272 72.3255C241.918 72.3255 242.484 72.4581 242.969 72.7234C243.454 72.9846 243.831 73.3825 244.101 73.9172C244.37 74.4477 244.505 75.1192 244.505 75.9317V82H243.037V76.0312C243.037 75.2809 242.843 74.6965 242.453 74.2778C242.063 73.855 241.529 73.6436 240.849 73.6436C240.38 73.6436 239.962 73.7452 239.593 73.9483C239.228 74.1514 238.94 74.4477 238.729 74.8374C238.517 75.227 238.412 75.6995 238.412 76.255ZM251.339 72.4498V73.6934H246.39V72.4498H251.339ZM247.833 70.1618H249.3V79.2643C249.3 79.6788 249.36 79.9897 249.48 80.1969C249.605 80.4 249.762 80.5368 249.953 80.6073C250.148 80.6736 250.353 80.7067 250.568 80.7067C250.73 80.7067 250.863 80.6985 250.966 80.6819C251.07 80.6612 251.153 80.6446 251.215 80.6321L251.513 81.9503C251.414 81.9876 251.275 82.0249 251.097 82.0622C250.919 82.1036 250.693 82.1244 250.419 82.1244C250.005 82.1244 249.598 82.0352 249.201 81.857C248.807 81.6788 248.479 81.4073 248.218 81.0425C247.961 80.6777 247.833 80.2176 247.833 79.6622V70.1618ZM262.475 82.199C261.555 82.199 260.761 81.9959 260.094 81.5896C259.43 81.1793 258.919 80.6073 258.558 79.8736C258.201 79.1358 258.023 78.2778 258.023 77.2995C258.023 76.3213 258.201 75.4591 258.558 74.713C258.919 73.9628 259.42 73.3783 260.063 72.9597C260.709 72.5369 261.464 72.3255 262.326 72.3255C262.823 72.3255 263.314 72.4084 263.799 72.5742C264.284 72.74 264.726 73.0094 265.124 73.3825C265.522 73.7514 265.839 74.2405 266.075 74.8498C266.311 75.4591 266.429 76.2094 266.429 77.1006V77.7223H259.068V76.4539H264.937C264.937 75.9151 264.829 75.4343 264.614 75.0115C264.402 74.5887 264.1 74.255 263.706 74.0104C263.316 73.7659 262.856 73.6436 262.326 73.6436C261.741 73.6436 261.236 73.7887 260.809 74.0788C260.386 74.3648 260.061 74.7379 259.833 75.198C259.605 75.6581 259.491 76.1514 259.491 76.6778V77.5234C259.491 78.2446 259.615 78.856 259.864 79.3575C260.116 79.8549 260.467 80.2342 260.914 80.4954C261.362 80.7523 261.882 80.8808 262.475 80.8808C262.86 80.8808 263.209 80.827 263.52 80.7192C263.835 80.6073 264.106 80.4415 264.334 80.2218C264.562 79.9979 264.738 79.7202 264.863 79.3886L266.28 79.7866C266.131 80.2674 265.88 80.6902 265.528 81.0549C265.175 81.4156 264.74 81.6974 264.222 81.9005C263.704 82.0995 263.122 82.199 262.475 82.199ZM268.661 82V72.4498H270.079V73.9421H270.203C270.402 73.4322 270.724 73.0364 271.167 72.7545C271.611 72.4685 272.143 72.3255 272.765 72.3255C273.395 72.3255 273.919 72.4685 274.338 72.7545C274.761 73.0364 275.09 73.4322 275.327 73.9421H275.426C275.671 73.4488 276.038 73.0571 276.527 72.7669C277.016 72.4726 277.602 72.3255 278.286 72.3255C279.14 72.3255 279.839 72.5928 280.382 73.1276C280.925 73.6581 281.196 74.4851 281.196 75.6084V82H279.729V75.6084C279.729 74.9037 279.536 74.4001 279.15 74.0975C278.765 73.7949 278.311 73.6436 277.789 73.6436C277.117 73.6436 276.597 73.8467 276.228 74.2529C275.859 74.655 275.675 75.1648 275.675 75.7825V82H274.183V75.4591C274.183 74.9161 274.006 74.4788 273.654 74.1472C273.302 73.8115 272.848 73.6436 272.293 73.6436C271.911 73.6436 271.555 73.7452 271.223 73.9483C270.896 74.1514 270.63 74.4332 270.427 74.7939C270.228 75.1503 270.129 75.5628 270.129 76.0312V82H268.661ZM284.078 82V69.2665H285.545V73.9669H285.67C285.777 73.8011 285.927 73.5897 286.117 73.3327C286.312 73.0716 286.59 72.8395 286.95 72.6364C287.315 72.4291 287.808 72.3255 288.43 72.3255C289.234 72.3255 289.943 72.5265 290.557 72.9286C291.17 73.3307 291.649 73.9006 291.993 74.6384C292.337 75.3762 292.509 76.2467 292.509 77.2498C292.509 78.2612 292.337 79.1379 291.993 79.8798C291.649 80.6176 291.172 81.1896 290.563 81.5959C289.953 81.9979 289.251 82.199 288.455 82.199C287.842 82.199 287.35 82.0974 286.981 81.8943C286.613 81.687 286.329 81.4529 286.13 81.1917C285.931 80.9264 285.777 80.7067 285.67 80.5327H285.495V82H284.078ZM285.52 77.2249C285.52 77.9462 285.626 78.5824 285.837 79.1337C286.049 79.6809 286.358 80.1099 286.764 80.4207C287.17 80.7275 287.667 80.8808 288.256 80.8808C288.87 80.8808 289.381 80.7192 289.792 80.3959C290.206 80.0684 290.517 79.629 290.724 79.0778C290.936 78.5223 291.042 77.9047 291.042 77.2249C291.042 76.5534 290.938 75.9483 290.731 75.4094C290.528 74.8664 290.219 74.4374 289.804 74.1224C289.394 73.8032 288.878 73.6436 288.256 73.6436C287.659 73.6436 287.158 73.7949 286.751 74.0975C286.345 74.3959 286.038 74.8146 285.831 75.3534C285.624 75.8881 285.52 76.512 285.52 77.2249ZM298.758 82.199C297.837 82.199 297.044 81.9959 296.376 81.5896C295.713 81.1793 295.201 80.6073 294.84 79.8736C294.484 79.1358 294.306 78.2778 294.306 77.2995C294.306 76.3213 294.484 75.4591 294.84 74.713C295.201 73.9628 295.703 73.3783 296.345 72.9597C296.992 72.5369 297.746 72.3255 298.608 72.3255C299.106 72.3255 299.597 72.4084 300.082 72.5742C300.567 72.74 301.008 73.0094 301.406 73.3825C301.804 73.7514 302.121 74.2405 302.357 74.8498C302.594 75.4591 302.712 76.2094 302.712 77.1006V77.7223H295.35V76.4539H301.22C301.22 75.9151 301.112 75.4343 300.896 75.0115C300.685 74.5887 300.382 74.255 299.989 74.0104C299.599 73.7659 299.139 73.6436 298.608 73.6436C298.024 73.6436 297.518 73.7887 297.091 74.0788C296.668 74.3648 296.343 74.7379 296.115 75.198C295.887 75.6581 295.773 76.1514 295.773 76.6778V77.5234C295.773 78.2446 295.897 78.856 296.146 79.3575C296.399 79.8549 296.749 80.2342 297.197 80.4954C297.645 80.7523 298.165 80.8808 298.758 80.8808C299.143 80.8808 299.491 80.827 299.802 80.7192C300.117 80.6073 300.389 80.4415 300.617 80.2218C300.845 79.9979 301.021 79.7202 301.145 79.3886L302.563 79.7866C302.413 80.2674 302.163 80.6902 301.81 81.0549C301.458 81.4156 301.023 81.6974 300.505 81.9005C299.987 82.0995 299.404 82.199 298.758 82.199ZM308.55 82.199C307.754 82.199 307.052 81.9979 306.442 81.5959C305.833 81.1896 305.356 80.6176 305.012 79.8798C304.668 79.1379 304.496 78.2612 304.496 77.2498C304.496 76.2467 304.668 75.3762 305.012 74.6384C305.356 73.9006 305.835 73.3307 306.449 72.9286C307.062 72.5265 307.771 72.3255 308.575 72.3255C309.197 72.3255 309.688 72.4291 310.049 72.6364C310.413 72.8395 310.691 73.0716 310.882 73.3327C311.077 73.5897 311.228 73.8011 311.336 73.9669H311.46V69.2665H312.927V82H311.51V80.5327H311.336C311.228 80.7067 311.074 80.9264 310.876 81.1917C310.677 81.4529 310.393 81.687 310.024 81.8943C309.655 82.0974 309.164 82.199 308.55 82.199ZM308.749 80.8808C309.338 80.8808 309.835 80.7275 310.241 80.4207C310.648 80.1099 310.956 79.6809 311.168 79.1337C311.379 78.5824 311.485 77.9462 311.485 77.2249C311.485 76.512 311.381 75.8881 311.174 75.3534C310.967 74.8146 310.66 74.3959 310.254 74.0975C309.848 73.7949 309.346 73.6436 308.749 73.6436C308.127 73.6436 307.609 73.8032 307.195 74.1224C306.784 74.4374 306.476 74.8664 306.268 75.4094C306.065 75.9483 305.964 76.5534 305.964 77.2249C305.964 77.9047 306.067 78.5223 306.275 79.0778C306.486 79.629 306.797 80.0684 307.207 80.3959C307.622 80.7192 308.136 80.8808 308.749 80.8808ZM319.425 82.199C318.629 82.199 317.926 81.9979 317.317 81.5959C316.708 81.1896 316.231 80.6176 315.887 79.8798C315.543 79.1379 315.371 78.2612 315.371 77.2498C315.371 76.2467 315.543 75.3762 315.887 74.6384C316.231 73.9006 316.71 73.3307 317.323 72.9286C317.937 72.5265 318.645 72.3255 319.45 72.3255C320.071 72.3255 320.562 72.4291 320.923 72.6364C321.288 72.8395 321.566 73.0716 321.756 73.3327C321.951 73.5897 322.102 73.8011 322.21 73.9669H322.334V69.2665H323.802V82H322.384V80.5327H322.21C322.102 80.7067 321.949 80.9264 321.75 81.1917C321.551 81.4529 321.267 81.687 320.898 81.8943C320.529 82.0974 320.038 82.199 319.425 82.199ZM319.624 80.8808C320.212 80.8808 320.71 80.7275 321.116 80.4207C321.522 80.1099 321.831 79.6809 322.042 79.1337C322.254 78.5824 322.359 77.9462 322.359 77.2249C322.359 76.512 322.256 75.8881 322.048 75.3534C321.841 74.8146 321.534 74.3959 321.128 74.0975C320.722 73.7949 320.22 73.6436 319.624 73.6436C319.002 73.6436 318.484 73.8032 318.069 74.1224C317.659 74.4374 317.35 74.8664 317.143 75.4094C316.94 75.9483 316.838 76.5534 316.838 77.2249C316.838 77.9047 316.942 78.5223 317.149 79.0778C317.36 79.629 317.671 80.0684 318.082 80.3959C318.496 80.7192 319.01 80.8808 319.624 80.8808ZM326.693 82V72.4498H328.16V82H326.693ZM327.439 70.8582C327.153 70.8582 326.906 70.7607 326.699 70.5659C326.496 70.3711 326.395 70.1369 326.395 69.8633C326.395 69.5898 326.496 69.3556 326.699 69.1608C326.906 68.9659 327.153 68.8685 327.439 68.8685C327.725 68.8685 327.97 68.9659 328.173 69.1608C328.38 69.3556 328.484 69.5898 328.484 69.8633C328.484 70.1369 328.38 70.3711 328.173 70.5659C327.97 70.7607 327.725 70.8582 327.439 70.8582ZM332.315 76.255V82H330.848V72.4498H332.265V73.9421H332.39C332.614 73.4571 332.954 73.0675 333.409 72.7732C333.865 72.4747 334.454 72.3255 335.175 72.3255C335.822 72.3255 336.388 72.4581 336.873 72.7234C337.358 72.9846 337.735 73.3825 338.004 73.9172C338.274 74.4477 338.408 75.1192 338.408 75.9317V82H336.941V76.0312C336.941 75.2809 336.746 74.6965 336.357 74.2778C335.967 73.855 335.432 73.6436 334.752 73.6436C334.284 73.6436 333.865 73.7452 333.497 73.9483C333.132 74.1514 332.844 74.4477 332.632 74.8374C332.421 75.227 332.315 75.6995 332.315 76.255ZM344.945 85.7803C344.236 85.7803 343.626 85.6891 343.117 85.5067C342.607 85.3285 342.182 85.0922 341.842 84.7979C341.506 84.5077 341.239 84.1969 341.04 83.8653L342.209 83.0445C342.341 83.2186 342.509 83.4176 342.712 83.6414C342.916 83.8694 343.193 84.0663 343.546 84.2321C343.902 84.402 344.368 84.487 344.945 84.487C345.716 84.487 346.352 84.3005 346.853 83.9274C347.355 83.5544 347.606 82.9699 347.606 82.1741V80.2342H347.481C347.374 80.4083 347.22 80.6238 347.021 80.8808C346.826 81.1337 346.545 81.3596 346.176 81.5586C345.811 81.7534 345.318 81.8508 344.696 81.8508C343.925 81.8508 343.233 81.6684 342.619 81.3036C342.01 80.9389 341.527 80.4083 341.171 79.7119C340.818 79.0156 340.642 78.17 340.642 77.1752C340.642 76.197 340.814 75.3451 341.158 74.6198C341.502 73.8902 341.981 73.3265 342.594 72.9286C343.208 72.5265 343.917 72.3255 344.721 72.3255C345.342 72.3255 345.836 72.4291 346.201 72.6364C346.569 72.8395 346.851 73.0716 347.046 73.3327C347.245 73.5897 347.398 73.8011 347.506 73.9669H347.655V72.4498H349.073V82.2736C349.073 83.0943 348.887 83.7616 348.513 84.2756C348.145 84.7938 347.647 85.173 347.021 85.4134C346.399 85.658 345.707 85.7803 344.945 85.7803ZM344.895 80.5327C345.483 80.5327 345.981 80.3979 346.387 80.1285C346.793 79.8591 347.102 79.4715 347.313 78.9658C347.525 78.4601 347.631 77.855 347.631 77.1503C347.631 76.4622 347.527 75.855 347.32 75.3286C347.112 74.8022 346.806 74.3897 346.399 74.0913C345.993 73.7928 345.492 73.6436 344.895 73.6436C344.273 73.6436 343.755 73.8011 343.34 74.1161C342.93 74.4312 342.621 74.854 342.414 75.3845C342.211 75.9151 342.109 76.5037 342.109 77.1503C342.109 77.8135 342.213 78.4 342.42 78.9099C342.632 79.4156 342.943 79.8135 343.353 80.1036C343.767 80.3897 344.281 80.5327 344.895 80.5327Z" fill="black"/>
<g filter="url(#filter2_d_21_199)">
<rect x="470" y="338" width="140.069" height="175.224" rx="5.83621" fill="white"/>
</g>
<path d="M500.723 421V408.266H505.026C506.024 408.266 506.841 408.447 507.475 408.807C508.114 409.164 508.586 409.647 508.893 410.256C509.2 410.865 509.353 411.545 509.353 412.295C509.353 413.046 509.2 413.728 508.893 414.341C508.59 414.954 508.122 415.444 507.488 415.808C506.853 416.169 506.041 416.349 505.05 416.349H501.966V414.981H505.001C505.685 414.981 506.234 414.863 506.648 414.627C507.063 414.391 507.363 414.072 507.55 413.67C507.741 413.263 507.836 412.805 507.836 412.295C507.836 411.786 507.741 411.33 507.55 410.928C507.363 410.526 507.061 410.21 506.642 409.983C506.223 409.75 505.668 409.634 504.976 409.634H502.265V421H500.723ZM515.415 421.199C514.553 421.199 513.796 420.994 513.146 420.583C512.499 420.173 511.993 419.599 511.629 418.861C511.268 418.123 511.088 417.261 511.088 416.275C511.088 415.28 511.268 414.411 511.629 413.67C511.993 412.928 512.499 412.351 513.146 411.941C513.796 411.531 514.553 411.325 515.415 411.325C516.277 411.325 517.032 411.531 517.678 411.941C518.329 412.351 518.835 412.928 519.195 413.67C519.56 414.411 519.742 415.28 519.742 416.275C519.742 417.261 519.56 418.123 519.195 418.861C518.835 419.599 518.329 420.173 517.678 420.583C517.032 420.994 516.277 421.199 515.415 421.199ZM515.415 419.881C516.07 419.881 516.609 419.713 517.032 419.377C517.454 419.041 517.767 418.6 517.97 418.053C518.174 417.506 518.275 416.913 518.275 416.275C518.275 415.636 518.174 415.042 517.97 414.49C517.767 413.939 517.454 413.493 517.032 413.153C516.609 412.814 516.07 412.644 515.415 412.644C514.76 412.644 514.221 412.814 513.798 413.153C513.376 413.493 513.063 413.939 512.86 414.49C512.657 415.042 512.555 415.636 512.555 416.275C512.555 416.913 512.657 417.506 512.86 418.053C513.063 418.6 513.376 419.041 513.798 419.377C514.221 419.713 514.76 419.881 515.415 419.881ZM528.747 413.589L527.429 413.962C527.346 413.742 527.224 413.529 527.062 413.321C526.905 413.11 526.689 412.936 526.415 412.799C526.142 412.662 525.792 412.594 525.365 412.594C524.78 412.594 524.293 412.729 523.904 412.998C523.518 413.263 523.325 413.601 523.325 414.011C523.325 414.376 523.458 414.664 523.723 414.876C523.989 415.087 524.403 415.263 524.967 415.404L526.384 415.752C527.238 415.96 527.875 416.277 528.293 416.704C528.712 417.126 528.921 417.672 528.921 418.339C528.921 418.886 528.764 419.375 528.449 419.806C528.138 420.237 527.702 420.577 527.143 420.826C526.583 421.075 525.933 421.199 525.191 421.199C524.217 421.199 523.41 420.988 522.772 420.565C522.134 420.142 521.729 419.524 521.56 418.712L522.952 418.364C523.085 418.878 523.336 419.263 523.705 419.52C524.078 419.777 524.565 419.906 525.166 419.906C525.85 419.906 526.393 419.761 526.795 419.47C527.201 419.176 527.404 418.824 527.404 418.413C527.404 418.082 527.288 417.804 527.056 417.58C526.824 417.352 526.467 417.182 525.986 417.071L524.395 416.697C523.52 416.49 522.878 416.169 522.467 415.734C522.061 415.294 521.858 414.745 521.858 414.086C521.858 413.547 522.009 413.071 522.312 412.656C522.619 412.242 523.035 411.916 523.562 411.68C524.092 411.444 524.693 411.325 525.365 411.325C526.31 411.325 527.052 411.533 527.591 411.947C528.134 412.362 528.519 412.909 528.747 413.589ZM531.13 421V411.45H532.597V421H531.13ZM531.876 409.858C531.59 409.858 531.343 409.761 531.136 409.566C530.933 409.371 530.831 409.137 530.831 408.863C530.831 408.59 530.933 408.356 531.136 408.161C531.343 407.966 531.59 407.869 531.876 407.869C532.162 407.869 532.407 407.966 532.61 408.161C532.817 408.356 532.921 408.59 532.921 408.863C532.921 409.137 532.817 409.371 532.61 409.566C532.407 409.761 532.162 409.858 531.876 409.858ZM539.438 411.45V412.693H534.489V411.45H539.438ZM535.931 409.162H537.399V418.264C537.399 418.679 537.459 418.99 537.579 419.197C537.703 419.4 537.861 419.537 538.052 419.607C538.246 419.674 538.452 419.707 538.667 419.707C538.829 419.707 538.961 419.698 539.065 419.682C539.169 419.661 539.252 419.645 539.314 419.632L539.612 420.95C539.513 420.988 539.374 421.025 539.196 421.062C539.017 421.104 538.791 421.124 538.518 421.124C538.103 421.124 537.697 421.035 537.299 420.857C536.905 420.679 536.578 420.407 536.317 420.042C536.06 419.678 535.931 419.218 535.931 418.662V409.162ZM541.645 421V411.45H543.113V421H541.645ZM542.391 409.858C542.105 409.858 541.859 409.761 541.652 409.566C541.448 409.371 541.347 409.137 541.347 408.863C541.347 408.59 541.448 408.356 541.652 408.161C541.859 407.966 542.105 407.869 542.391 407.869C542.677 407.869 542.922 407.966 543.125 408.161C543.332 408.356 543.436 408.59 543.436 408.863C543.436 409.137 543.332 409.371 543.125 409.566C542.922 409.761 542.677 409.858 542.391 409.858ZM549.68 421.199C548.818 421.199 548.061 420.994 547.411 420.583C546.764 420.173 546.258 419.599 545.893 418.861C545.533 418.123 545.353 417.261 545.353 416.275C545.353 415.28 545.533 414.411 545.893 413.67C546.258 412.928 546.764 412.351 547.411 411.941C548.061 411.531 548.818 411.325 549.68 411.325C550.542 411.325 551.297 411.531 551.943 411.941C552.594 412.351 553.1 412.928 553.46 413.67C553.825 414.411 554.007 415.28 554.007 416.275C554.007 417.261 553.825 418.123 553.46 418.861C553.1 419.599 552.594 420.173 551.943 420.583C551.297 420.994 550.542 421.199 549.68 421.199ZM549.68 419.881C550.335 419.881 550.874 419.713 551.297 419.377C551.719 419.041 552.032 418.6 552.235 418.053C552.438 417.506 552.54 416.913 552.54 416.275C552.54 415.636 552.438 415.042 552.235 414.49C552.032 413.939 551.719 413.493 551.297 413.153C550.874 412.814 550.335 412.644 549.68 412.644C549.025 412.644 548.486 412.814 548.063 413.153C547.641 413.493 547.328 413.939 547.125 414.49C546.921 415.042 546.82 415.636 546.82 416.275C546.82 416.913 546.921 417.506 547.125 418.053C547.328 418.6 547.641 419.041 548.063 419.377C548.486 419.713 549.025 419.881 549.68 419.881ZM557.715 415.255V421H556.247V411.45H557.665V412.942H557.789C558.013 412.457 558.353 412.067 558.809 411.773C559.265 411.475 559.853 411.325 560.575 411.325C561.221 411.325 561.787 411.458 562.272 411.723C562.757 411.985 563.134 412.382 563.404 412.917C563.673 413.448 563.808 414.119 563.808 414.932V421H562.34V415.031C562.34 414.281 562.146 413.696 561.756 413.278C561.366 412.855 560.832 412.644 560.152 412.644C559.683 412.644 559.265 412.745 558.896 412.948C558.531 413.151 558.243 413.448 558.032 413.837C557.82 414.227 557.715 414.7 557.715 415.255ZM569.299 421.224C568.694 421.224 568.145 421.11 567.652 420.882C567.159 420.65 566.767 420.316 566.477 419.881C566.187 419.441 566.041 418.911 566.041 418.289C566.041 417.742 566.149 417.298 566.365 416.959C566.58 416.615 566.868 416.345 567.229 416.15C567.59 415.955 567.988 415.81 568.423 415.715C568.862 415.616 569.304 415.537 569.747 415.479C570.327 415.404 570.798 415.348 571.158 415.311C571.523 415.269 571.789 415.201 571.954 415.106C572.124 415.01 572.209 414.845 572.209 414.608V414.559C572.209 413.945 572.041 413.468 571.706 413.129C571.374 412.789 570.87 412.619 570.195 412.619C569.494 412.619 568.945 412.772 568.547 413.079C568.149 413.386 567.869 413.713 567.708 414.061L566.315 413.564C566.564 412.984 566.895 412.532 567.31 412.208C567.728 411.881 568.184 411.653 568.678 411.524C569.175 411.392 569.664 411.325 570.145 411.325C570.452 411.325 570.804 411.363 571.202 411.437C571.604 411.508 571.992 411.655 572.365 411.879C572.742 412.103 573.055 412.441 573.304 412.892C573.552 413.344 573.677 413.949 573.677 414.708V421H572.209V419.707H572.135C572.035 419.914 571.869 420.136 571.637 420.372C571.405 420.608 571.096 420.809 570.711 420.975C570.325 421.141 569.855 421.224 569.299 421.224ZM569.523 419.906C570.104 419.906 570.593 419.792 570.991 419.564C571.393 419.336 571.695 419.041 571.898 418.681C572.106 418.32 572.209 417.941 572.209 417.543V416.2C572.147 416.275 572.01 416.343 571.799 416.405C571.592 416.463 571.351 416.515 571.078 416.561C570.808 416.602 570.545 416.639 570.288 416.673C570.035 416.702 569.83 416.726 569.673 416.747C569.291 416.797 568.935 416.878 568.603 416.99C568.276 417.097 568.01 417.261 567.807 417.481C567.608 417.696 567.509 417.991 567.509 418.364C567.509 418.874 567.697 419.259 568.075 419.52C568.456 419.777 568.939 419.906 569.523 419.906ZM577.822 408.266V421H576.355V408.266H577.822ZM504.528 442.199C503.608 442.199 502.814 441.996 502.147 441.59C501.484 441.179 500.972 440.607 500.611 439.874C500.255 439.136 500.076 438.278 500.076 437.3C500.076 436.321 500.255 435.459 500.611 434.713C500.972 433.963 501.473 433.378 502.116 432.96C502.762 432.537 503.517 432.325 504.379 432.325C504.876 432.325 505.367 432.408 505.852 432.574C506.337 432.74 506.779 433.009 507.177 433.382C507.575 433.751 507.892 434.24 508.128 434.85C508.364 435.459 508.482 436.209 508.482 437.101V437.722H501.121V436.454H506.99C506.99 435.915 506.883 435.434 506.667 435.011C506.456 434.589 506.153 434.255 505.759 434.01C505.37 433.766 504.909 433.644 504.379 433.644C503.794 433.644 503.289 433.789 502.862 434.079C502.439 434.365 502.114 434.738 501.886 435.198C501.658 435.658 501.544 436.151 501.544 436.678V437.523C501.544 438.245 501.668 438.856 501.917 439.358C502.17 439.855 502.52 440.234 502.968 440.495C503.415 440.752 503.935 440.881 504.528 440.881C504.914 440.881 505.262 440.827 505.573 440.719C505.888 440.607 506.159 440.441 506.387 440.222C506.615 439.998 506.791 439.72 506.916 439.389L508.333 439.787C508.184 440.267 507.933 440.69 507.581 441.055C507.229 441.416 506.793 441.697 506.275 441.901C505.757 442.099 505.175 442.199 504.528 442.199ZM512.182 436.255V442H510.715V432.45H512.132V433.942H512.257C512.48 433.457 512.82 433.067 513.276 432.773C513.732 432.475 514.321 432.325 515.042 432.325C515.689 432.325 516.254 432.458 516.739 432.723C517.224 432.985 517.602 433.382 517.871 433.917C518.14 434.448 518.275 435.119 518.275 435.932V442H516.808V436.031C516.808 435.281 516.613 434.696 516.223 434.278C515.834 433.855 515.299 433.644 514.619 433.644C514.151 433.644 513.732 433.745 513.363 433.948C512.998 434.151 512.71 434.448 512.499 434.837C512.288 435.227 512.182 435.7 512.182 436.255ZM524.836 442.199C523.941 442.199 523.17 441.988 522.523 441.565C521.877 441.142 521.379 440.56 521.031 439.818C520.683 439.076 520.509 438.228 520.509 437.275C520.509 436.305 520.687 435.449 521.043 434.707C521.404 433.961 521.906 433.378 522.548 432.96C523.195 432.537 523.949 432.325 524.811 432.325C525.483 432.325 526.088 432.45 526.627 432.699C527.166 432.947 527.607 433.295 527.951 433.743C528.295 434.191 528.509 434.713 528.592 435.31H527.124C527.012 434.875 526.764 434.489 526.378 434.153C525.997 433.814 525.483 433.644 524.836 433.644C524.264 433.644 523.763 433.793 523.332 434.091C522.905 434.386 522.571 434.802 522.331 435.341C522.094 435.876 521.976 436.504 521.976 437.225C521.976 437.963 522.092 438.605 522.324 439.152C522.561 439.7 522.892 440.124 523.319 440.427C523.75 440.73 524.256 440.881 524.836 440.881C525.218 440.881 525.564 440.815 525.875 440.682C526.185 440.549 526.449 440.359 526.664 440.11C526.88 439.861 527.033 439.563 527.124 439.215H528.592C528.509 439.778 528.304 440.286 527.976 440.738C527.653 441.186 527.224 441.542 526.689 441.807C526.158 442.068 525.541 442.199 524.836 442.199ZM534.616 442.199C533.754 442.199 532.998 441.994 532.347 441.583C531.7 441.173 531.195 440.599 530.83 439.861C530.469 439.123 530.289 438.261 530.289 437.275C530.289 436.28 530.469 435.411 530.83 434.67C531.195 433.928 531.7 433.351 532.347 432.941C532.998 432.531 533.754 432.325 534.616 432.325C535.479 432.325 536.233 432.531 536.88 432.941C537.53 433.351 538.036 433.928 538.397 434.67C538.761 435.411 538.944 436.28 538.944 437.275C538.944 438.261 538.761 439.123 538.397 439.861C538.036 440.599 537.53 441.173 536.88 441.583C536.233 441.994 535.479 442.199 534.616 442.199ZM534.616 440.881C535.271 440.881 535.81 440.713 536.233 440.377C536.656 440.041 536.969 439.6 537.172 439.053C537.375 438.506 537.476 437.913 537.476 437.275C537.476 436.636 537.375 436.042 537.172 435.49C536.969 434.939 536.656 434.493 536.233 434.153C535.81 433.814 535.271 433.644 534.616 433.644C533.961 433.644 533.423 433.814 533 434.153C532.577 434.493 532.264 434.939 532.061 435.49C531.858 436.042 531.756 436.636 531.756 437.275C531.756 437.913 531.858 438.506 532.061 439.053C532.264 439.6 532.577 440.041 533 440.377C533.423 440.713 533.961 440.881 534.616 440.881ZM544.79 442.199C543.994 442.199 543.291 441.998 542.682 441.596C542.073 441.19 541.596 440.618 541.252 439.88C540.908 439.138 540.736 438.261 540.736 437.25C540.736 436.247 540.908 435.376 541.252 434.638C541.596 433.901 542.075 433.331 542.688 432.929C543.302 432.527 544.011 432.325 544.815 432.325C545.436 432.325 545.928 432.429 546.288 432.636C546.653 432.839 546.931 433.072 547.121 433.333C547.316 433.59 547.468 433.801 547.575 433.967H547.7V429.266H549.167V442H547.749V440.533H547.575C547.468 440.707 547.314 440.926 547.115 441.192C546.916 441.453 546.632 441.687 546.263 441.894C545.895 442.097 545.403 442.199 544.79 442.199ZM544.989 440.881C545.577 440.881 546.075 440.727 546.481 440.421C546.887 440.11 547.196 439.681 547.407 439.134C547.619 438.582 547.725 437.946 547.725 437.225C547.725 436.512 547.621 435.888 547.414 435.353C547.206 434.815 546.9 434.396 546.493 434.097C546.087 433.795 545.586 433.644 544.989 433.644C544.367 433.644 543.849 433.803 543.434 434.122C543.024 434.437 542.715 434.866 542.508 435.409C542.305 435.948 542.203 436.553 542.203 437.225C542.203 437.905 542.307 438.522 542.514 439.078C542.726 439.629 543.037 440.068 543.447 440.396C543.861 440.719 544.375 440.881 544.989 440.881ZM552.058 442V432.45H553.526V442H552.058ZM552.804 430.858C552.518 430.858 552.272 430.761 552.064 430.566C551.861 430.371 551.76 430.137 551.76 429.863C551.76 429.59 551.861 429.356 552.064 429.161C552.272 428.966 552.518 428.869 552.804 428.869C553.09 428.869 553.335 428.966 553.538 429.161C553.745 429.356 553.849 429.59 553.849 429.863C553.849 430.137 553.745 430.371 553.538 430.566C553.335 430.761 553.09 430.858 552.804 430.858ZM557.68 436.255V442H556.213V432.45H557.631V433.942H557.755C557.979 433.457 558.319 433.067 558.775 432.773C559.231 432.475 559.819 432.325 560.54 432.325C561.187 432.325 561.753 432.458 562.238 432.723C562.723 432.985 563.1 433.382 563.369 433.917C563.639 434.448 563.774 435.119 563.774 435.932V442H562.306V436.031C562.306 435.281 562.111 434.696 561.722 434.278C561.332 433.855 560.797 433.644 560.118 433.644C559.649 433.644 559.231 433.745 558.862 433.948C558.497 434.151 558.209 434.448 557.997 434.837C557.786 435.227 557.68 435.7 557.68 436.255ZM570.31 445.78C569.601 445.78 568.992 445.689 568.482 445.507C567.972 445.328 567.547 445.092 567.207 444.798C566.871 444.508 566.604 444.197 566.405 443.865L567.574 443.045C567.707 443.219 567.875 443.418 568.078 443.641C568.281 443.869 568.559 444.066 568.911 444.232C569.267 444.402 569.734 444.487 570.31 444.487C571.081 444.487 571.717 444.3 572.219 443.927C572.72 443.554 572.971 442.97 572.971 442.174V440.234H572.847C572.739 440.408 572.585 440.624 572.386 440.881C572.192 441.134 571.91 441.36 571.541 441.559C571.176 441.753 570.683 441.851 570.061 441.851C569.29 441.851 568.598 441.668 567.984 441.304C567.375 440.939 566.892 440.408 566.536 439.712C566.183 439.016 566.007 438.17 566.007 437.175C566.007 436.197 566.179 435.345 566.523 434.62C566.867 433.89 567.346 433.327 567.96 432.929C568.573 432.527 569.282 432.325 570.086 432.325C570.708 432.325 571.201 432.429 571.566 432.636C571.935 432.839 572.217 433.072 572.411 433.333C572.61 433.59 572.764 433.801 572.871 433.967H573.021V432.45H574.438V442.274C574.438 443.094 574.252 443.762 573.879 444.276C573.51 444.794 573.012 445.173 572.386 445.413C571.765 445.658 571.072 445.78 570.31 445.78ZM570.26 440.533C570.849 440.533 571.346 440.398 571.752 440.129C572.158 439.859 572.467 439.472 572.679 438.966C572.89 438.46 572.996 437.855 572.996 437.15C572.996 436.462 572.892 435.855 572.685 435.329C572.478 434.802 572.171 434.39 571.765 434.091C571.358 433.793 570.857 433.644 570.26 433.644C569.638 433.644 569.12 433.801 568.706 434.116C568.295 434.431 567.987 434.854 567.779 435.385C567.576 435.915 567.475 436.504 567.475 437.15C567.475 437.814 567.578 438.4 567.785 438.91C567.997 439.416 568.308 439.813 568.718 440.104C569.133 440.39 569.647 440.533 570.26 440.533Z" fill="black"/>
<g filter="url(#filter3_d_21_199)">
<circle cx="408.887" cy="244.779" r="16.7791" fill="white"/>
</g>
<path d="M408.887 235.948V253.61" stroke="black" stroke-width="1.45905"/>
<line x1="400.056" y1="244.05" x2="416.835" y2="244.05" stroke="black" stroke-width="1.45905"/>
<g filter="url(#filter4_d_21_199)">
<path d="M535.664 245.05L535.664 244.32H535.664L535.664 245.05ZM439.011 245.566C438.726 245.281 438.726 244.819 439.011 244.534L443.654 239.891C443.939 239.606 444.401 239.606 444.686 239.891C444.97 240.176 444.97 240.638 444.686 240.923L440.559 245.05L444.686 249.177C444.97 249.462 444.97 249.923 444.686 250.208C444.401 250.493 443.939 250.493 443.654 250.208L439.011 245.566ZM541.5 250.886L540.77 250.886L541.5 250.886ZM535.664 245.779L439.527 245.779L439.527 244.32L535.664 244.32L535.664 245.779ZM542.229 250.886L542.23 330L540.77 330L540.77 250.886L542.229 250.886ZM535.664 244.32C539.29 244.32 542.229 247.26 542.229 250.886L540.77 250.886C540.77 248.066 538.484 245.779 535.664 245.779L535.664 244.32Z" fill="#574E6A" fill-opacity="0.8"/>
</g>
<g filter="url(#filter5_d_21_199)">
<path d="M283.836 245L283.836 244.27H283.836L283.836 245ZM380.489 245.516C380.774 245.231 380.774 244.769 380.489 244.484L375.846 239.841C375.561 239.557 375.099 239.557 374.814 239.841C374.53 240.126 374.53 240.588 374.814 240.873L378.941 245L374.814 249.127C374.53 249.412 374.53 249.874 374.814 250.159C375.099 250.443 375.561 250.443 375.846 250.159L380.489 245.516ZM278 250.836L278.73 250.836L278 250.836ZM283.836 245.73L379.973 245.73L379.973 244.27L283.836 244.27L283.836 245.73ZM277.271 250.836L277.27 329.95L278.73 329.95L278.73 250.836L277.271 250.836ZM283.836 244.27C280.21 244.27 277.271 247.21 277.271 250.836L278.73 250.836C278.73 248.016 281.016 245.73 283.836 245.73L283.836 244.27Z" fill="#574E6A" fill-opacity="0.8"/>
</g>
<g filter="url(#filter6_d_21_199)">
<path d="M251.484 110.484C251.769 110.199 252.231 110.199 252.516 110.484L257.159 115.127C257.443 115.412 257.443 115.874 257.159 116.159C256.874 116.443 256.412 116.443 256.127 116.159L252 112.032L247.873 116.159C247.588 116.443 247.126 116.443 246.841 116.159C246.557 115.874 246.557 115.412 246.841 115.127L251.484 110.484ZM251.27 151L251.27 111L252.73 111L252.729 151L251.27 151Z" fill="#574E6A" fill-opacity="0.8"/>
</g>
<g filter="url(#filter7_d_21_199)">
<path d="M101.836 178L101.836 177.27L101.836 177.27L101.836 178ZM195.516 178.516C195.801 178.231 195.801 177.769 195.516 177.484L190.873 172.841C190.588 172.557 190.126 172.557 189.841 172.841C189.557 173.126 189.557 173.588 189.841 173.873L193.968 178L189.841 182.127C189.557 182.412 189.557 182.874 189.841 183.159C190.126 183.443 190.588 183.443 190.873 183.159L195.516 178.516ZM96 183.836H95.2705H96ZM101.836 178.73L195 178.73L195 177.27L101.836 177.27L101.836 178.73ZM95.2705 183.836L95.2705 220.312H96.7295L96.7295 183.836H95.2705ZM101.836 177.27C98.2101 177.27 95.2705 180.21 95.2705 183.836H96.7295C96.7295 181.016 99.0159 178.73 101.836 178.73L101.836 177.27Z" fill="#574E6A" fill-opacity="0.8"/>
</g>
<g filter="url(#filter8_d_21_199)">
<path d="M403.164 178L403.164 177.27L403.164 177.27L403.164 178ZM309.484 178.516C309.199 178.231 309.199 177.769 309.484 177.484L314.127 172.841C314.412 172.557 314.874 172.557 315.159 172.841C315.443 173.126 315.443 173.588 315.159 173.873L311.032 178L315.159 182.127C315.443 182.412 315.443 182.874 315.159 183.159C314.874 183.443 314.412 183.443 314.127 183.159L309.484 178.516ZM409 183.836H409.73H409ZM403.164 178.73L310 178.73L310 177.27L403.164 177.27L403.164 178.73ZM409.73 183.836L409.73 220.312H408.27L408.27 183.836H409.73ZM403.164 177.27C406.79 177.27 409.73 180.21 409.73 183.836H408.27C408.27 181.016 405.984 178.73 403.164 178.73L403.164 177.27Z" fill="#574E6A" fill-opacity="0.8"/>
</g>
<g filter="url(#filter9_d_21_199)">
<ellipse cx="252.69" cy="178.156" rx="46.6897" ry="21.1562" fill="white"/>
</g>
<path d="M228.731 184.412C227.836 184.412 227.065 184.201 226.418 183.778C225.772 183.355 225.274 182.773 224.926 182.031C224.578 181.289 224.404 180.441 224.404 179.488C224.404 178.518 224.582 177.662 224.939 176.92C225.299 176.174 225.801 175.592 226.443 175.173C227.09 174.75 227.844 174.539 228.706 174.539C229.378 174.539 229.983 174.663 230.522 174.912C231.061 175.161 231.502 175.509 231.846 175.956C232.19 176.404 232.404 176.926 232.487 177.523H231.019C230.907 177.088 230.659 176.703 230.273 176.367C229.892 176.027 229.378 175.857 228.731 175.857C228.159 175.857 227.658 176.006 227.227 176.305C226.8 176.599 226.466 177.016 226.226 177.554C225.989 178.089 225.871 178.717 225.871 179.438C225.871 180.176 225.987 180.819 226.219 181.366C226.456 181.913 226.787 182.338 227.214 182.64C227.645 182.943 228.151 183.094 228.731 183.094C229.113 183.094 229.459 183.028 229.77 182.895C230.08 182.763 230.344 182.572 230.559 182.323C230.775 182.075 230.928 181.776 231.019 181.428H232.487C232.404 181.992 232.199 182.499 231.871 182.951C231.548 183.399 231.119 183.755 230.584 184.021C230.054 184.282 229.436 184.412 228.731 184.412ZM238.511 184.412C237.649 184.412 236.893 184.207 236.242 183.797C235.595 183.386 235.09 182.812 234.725 182.075C234.364 181.337 234.184 180.475 234.184 179.488C234.184 178.493 234.364 177.625 234.725 176.883C235.09 176.141 235.595 175.565 236.242 175.154C236.893 174.744 237.649 174.539 238.511 174.539C239.374 174.539 240.128 174.744 240.775 175.154C241.425 175.565 241.931 176.141 242.292 176.883C242.657 177.625 242.839 178.493 242.839 179.488C242.839 180.475 242.657 181.337 242.292 182.075C241.931 182.812 241.425 183.386 240.775 183.797C240.128 184.207 239.374 184.412 238.511 184.412ZM238.511 183.094C239.166 183.094 239.705 182.926 240.128 182.591C240.551 182.255 240.864 181.813 241.067 181.266C241.27 180.719 241.372 180.126 241.372 179.488C241.372 178.85 241.27 178.255 241.067 177.704C240.864 177.152 240.551 176.707 240.128 176.367C239.705 176.027 239.166 175.857 238.511 175.857C237.857 175.857 237.318 176.027 236.895 176.367C236.472 176.707 236.159 177.152 235.956 177.704C235.753 178.255 235.651 178.85 235.651 179.488C235.651 180.126 235.753 180.719 235.956 181.266C236.159 181.813 236.472 182.255 236.895 182.591C237.318 182.926 237.857 183.094 238.511 183.094ZM246.546 178.468V184.213H245.079V174.663H246.496V176.155H246.621C246.845 175.67 247.184 175.281 247.64 174.987C248.096 174.688 248.685 174.539 249.406 174.539C250.053 174.539 250.619 174.672 251.104 174.937C251.589 175.198 251.966 175.596 252.235 176.131C252.505 176.661 252.639 177.333 252.639 178.145V184.213H251.172V178.245C251.172 177.494 250.977 176.91 250.588 176.491C250.198 176.068 249.663 175.857 248.983 175.857C248.515 175.857 248.096 175.959 247.727 176.162C247.363 176.365 247.075 176.661 246.863 177.051C246.652 177.44 246.546 177.913 246.546 178.468ZM259.2 184.412C258.305 184.412 257.534 184.201 256.887 183.778C256.241 183.355 255.743 182.773 255.395 182.031C255.047 181.289 254.873 180.441 254.873 179.488C254.873 178.518 255.051 177.662 255.408 176.92C255.768 176.174 256.27 175.592 256.912 175.173C257.559 174.75 258.313 174.539 259.176 174.539C259.847 174.539 260.452 174.663 260.991 174.912C261.53 175.161 261.971 175.509 262.315 175.956C262.659 176.404 262.873 176.926 262.956 177.523H261.488C261.377 177.088 261.128 176.703 260.742 176.367C260.361 176.027 259.847 175.857 259.2 175.857C258.628 175.857 258.127 176.006 257.696 176.305C257.269 176.599 256.935 177.016 256.695 177.554C256.458 178.089 256.34 178.717 256.34 179.438C256.34 180.176 256.456 180.819 256.688 181.366C256.925 181.913 257.256 182.338 257.683 182.64C258.114 182.943 258.62 183.094 259.2 183.094C259.582 183.094 259.928 183.028 260.239 182.895C260.55 182.763 260.813 182.572 261.028 182.323C261.244 182.075 261.397 181.776 261.488 181.428H262.956C262.873 181.992 262.668 182.499 262.34 182.951C262.017 183.399 261.588 183.755 261.053 184.021C260.523 184.282 259.905 184.412 259.2 184.412ZM267.911 184.437C267.306 184.437 266.757 184.323 266.264 184.095C265.77 183.863 265.379 183.529 265.088 183.094C264.798 182.655 264.653 182.124 264.653 181.503C264.653 180.955 264.761 180.512 264.976 180.172C265.192 179.828 265.48 179.559 265.841 179.364C266.201 179.169 266.599 179.024 267.034 178.928C267.474 178.829 267.915 178.75 268.359 178.692C268.939 178.618 269.41 178.562 269.77 178.524C270.135 178.483 270.4 178.414 270.566 178.319C270.736 178.224 270.821 178.058 270.821 177.822V177.772C270.821 177.159 270.653 176.682 270.317 176.342C269.986 176.002 269.482 175.832 268.807 175.832C268.106 175.832 267.557 175.985 267.159 176.292C266.761 176.599 266.481 176.926 266.319 177.275L264.927 176.777C265.175 176.197 265.507 175.745 265.922 175.422C266.34 175.094 266.796 174.866 267.289 174.738C267.787 174.605 268.276 174.539 268.757 174.539C269.063 174.539 269.416 174.576 269.814 174.651C270.216 174.721 270.603 174.868 270.976 175.092C271.354 175.316 271.667 175.654 271.915 176.106C272.164 176.558 272.288 177.163 272.288 177.921V184.213H270.821V182.92H270.746C270.647 183.127 270.481 183.349 270.249 183.585C270.017 183.822 269.708 184.023 269.323 184.189C268.937 184.354 268.467 184.437 267.911 184.437ZM268.135 183.119C268.715 183.119 269.204 183.005 269.602 182.777C270.004 182.549 270.307 182.255 270.51 181.894C270.717 181.534 270.821 181.154 270.821 180.756V179.413C270.759 179.488 270.622 179.556 270.411 179.619C270.203 179.677 269.963 179.728 269.689 179.774C269.42 179.815 269.157 179.853 268.9 179.886C268.647 179.915 268.442 179.94 268.284 179.961C267.903 180.01 267.546 180.091 267.215 180.203C266.887 180.311 266.622 180.475 266.419 180.694C266.22 180.91 266.121 181.204 266.121 181.577C266.121 182.087 266.309 182.472 266.686 182.734C267.068 182.991 267.551 183.119 268.135 183.119ZM279.12 174.663V175.907H274.171V174.663H279.12ZM275.613 172.375H277.081V181.478C277.081 181.892 277.141 182.203 277.261 182.41C277.385 182.613 277.543 182.75 277.733 182.821C277.928 182.887 278.133 182.92 278.349 182.92C278.511 182.92 278.643 182.912 278.747 182.895C278.85 182.875 278.933 182.858 278.996 182.846L279.294 184.164C279.194 184.201 279.056 184.238 278.877 184.276C278.699 184.317 278.473 184.338 278.2 184.338C277.785 184.338 277.379 184.249 276.981 184.07C276.587 183.892 276.26 183.621 275.999 183.256C275.742 182.891 275.613 182.431 275.613 181.876V172.375Z" fill="black"/>
<g filter="url(#filter10_d_21_199)">
<rect x="66" y="227" width="60" height="286" rx="5.83621" fill="white"/>
</g>
<path d="M94.2331 247.45L95.8746 251.354L98.8092 247.45H100.5L96.6207 252.225L98.9087 257H97.2175L95.5512 253.294L92.6414 257H90.9503L94.7803 252.225L92.542 247.45H94.2331Z" fill="black"/>
<path d="M91.9078 286.581C91.6591 286.581 91.4394 286.561 91.2487 286.519C91.0622 286.482 90.9337 286.445 90.8632 286.407L91.4601 285.114C91.8 285.205 92.1026 285.232 92.3679 285.195C92.6373 285.162 92.8922 285.031 93.1326 284.803C93.3772 284.579 93.6321 284.227 93.8974 283.746L94.3077 283L92.3927 273.45H93.9222L95.2901 281.085H95.3896L99.2942 273.45H100.948L95.0911 284.38C94.8176 284.89 94.5171 285.307 94.1896 285.63C93.8621 285.953 93.5077 286.192 93.1264 286.345C92.7451 286.503 92.3388 286.581 91.9078 286.581Z" fill="black"/>
<path d="M89.1409 312.199C88.3409 312.199 87.6694 311.998 87.1264 311.596C86.5834 311.19 86.2 310.618 85.9762 309.88C85.7565 309.138 85.7295 308.261 85.8953 307.25C86.0653 306.247 86.3824 305.376 86.8466 304.638C87.315 303.901 87.8891 303.331 88.5689 302.929C89.2487 302.527 89.9906 302.325 90.7948 302.325C91.4165 302.325 91.8911 302.429 92.2186 302.636C92.5502 302.839 92.7906 303.072 92.9398 303.333C93.089 303.59 93.203 303.801 93.2818 303.967H93.4061L94.1895 299.266H95.6569L93.5429 312H92.1253L92.374 310.533H92.1999C92.0631 310.707 91.8725 310.926 91.6279 311.192C91.3834 311.453 91.06 311.687 90.658 311.894C90.26 312.097 89.7544 312.199 89.1409 312.199ZM89.5015 310.881C90.0901 310.881 90.6165 310.727 91.0808 310.421C91.5492 310.11 91.9388 309.681 92.2497 309.134C92.5605 308.582 92.7761 307.946 92.8963 307.225C93.0165 306.512 93.0123 305.888 92.8839 305.353C92.7554 304.815 92.5087 304.396 92.144 304.097C91.7792 303.795 91.2963 303.644 90.6953 303.644C90.0777 303.644 89.5409 303.803 89.0849 304.122C88.629 304.437 88.258 304.866 87.972 305.409C87.686 305.948 87.487 306.553 87.3751 307.225C87.2632 307.905 87.2611 308.522 87.3689 309.078C87.4767 309.629 87.7046 310.068 88.0528 310.396C88.4051 310.719 88.888 310.881 89.5015 310.881ZM99.1076 302.45L100.749 306.354L103.684 302.45H105.375L101.495 307.225L103.783 312H102.092L100.426 308.294L97.5159 312H95.8248L99.6548 307.225L97.4164 302.45H99.1076Z" fill="black"/>
<path d="M90.1409 336.199C89.3409 336.199 88.6694 335.998 88.1264 335.596C87.5834 335.19 87.2 334.618 86.9762 333.88C86.7565 333.138 86.7295 332.261 86.8953 331.25C87.0653 330.247 87.3824 329.376 87.8466 328.638C88.315 327.901 88.8891 327.331 89.5689 326.929C90.2487 326.527 90.9906 326.325 91.7948 326.325C92.4165 326.325 92.8911 326.429 93.2186 326.636C93.5502 326.839 93.7906 327.072 93.9398 327.333C94.089 327.59 94.203 327.801 94.2818 327.967H94.4061L95.1895 323.266H96.6569L94.5429 336H93.1253L93.374 334.533H93.1999C93.0631 334.707 92.8725 334.926 92.6279 335.192C92.3834 335.453 92.06 335.687 91.658 335.894C91.26 336.097 90.7544 336.199 90.1409 336.199ZM90.5015 334.881C91.0901 334.881 91.6165 334.727 92.0808 334.421C92.5492 334.11 92.9388 333.681 93.2497 333.134C93.5605 332.582 93.7761 331.946 93.8963 331.225C94.0165 330.512 94.0123 329.888 93.8839 329.353C93.7554 328.815 93.5087 328.396 93.144 328.097C92.7792 327.795 92.2963 327.644 91.6953 327.644C91.0777 327.644 90.5409 327.803 90.0849 328.122C89.629 328.437 89.258 328.866 88.972 329.409C88.686 329.948 88.487 330.553 88.3751 331.225C88.2632 331.905 88.2611 332.522 88.3689 333.078C88.4767 333.629 88.7046 334.068 89.0528 334.396C89.4051 334.719 89.888 334.881 90.5015 334.881ZM103.167 326.45L102.968 327.693H98.0185L98.2175 326.45H103.167ZM100.033 324.162H101.5L99.9833 333.264C99.9169 333.679 99.9273 333.99 100.014 334.197C100.106 334.4 100.242 334.537 100.425 334.607C100.611 334.674 100.812 334.707 101.028 334.707C101.189 334.707 101.322 334.698 101.426 334.682C101.529 334.661 101.612 334.645 101.674 334.632L101.774 335.95C101.662 335.988 101.511 336.025 101.32 336.062C101.134 336.104 100.903 336.124 100.63 336.124C100.215 336.124 99.8258 336.035 99.461 335.857C99.0962 335.679 98.8164 335.407 98.6216 335.042C98.4268 334.678 98.375 334.218 98.4662 333.662L100.033 324.162Z" fill="black"/>
<line x1="85" y1="318.5" x2="106" y2="318.5" stroke="black"/>
<path d="M86.1409 415.199C85.3409 415.199 84.6694 414.998 84.1264 414.596C83.5834 414.19 83.2 413.618 82.9762 412.88C82.7565 412.138 82.7295 411.261 82.8953 410.25C83.0653 409.247 83.3824 408.376 83.8466 407.638C84.315 406.901 84.8891 406.331 85.5689 405.929C86.2487 405.527 86.9906 405.325 87.7948 405.325C88.4165 405.325 88.8911 405.429 89.2186 405.636C89.5502 405.839 89.7906 406.072 89.9398 406.333C90.089 406.59 90.203 406.801 90.2818 406.967H90.4061L91.1895 402.266H92.6569L90.5429 415H89.1253L89.374 413.533H89.1999C89.0631 413.707 88.8725 413.926 88.6279 414.192C88.3834 414.453 88.06 414.687 87.658 414.894C87.26 415.097 86.7544 415.199 86.1409 415.199ZM86.5015 413.881C87.0901 413.881 87.6165 413.727 88.0808 413.421C88.5492 413.11 88.9388 412.681 89.2497 412.134C89.5605 411.582 89.7761 410.946 89.8963 410.225C90.0165 409.512 90.0123 408.888 89.8839 408.353C89.7554 407.815 89.5087 407.396 89.144 407.097C88.7792 406.795 88.2963 406.644 87.6953 406.644C87.0777 406.644 86.5409 406.803 86.0849 407.122C85.629 407.437 85.258 407.866 84.972 408.409C84.686 408.948 84.487 409.553 84.3751 410.225C84.2632 410.905 84.2611 411.522 84.3689 412.078C84.4767 412.629 84.7046 413.068 85.0528 413.396C85.4051 413.719 85.888 413.881 86.5015 413.881ZM93.9937 408.633L94.1429 407.663L97.5004 405.077C97.8485 404.812 98.1387 404.575 98.3708 404.368C98.6071 404.161 98.7895 403.964 98.918 403.777C99.0506 403.591 99.1335 403.394 99.1667 403.187C99.2288 402.814 99.1376 402.517 98.8931 402.298C98.6485 402.078 98.3086 401.968 97.8734 401.968C97.4506 401.968 97.0734 402.084 96.7418 402.316C96.4144 402.548 96.2195 402.863 96.1574 403.261H94.8392C94.9512 402.577 95.2973 402.014 95.8776 401.57C96.4579 401.122 97.1646 400.899 97.9978 400.899C98.5615 400.899 99.0319 401.002 99.4091 401.209C99.7905 401.413 100.064 401.69 100.23 402.043C100.4 402.391 100.452 402.78 100.385 403.212C100.336 403.527 100.228 403.823 100.062 404.101C99.8962 404.378 99.6475 404.673 99.3159 404.984C98.9843 405.294 98.5449 405.657 97.9978 406.072L96.1076 407.489V407.539H99.9128L99.7387 408.633H93.9937ZM103.443 405.45L105.084 409.354L108.019 405.45H109.71L105.83 410.225L108.118 415H106.427L104.761 411.294L101.851 415H100.16L103.99 410.225L101.752 405.45H103.443Z" fill="black"/>
<path d="M87.1409 439.199C86.3409 439.199 85.6694 438.998 85.1264 438.596C84.5834 438.19 84.2 437.618 83.9762 436.88C83.7565 436.138 83.7295 435.261 83.8953 434.25C84.0653 433.247 84.3824 432.376 84.8466 431.638C85.315 430.901 85.8891 430.331 86.5689 429.929C87.2487 429.527 87.9906 429.325 88.7948 429.325C89.4165 429.325 89.8911 429.429 90.2186 429.636C90.5502 429.839 90.7906 430.072 90.9398 430.333C91.089 430.59 91.203 430.801 91.2818 430.967H91.4061L92.1895 426.266H93.6569L91.5429 439H90.1253L90.374 437.533H90.1999C90.0631 437.707 89.8725 437.926 89.6279 438.192C89.3834 438.453 89.06 438.687 88.658 438.894C88.26 439.097 87.7544 439.199 87.1409 439.199ZM87.5015 437.881C88.0901 437.881 88.6165 437.727 89.0808 437.421C89.5492 437.11 89.9388 436.681 90.2497 436.134C90.5605 435.582 90.7761 434.946 90.8963 434.225C91.0165 433.512 91.0123 432.888 90.8839 432.353C90.7554 431.815 90.5087 431.396 90.144 431.097C89.7792 430.795 89.2963 430.644 88.6953 430.644C88.0777 430.644 87.5409 430.803 87.0849 431.122C86.629 431.437 86.258 431.866 85.972 432.409C85.686 432.948 85.487 433.553 85.3751 434.225C85.2632 434.905 85.2611 435.522 85.3689 436.078C85.4767 436.629 85.7046 437.068 86.0528 437.396C86.4051 437.719 86.888 437.881 87.5015 437.881ZM100.167 429.45L99.9677 430.693H95.0185L95.2175 429.45H100.167ZM97.033 427.162H98.5004L96.9833 436.264C96.9169 436.679 96.9273 436.99 97.0144 437.197C97.1055 437.4 97.2423 437.537 97.4247 437.607C97.6112 437.674 97.8123 437.707 98.0278 437.707C98.1895 437.707 98.3221 437.698 98.4257 437.682C98.5294 437.661 98.6123 437.645 98.6744 437.632L98.7739 438.95C98.662 438.988 98.5107 439.025 98.32 439.062C98.1335 439.104 97.9035 439.124 97.6299 439.124C97.2154 439.124 96.8258 439.035 96.461 438.857C96.0962 438.679 95.8164 438.407 95.6216 438.042C95.4268 437.678 95.375 437.218 95.4662 436.662L97.033 427.162ZM101.354 432.633L101.503 431.663L104.861 429.077C105.209 428.812 105.499 428.575 105.731 428.368C105.968 428.161 106.15 427.964 106.279 427.777C106.411 427.591 106.494 427.394 106.527 427.187C106.589 426.814 106.498 426.517 106.254 426.298C106.009 426.078 105.669 425.968 105.234 425.968C104.811 425.968 104.434 426.084 104.102 426.316C103.775 426.548 103.58 426.863 103.518 427.261H102.2C102.312 426.577 102.658 426.014 103.238 425.57C103.818 425.122 104.525 424.899 105.358 424.899C105.922 424.899 106.392 425.002 106.77 425.209C107.151 425.413 107.425 425.69 107.59 426.043C107.76 426.391 107.812 426.78 107.746 427.212C107.696 427.527 107.588 427.823 107.423 428.101C107.257 428.378 107.008 428.673 106.676 428.984C106.345 429.294 105.905 429.657 105.358 430.072L103.468 431.489V431.539H107.273L107.099 432.633H101.354Z" fill="black"/>
<line x1="82" y1="421.5" x2="110" y2="421.5" stroke="black"/>
<path d="M86.1409 469.199C85.3409 469.199 84.6694 468.998 84.1264 468.596C83.5834 468.19 83.2 467.618 82.9762 466.88C82.7565 466.138 82.7295 465.261 82.8953 464.25C83.0653 463.247 83.3824 462.376 83.8466 461.638C84.315 460.901 84.8891 460.331 85.5689 459.929C86.2487 459.527 86.9906 459.325 87.7948 459.325C88.4165 459.325 88.8911 459.429 89.2186 459.636C89.5502 459.839 89.7906 460.072 89.9398 460.333C90.089 460.59 90.203 460.801 90.2818 460.967H90.4061L91.1895 456.266H92.6569L90.5429 469H89.1253L89.374 467.533H89.1999C89.0631 467.707 88.8725 467.926 88.6279 468.192C88.3834 468.453 88.06 468.687 87.658 468.894C87.26 469.097 86.7544 469.199 86.1409 469.199ZM86.5015 467.881C87.0901 467.881 87.6165 467.727 88.0808 467.421C88.5492 467.11 88.9388 466.681 89.2497 466.134C89.5605 465.582 89.7761 464.946 89.8963 464.225C90.0165 463.512 90.0123 462.888 89.8839 462.353C89.7554 461.815 89.5087 461.396 89.144 461.097C88.7792 460.795 88.2963 460.644 87.6953 460.644C87.0777 460.644 86.5409 460.803 86.0849 461.122C85.629 461.437 85.258 461.866 84.972 462.409C84.686 462.948 84.487 463.553 84.3751 464.225C84.2632 464.905 84.2611 465.522 84.3689 466.078C84.4767 466.629 84.7046 467.068 85.0528 467.396C85.4051 467.719 85.888 467.881 86.5015 467.881ZM93.9937 462.633L94.1429 461.663L97.5004 459.077C97.8485 458.812 98.1387 458.575 98.3708 458.368C98.6071 458.161 98.7895 457.964 98.918 457.777C99.0506 457.591 99.1335 457.394 99.1667 457.187C99.2288 456.814 99.1376 456.517 98.8931 456.298C98.6485 456.078 98.3086 455.968 97.8734 455.968C97.4506 455.968 97.0734 456.084 96.7418 456.316C96.4144 456.548 96.2195 456.863 96.1574 457.261H94.8392C94.9512 456.577 95.2973 456.014 95.8776 455.57C96.4579 455.122 97.1646 454.899 97.9978 454.899C98.5615 454.899 99.0319 455.002 99.4091 455.209C99.7905 455.413 100.064 455.69 100.23 456.043C100.4 456.391 100.452 456.78 100.385 457.212C100.336 457.527 100.228 457.823 100.062 458.101C99.8962 458.378 99.6475 458.673 99.3159 458.984C98.9843 459.294 98.5449 459.657 97.9978 460.072L96.1076 461.489V461.539H99.9128L99.7387 462.633H93.9937ZM101.117 472.581C100.869 472.581 100.649 472.561 100.458 472.519C100.272 472.482 100.143 472.445 100.073 472.407L100.67 471.114C101.01 471.205 101.312 471.232 101.578 471.195C101.847 471.162 102.102 471.031 102.342 470.803C102.587 470.579 102.842 470.227 103.107 469.746L103.517 469L101.602 459.45H103.132L104.5 467.085H104.599L108.504 459.45H110.158L104.301 470.38C104.027 470.89 103.727 471.307 103.399 471.63C103.072 471.953 102.717 472.192 102.336 472.345C101.955 472.503 101.548 472.581 101.117 472.581Z" fill="black"/>
<path d="M87.1409 493.199C86.3409 493.199 85.6694 492.998 85.1264 492.596C84.5834 492.19 84.2 491.618 83.9762 490.88C83.7565 490.138 83.7295 489.261 83.8953 488.25C84.0653 487.247 84.3824 486.376 84.8466 485.638C85.315 484.901 85.8891 484.331 86.5689 483.929C87.2487 483.527 87.9906 483.325 88.7948 483.325C89.4165 483.325 89.8911 483.429 90.2186 483.636C90.5502 483.839 90.7906 484.072 90.9398 484.333C91.089 484.59 91.203 484.801 91.2818 484.967H91.4061L92.1895 480.266H93.6569L91.5429 493H90.1253L90.374 491.533H90.1999C90.0631 491.707 89.8725 491.926 89.6279 492.192C89.3834 492.453 89.06 492.687 88.658 492.894C88.26 493.097 87.7544 493.199 87.1409 493.199ZM87.5015 491.881C88.0901 491.881 88.6165 491.727 89.0808 491.421C89.5492 491.11 89.9388 490.681 90.2497 490.134C90.5605 489.582 90.7761 488.946 90.8963 488.225C91.0165 487.512 91.0123 486.888 90.8839 486.353C90.7554 485.815 90.5087 485.396 90.144 485.097C89.7792 484.795 89.2963 484.644 88.6953 484.644C88.0777 484.644 87.5409 484.803 87.0849 485.122C86.629 485.437 86.258 485.866 85.972 486.409C85.686 486.948 85.487 487.553 85.3751 488.225C85.2632 488.905 85.2611 489.522 85.3689 490.078C85.4767 490.629 85.7046 491.068 86.0528 491.396C86.4051 491.719 86.888 491.881 87.5015 491.881ZM100.167 483.45L99.9677 484.693H95.0185L95.2175 483.45H100.167ZM97.033 481.162H98.5004L96.9833 490.264C96.9169 490.679 96.9273 490.99 97.0144 491.197C97.1055 491.4 97.2423 491.537 97.4247 491.607C97.6112 491.674 97.8123 491.707 98.0278 491.707C98.1895 491.707 98.3221 491.698 98.4257 491.682C98.5294 491.661 98.6123 491.645 98.6744 491.632L98.7739 492.95C98.662 492.988 98.5107 493.025 98.32 493.062C98.1335 493.104 97.9035 493.124 97.6299 493.124C97.2154 493.124 96.8258 493.035 96.461 492.857C96.0962 492.679 95.8164 492.407 95.6216 492.042C95.4268 491.678 95.375 491.218 95.4662 490.662L97.033 481.162ZM101.354 486.633L101.503 485.663L104.861 483.077C105.209 482.812 105.499 482.575 105.731 482.368C105.968 482.161 106.15 481.964 106.279 481.777C106.411 481.591 106.494 481.394 106.527 481.187C106.589 480.814 106.498 480.517 106.254 480.298C106.009 480.078 105.669 479.968 105.234 479.968C104.811 479.968 104.434 480.084 104.102 480.316C103.775 480.548 103.58 480.863 103.518 481.261H102.2C102.312 480.577 102.658 480.014 103.238 479.57C103.818 479.122 104.525 478.899 105.358 478.899C105.922 478.899 106.392 479.002 106.77 479.209C107.151 479.413 107.425 479.69 107.59 480.043C107.76 480.391 107.812 480.78 107.746 481.212C107.696 481.527 107.588 481.823 107.423 482.101C107.257 482.378 107.008 482.673 106.676 482.984C106.345 483.294 105.905 483.657 105.358 484.072L103.468 485.489V485.539H107.273L107.099 486.633H101.354Z" fill="black"/>
<line x1="82" y1="475.5" x2="110" y2="475.5" stroke="black"/>
<path d="M89.1409 362.199C88.3409 362.199 87.6694 361.998 87.1264 361.596C86.5834 361.19 86.2 360.618 85.9762 359.88C85.7565 359.138 85.7295 358.261 85.8953 357.25C86.0653 356.247 86.3824 355.376 86.8466 354.638C87.315 353.901 87.8891 353.331 88.5689 352.929C89.2487 352.527 89.9906 352.325 90.7948 352.325C91.4165 352.325 91.8911 352.429 92.2186 352.636C92.5502 352.839 92.7906 353.072 92.9398 353.333C93.089 353.59 93.203 353.801 93.2818 353.967H93.4061L94.1895 349.266H95.6569L93.5429 362H92.1253L92.374 360.533H92.1999C92.0631 360.707 91.8725 360.926 91.6279 361.192C91.3834 361.453 91.06 361.687 90.658 361.894C90.26 362.097 89.7544 362.199 89.1409 362.199ZM89.5015 360.881C90.0901 360.881 90.6165 360.727 91.0808 360.421C91.5492 360.11 91.9388 359.681 92.2497 359.134C92.5605 358.582 92.7761 357.946 92.8963 357.225C93.0165 356.512 93.0123 355.888 92.8839 355.353C92.7554 354.815 92.5087 354.396 92.144 354.097C91.7792 353.795 91.2963 353.644 90.6953 353.644C90.0777 353.644 89.5409 353.803 89.0849 354.122C88.629 354.437 88.258 354.866 87.972 355.409C87.686 355.948 87.487 356.553 87.3751 357.225C87.2632 357.905 87.2611 358.522 87.3689 359.078C87.4767 359.629 87.7046 360.068 88.0528 360.396C88.4051 360.719 88.888 360.881 89.5015 360.881ZM96.7823 365.581C96.5336 365.581 96.3139 365.561 96.1232 365.519C95.9367 365.482 95.8082 365.445 95.7377 365.407L96.3346 364.114C96.6745 364.205 96.9771 364.232 97.2424 364.195C97.5118 364.162 97.7667 364.031 98.0071 363.803C98.2517 363.579 98.5066 363.227 98.7719 362.746L99.1822 362L97.2672 352.45H98.7967L100.165 360.085H100.264L104.169 352.45H105.823L99.9656 363.38C99.6921 363.89 99.3916 364.307 99.0641 364.63C98.7366 364.953 98.3822 365.192 98.0009 365.345C97.6196 365.503 97.2133 365.581 96.7823 365.581Z" fill="black"/>
<path d="M90.1409 386.199C89.3409 386.199 88.6694 385.998 88.1264 385.596C87.5834 385.19 87.2 384.618 86.9762 383.88C86.7565 383.138 86.7295 382.261 86.8953 381.25C87.0653 380.247 87.3824 379.376 87.8466 378.638C88.315 377.901 88.8891 377.331 89.5689 376.929C90.2487 376.527 90.9906 376.325 91.7948 376.325C92.4165 376.325 92.8911 376.429 93.2186 376.636C93.5502 376.839 93.7906 377.072 93.9398 377.333C94.089 377.59 94.203 377.801 94.2818 377.967H94.4061L95.1895 373.266H96.6569L94.5429 386H93.1253L93.374 384.533H93.1999C93.0631 384.707 92.8725 384.926 92.6279 385.192C92.3834 385.453 92.06 385.687 91.658 385.894C91.26 386.097 90.7544 386.199 90.1409 386.199ZM90.5015 384.881C91.0901 384.881 91.6165 384.727 92.0808 384.421C92.5492 384.11 92.9388 383.681 93.2497 383.134C93.5605 382.582 93.7761 381.946 93.8963 381.225C94.0165 380.512 94.0123 379.888 93.8839 379.353C93.7554 378.815 93.5087 378.396 93.144 378.097C92.7792 377.795 92.2963 377.644 91.6953 377.644C91.0777 377.644 90.5409 377.803 90.0849 378.122C89.629 378.437 89.258 378.866 88.972 379.409C88.686 379.948 88.487 380.553 88.3751 381.225C88.2632 381.905 88.2611 382.522 88.3689 383.078C88.4767 383.629 88.7046 384.068 89.0528 384.396C89.4051 384.719 89.888 384.881 90.5015 384.881ZM103.167 376.45L102.968 377.693H98.0185L98.2175 376.45H103.167ZM100.033 374.162H101.5L99.9833 383.264C99.9169 383.679 99.9273 383.99 100.014 384.197C100.106 384.4 100.242 384.537 100.425 384.607C100.611 384.674 100.812 384.707 101.028 384.707C101.189 384.707 101.322 384.698 101.426 384.682C101.529 384.661 101.612 384.645 101.674 384.632L101.774 385.95C101.662 385.988 101.511 386.025 101.32 386.062C101.134 386.104 100.903 386.124 100.63 386.124C100.215 386.124 99.8258 386.035 99.461 385.857C99.0962 385.679 98.8164 385.407 98.6216 385.042C98.4268 384.678 98.375 384.218 98.4662 383.662L100.033 374.162Z" fill="black"/>
<line x1="85" y1="368.5" x2="106" y2="368.5" stroke="black"/>
<defs>
<filter id="filter0_d_21_199" x="199.516" y="328.516" width="158.968" height="193.968" filterUnits="userSpaceOnUse" color-interpolation-filters="sRGB">
<feFlood flood-opacity="0" result="BackgroundImageFix"/>
<feColorMatrix in="SourceAlpha" type="matrix" values="0 0 0 0 0 0 0 0 0 0 0 0 0 0 0 0 0 0 127 0" result="hardAlpha"/>
<feMorphology radius="0.729526" operator="dilate" in="SourceAlpha" result="effect1_dropShadow_21_199"/>
<feOffset/>
<feGaussianBlur stdDeviation="4.37715"/>
<feComposite in2="hardAlpha" operator="out"/>
<feColorMatrix type="matrix" values="0 0 0 0 0.123069 0 0 0 0 0.746931 0 0 0 0 0.185455 0 0 0 0.4 0"/>
<feBlend mode="normal" in2="BackgroundImageFix" result="effect1_dropShadow_21_199"/>
<feBlend mode="normal" in="SourceGraphic" in2="effect1_dropShadow_21_199" result="shape"/>
</filter>
<filter id="filter1_d_21_199" x="119.516" y="38.5162" width="267.968" height="72.9677" filterUnits="userSpaceOnUse" color-interpolation-filters="sRGB">
<feFlood flood-opacity="0" result="BackgroundImageFix"/>
<feColorMatrix in="SourceAlpha" type="matrix" values="0 0 0 0 0 0 0 0 0 0 0 0 0 0 0 0 0 0 127 0" result="hardAlpha"/>
<feMorphology radius="0.729526" operator="dilate" in="SourceAlpha" result="effect1_dropShadow_21_199"/>
<feOffset/>
<feGaussianBlur stdDeviation="4.37715"/>
<feComposite in2="hardAlpha" operator="out"/>
<feColorMatrix type="matrix" values="0 0 0 0 0.92199 0 0 0 0 0.0413429 0 0 0 0 0.0413429 0 0 0 0.5 0"/>
<feBlend mode="normal" in2="BackgroundImageFix" result="effect1_dropShadow_21_199"/>
<feBlend mode="normal" in="SourceGraphic" in2="effect1_dropShadow_21_199" result="shape"/>
</filter>
<filter id="filter2_d_21_199" x="460.516" y="328.516" width="159.037" height="194.192" filterUnits="userSpaceOnUse" color-interpolation-filters="sRGB">
<feFlood flood-opacity="0" result="BackgroundImageFix"/>
<feColorMatrix in="SourceAlpha" type="matrix" values="0 0 0 0 0 0 0 0 0 0 0 0 0 0 0 0 0 0 127 0" result="hardAlpha"/>
<feMorphology radius="0.729526" operator="dilate" in="SourceAlpha" result="effect1_dropShadow_21_199"/>
<feOffset/>
<feGaussianBlur stdDeviation="4.37715"/>
<feComposite in2="hardAlpha" operator="out"/>
<feColorMatrix type="matrix" values="0 0 0 0 0.123069 0 0 0 0 0.746931 0 0 0 0 0.185455 0 0 0 0.4 0"/>
<feBlend mode="normal" in2="BackgroundImageFix" result="effect1_dropShadow_21_199"/>
<feBlend mode="normal" in="SourceGraphic" in2="effect1_dropShadow_21_199" result="shape"/>
</filter>
<filter id="filter3_d_21_199" x="385.608" y="221.5" width="46.5582" height="46.5581" filterUnits="userSpaceOnUse" color-interpolation-filters="sRGB">
<feFlood flood-opacity="0" result="BackgroundImageFix"/>
<feColorMatrix in="SourceAlpha" type="matrix" values="0 0 0 0 0 0 0 0 0 0 0 0 0 0 0 0 0 0 127 0" result="hardAlpha"/>
<feMorphology radius="0.5" operator="dilate" in="SourceAlpha" result="effect1_dropShadow_21_199"/>
<feOffset/>
<feGaussianBlur stdDeviation="3"/>
<feComposite in2="hardAlpha" operator="out"/>
<feColorMatrix type="matrix" values="0 0 0 0 0.16096 0 0 0 0 0.145792 0 0 0 0 0.904208 0 0 0 0.4 0"/>
<feBlend mode="normal" in2="BackgroundImageFix" result="effect1_dropShadow_21_199"/>
<feBlend mode="normal" in="SourceGraphic" in2="effect1_dropShadow_21_199" result="shape"/>
</filter>
<filter id="filter4_d_21_199" x="434.42" y="235.3" width="112.186" height="99.0768" filterUnits="userSpaceOnUse" color-interpolation-filters="sRGB">
<feFlood flood-opacity="0" result="BackgroundImageFix"/>
<feColorMatrix in="SourceAlpha" type="matrix" values="0 0 0 0 0 0 0 0 0 0 0 0 0 0 0 0 0 0 127 0" result="hardAlpha"/>
<feOffset/>
<feGaussianBlur stdDeviation="2.18858"/>
<feComposite in2="hardAlpha" operator="out"/>
<feColorMatrix type="matrix" values="0 0 0 0 0.103912 0 0 0 0 0.0998958 0 0 0 0 0.150104 0 0 0 0.36 0"/>
<feBlend mode="normal" in2="BackgroundImageFix" result="effect1_dropShadow_21_199"/>
<feBlend mode="normal" in="SourceGraphic" in2="effect1_dropShadow_21_199" result="shape"/>
</filter>
<filter id="filter5_d_21_199" x="272.893" y="235.251" width="112.186" height="99.0768" filterUnits="userSpaceOnUse" color-interpolation-filters="sRGB">
<feFlood flood-opacity="0" result="BackgroundImageFix"/>
<feColorMatrix in="SourceAlpha" type="matrix" values="0 0 0 0 0 0 0 0 0 0 0 0 0 0 0 0 0 0 127 0" result="hardAlpha"/>
<feOffset/>
<feGaussianBlur stdDeviation="2.18858"/>
<feComposite in2="hardAlpha" operator="out"/>
<feColorMatrix type="matrix" values="0 0 0 0 0.103912 0 0 0 0 0.0998958 0 0 0 0 0.150104 0 0 0 0.36 0"/>
<feBlend mode="normal" in2="BackgroundImageFix" result="effect1_dropShadow_21_199"/>
<feBlend mode="normal" in="SourceGraphic" in2="effect1_dropShadow_21_199" result="shape"/>
</filter>
<filter id="filter6_d_21_199" x="242.251" y="105.893" width="19.4987" height="49.4838" filterUnits="userSpaceOnUse" color-interpolation-filters="sRGB">
<feFlood flood-opacity="0" result="BackgroundImageFix"/>
<feColorMatrix in="SourceAlpha" type="matrix" values="0 0 0 0 0 0 0 0 0 0 0 0 0 0 0 0 0 0 127 0" result="hardAlpha"/>
<feOffset/>
<feGaussianBlur stdDeviation="2.18858"/>
<feComposite in2="hardAlpha" operator="out"/>
<feColorMatrix type="matrix" values="0 0 0 0 0.103912 0 0 0 0 0.0998958 0 0 0 0 0.150104 0 0 0 0.36 0"/>
<feBlend mode="normal" in2="BackgroundImageFix" result="effect1_dropShadow_21_199"/>
<feBlend mode="normal" in="SourceGraphic" in2="effect1_dropShadow_21_199" result="shape"/>
</filter>
<filter id="filter7_d_21_199" x="90.8934" y="168.251" width="109.213" height="56.4391" filterUnits="userSpaceOnUse" color-interpolation-filters="sRGB">
<feFlood flood-opacity="0" result="BackgroundImageFix"/>
<feColorMatrix in="SourceAlpha" type="matrix" values="0 0 0 0 0 0 0 0 0 0 0 0 0 0 0 0 0 0 127 0" result="hardAlpha"/>
<feOffset/>
<feGaussianBlur stdDeviation="2.18858"/>
<feComposite in2="hardAlpha" operator="out"/>
<feColorMatrix type="matrix" values="0 0 0 0 0.103912 0 0 0 0 0.0998958 0 0 0 0 0.150104 0 0 0 0.36 0"/>
<feBlend mode="normal" in2="BackgroundImageFix" result="effect1_dropShadow_21_199"/>
<feBlend mode="normal" in="SourceGraphic" in2="effect1_dropShadow_21_199" result="shape"/>
</filter>
<filter id="filter8_d_21_199" x="304.893" y="168.251" width="109.213" height="56.4391" filterUnits="userSpaceOnUse" color-interpolation-filters="sRGB">
<feFlood flood-opacity="0" result="BackgroundImageFix"/>
<feColorMatrix in="SourceAlpha" type="matrix" values="0 0 0 0 0 0 0 0 0 0 0 0 0 0 0 0 0 0 127 0" result="hardAlpha"/>
<feOffset/>
<feGaussianBlur stdDeviation="2.18858"/>
<feComposite in2="hardAlpha" operator="out"/>
<feColorMatrix type="matrix" values="0 0 0 0 0.103912 0 0 0 0 0.0998958 0 0 0 0 0.150104 0 0 0 0.36 0"/>
<feBlend mode="normal" in2="BackgroundImageFix" result="effect1_dropShadow_21_199"/>
<feBlend mode="normal" in="SourceGraphic" in2="effect1_dropShadow_21_199" result="shape"/>
</filter>
<filter id="filter9_d_21_199" x="199.5" y="150.5" width="106.379" height="55.3125" filterUnits="userSpaceOnUse" color-interpolation-filters="sRGB">
<feFlood flood-opacity="0" result="BackgroundImageFix"/>
<feColorMatrix in="SourceAlpha" type="matrix" values="0 0 0 0 0 0 0 0 0 0 0 0 0 0 0 0 0 0 127 0" result="hardAlpha"/>
<feMorphology radius="0.5" operator="dilate" in="SourceAlpha" result="effect1_dropShadow_21_199"/>
<feOffset/>
<feGaussianBlur stdDeviation="3"/>
<feComposite in2="hardAlpha" operator="out"/>
<feColorMatrix type="matrix" values="0 0 0 0 0.16096 0 0 0 0 0.145792 0 0 0 0 0.904208 0 0 0 0.4 0"/>
<feBlend mode="normal" in2="BackgroundImageFix" result="effect1_dropShadow_21_199"/>
<feBlend mode="normal" in="SourceGraphic" in2="effect1_dropShadow_21_199" result="shape"/>
</filter>
<filter id="filter10_d_21_199" x="56.5162" y="217.516" width="78.9677" height="304.968" filterUnits="userSpaceOnUse" color-interpolation-filters="sRGB">
<feFlood flood-opacity="0" result="BackgroundImageFix"/>
<feColorMatrix in="SourceAlpha" type="matrix" values="0 0 0 0 0 0 0 0 0 0 0 0 0 0 0 0 0 0 127 0" result="hardAlpha"/>
<feMorphology radius="0.729526" operator="dilate" in="SourceAlpha" result="effect1_dropShadow_21_199"/>
<feOffset/>
<feGaussianBlur stdDeviation="4.37715"/>
<feComposite in2="hardAlpha" operator="out"/>
<feColorMatrix type="matrix" values="0 0 0 0 0.123069 0 0 0 0 0.746931 0 0 0 0 0.185455 0 0 0 0.4 0"/>
<feBlend mode="normal" in2="BackgroundImageFix" result="effect1_dropShadow_21_199"/>
<feBlend mode="normal" in="SourceGraphic" in2="effect1_dropShadow_21_199" result="shape"/>
</filter>
</defs>
</svg>
