<svg width="391" height="346" viewBox="0 0 391 346" fill="none" xmlns="http://www.w3.org/2000/svg">
<rect x="51.5" y="192.5" width="95" height="125" rx="3.5" fill="white" stroke="black"/>
<path d="M67.0568 222V213.273H72.3239V214.21H68.1136V217.159H72.0511V218.097H68.1136V221.062H72.392V222H67.0568ZM74.0923 222V215.455H75.0639V216.477H75.1491C75.2855 216.128 75.5057 215.857 75.8097 215.663C76.1136 215.467 76.4787 215.369 76.9048 215.369C77.3366 215.369 77.696 215.467 77.983 215.663C78.2727 215.857 78.4986 216.128 78.6605 216.477H78.7287C78.8963 216.139 79.1477 215.871 79.483 215.672C79.8182 215.47 80.2202 215.369 80.6889 215.369C81.2741 215.369 81.7528 215.553 82.125 215.919C82.4972 216.283 82.6832 216.849 82.6832 217.619V222H81.6776V217.619C81.6776 217.136 81.5455 216.791 81.2812 216.584C81.017 216.376 80.706 216.273 80.348 216.273C79.8878 216.273 79.5313 216.412 79.2784 216.69C79.0256 216.966 78.8991 217.315 78.8991 217.739V222H77.8764V217.517C77.8764 217.145 77.7557 216.845 77.5142 216.618C77.2727 216.388 76.9616 216.273 76.581 216.273C76.3196 216.273 76.0753 216.342 75.848 216.482C75.6236 216.621 75.4418 216.814 75.3026 217.061C75.1662 217.305 75.098 217.588 75.098 217.909V222H74.0923ZM84.6584 222V213.273H85.6641V216.494H85.7493C85.8232 216.381 85.9254 216.236 86.0561 216.06C86.1896 215.881 86.38 215.722 86.6271 215.582C86.8771 215.44 87.2152 215.369 87.6413 215.369C88.1925 215.369 88.6783 215.507 89.0987 215.783C89.5192 216.058 89.8473 216.449 90.0831 216.955C90.3189 217.46 90.4368 218.057 90.4368 218.744C90.4368 219.438 90.3189 220.038 90.0831 220.547C89.8473 221.053 89.5206 221.445 89.103 221.723C88.6854 221.999 88.2038 222.136 87.6584 222.136C87.2379 222.136 86.9013 222.067 86.6484 221.928C86.3956 221.786 86.201 221.625 86.0646 221.446C85.9283 221.264 85.8232 221.114 85.7493 220.994H85.63V222H84.6584ZM85.647 218.727C85.647 219.222 85.7195 219.658 85.8643 220.036C86.0092 220.411 86.2209 220.705 86.4993 220.918C86.7777 221.128 87.1186 221.233 87.522 221.233C87.9425 221.233 88.2933 221.122 88.5746 220.901C88.8587 220.676 89.0717 220.375 89.2138 219.997C89.3587 219.616 89.4311 219.193 89.4311 218.727C89.4311 218.267 89.3601 217.852 89.218 217.483C89.0788 217.111 88.8672 216.817 88.5831 216.601C88.3018 216.382 87.9482 216.273 87.522 216.273C87.1129 216.273 86.7692 216.376 86.4908 216.584C86.2124 216.788 86.0021 217.075 85.8601 217.445C85.718 217.811 85.647 218.239 85.647 218.727ZM94.7195 222.136C94.0888 222.136 93.5447 221.997 93.0874 221.719C92.6328 221.438 92.282 221.045 92.0348 220.543C91.7905 220.037 91.6683 219.449 91.6683 218.778C91.6683 218.108 91.7905 217.517 92.0348 217.006C92.282 216.491 92.6257 216.091 93.0661 215.804C93.5092 215.514 94.0263 215.369 94.6172 215.369C94.9581 215.369 95.2947 215.426 95.6271 215.54C95.9595 215.653 96.2621 215.838 96.5348 216.094C96.8075 216.347 97.0249 216.682 97.1868 217.099C97.3487 217.517 97.4297 218.031 97.4297 218.642V219.068H92.3842V218.199H96.407C96.407 217.83 96.3331 217.5 96.1854 217.21C96.0405 216.92 95.8331 216.692 95.5632 216.524C95.2962 216.357 94.9808 216.273 94.6172 216.273C94.2166 216.273 93.87 216.372 93.5774 216.571C93.2876 216.767 93.0646 217.023 92.9084 217.338C92.7521 217.653 92.674 217.991 92.674 218.352V218.932C92.674 219.426 92.7592 219.845 92.9297 220.189C93.103 220.53 93.343 220.79 93.6499 220.969C93.9567 221.145 94.3132 221.233 94.7195 221.233C94.9837 221.233 95.2223 221.196 95.4354 221.122C95.6513 221.045 95.8374 220.932 95.9936 220.781C96.1499 220.628 96.2706 220.437 96.3558 220.21L97.3274 220.483C97.2251 220.812 97.0533 221.102 96.8118 221.352C96.5703 221.599 96.272 221.793 95.9169 221.932C95.5618 222.068 95.1626 222.136 94.7195 222.136ZM101.431 222.136C100.886 222.136 100.404 221.999 99.9865 221.723C99.5689 221.445 99.2422 221.053 99.0064 220.547C98.7706 220.038 98.6527 219.438 98.6527 218.744C98.6527 218.057 98.7706 217.46 99.0064 216.955C99.2422 216.449 99.5703 216.058 99.9908 215.783C100.411 215.507 100.897 215.369 101.448 215.369C101.874 215.369 102.211 215.44 102.458 215.582C102.708 215.722 102.898 215.881 103.029 216.06C103.163 216.236 103.266 216.381 103.34 216.494H103.425V213.273H104.431V222H103.46V220.994H103.34C103.266 221.114 103.161 221.264 103.025 221.446C102.888 221.625 102.694 221.786 102.441 221.928C102.188 222.067 101.852 222.136 101.431 222.136ZM101.567 221.233C101.971 221.233 102.312 221.128 102.59 220.918C102.869 220.705 103.08 220.411 103.225 220.036C103.37 219.658 103.442 219.222 103.442 218.727C103.442 218.239 103.371 217.811 103.229 217.445C103.087 217.075 102.877 216.788 102.599 216.584C102.32 216.376 101.977 216.273 101.567 216.273C101.141 216.273 100.786 216.382 100.502 216.601C100.221 216.817 100.009 217.111 99.8672 217.483C99.728 217.852 99.6584 218.267 99.6584 218.727C99.6584 219.193 99.7294 219.616 99.8714 219.997C100.016 220.375 100.229 220.676 100.511 220.901C100.795 221.122 101.147 221.233 101.567 221.233ZM108.884 222.136C108.339 222.136 107.857 221.999 107.44 221.723C107.022 221.445 106.695 221.053 106.46 220.547C106.224 220.038 106.106 219.438 106.106 218.744C106.106 218.057 106.224 217.46 106.46 216.955C106.695 216.449 107.023 216.058 107.444 215.783C107.864 215.507 108.35 215.369 108.901 215.369C109.327 215.369 109.664 215.44 109.911 215.582C110.161 215.722 110.352 215.881 110.482 216.06C110.616 216.236 110.719 216.381 110.793 216.494H110.879V213.273H111.884V222H110.913V220.994H110.793C110.719 221.114 110.614 221.264 110.478 221.446C110.342 221.625 110.147 221.786 109.894 221.928C109.641 222.067 109.305 222.136 108.884 222.136ZM109.021 221.233C109.424 221.233 109.765 221.128 110.043 220.918C110.322 220.705 110.533 220.411 110.678 220.036C110.823 219.658 110.896 219.222 110.896 218.727C110.896 218.239 110.825 217.811 110.683 217.445C110.54 217.075 110.33 216.788 110.052 216.584C109.773 216.376 109.43 216.273 109.021 216.273C108.594 216.273 108.239 216.382 107.955 216.601C107.674 216.817 107.462 217.111 107.32 217.483C107.181 217.852 107.112 218.267 107.112 218.727C107.112 219.193 107.183 219.616 107.325 219.997C107.469 220.375 107.683 220.676 107.964 220.901C108.248 221.122 108.6 221.233 109.021 221.233ZM113.866 222V215.455H114.871V222H113.866ZM114.377 214.364C114.181 214.364 114.012 214.297 113.87 214.163C113.731 214.03 113.661 213.869 113.661 213.682C113.661 213.494 113.731 213.334 113.87 213.2C114.012 213.067 114.181 213 114.377 213C114.573 213 114.741 213.067 114.88 213.2C115.022 213.334 115.093 213.494 115.093 213.682C115.093 213.869 115.022 214.03 114.88 214.163C114.741 214.297 114.573 214.364 114.377 214.364ZM117.719 218.062V222H116.713V215.455H117.685V216.477H117.77C117.924 216.145 118.157 215.878 118.469 215.676C118.782 215.472 119.185 215.369 119.679 215.369C120.123 215.369 120.51 215.46 120.843 215.642C121.175 215.821 121.434 216.094 121.618 216.46C121.803 216.824 121.895 217.284 121.895 217.841V222H120.89V217.909C120.89 217.395 120.756 216.994 120.489 216.707C120.222 216.418 119.855 216.273 119.39 216.273C119.069 216.273 118.782 216.342 118.529 216.482C118.279 216.621 118.081 216.824 117.936 217.091C117.792 217.358 117.719 217.682 117.719 218.062ZM126.375 224.591C125.889 224.591 125.472 224.528 125.122 224.403C124.773 224.281 124.482 224.119 124.249 223.918C124.018 223.719 123.835 223.506 123.699 223.278L124.5 222.716C124.591 222.835 124.706 222.972 124.845 223.125C124.984 223.281 125.175 223.416 125.416 223.53C125.661 223.646 125.98 223.705 126.375 223.705C126.903 223.705 127.339 223.577 127.683 223.321C128.027 223.065 128.199 222.665 128.199 222.119V220.79H128.114C128.04 220.909 127.935 221.057 127.798 221.233C127.665 221.406 127.472 221.561 127.219 221.697C126.969 221.831 126.631 221.898 126.205 221.898C125.676 221.898 125.202 221.773 124.781 221.523C124.364 221.273 124.033 220.909 123.788 220.432C123.547 219.955 123.426 219.375 123.426 218.693C123.426 218.023 123.544 217.439 123.78 216.942C124.016 216.442 124.344 216.055 124.764 215.783C125.185 215.507 125.67 215.369 126.222 215.369C126.648 215.369 126.986 215.44 127.236 215.582C127.489 215.722 127.682 215.881 127.815 216.06C127.952 216.236 128.057 216.381 128.131 216.494H128.233V215.455H129.205V222.188C129.205 222.75 129.077 223.207 128.821 223.56C128.568 223.915 128.227 224.175 127.798 224.339C127.372 224.507 126.898 224.591 126.375 224.591ZM126.341 220.994C126.744 220.994 127.085 220.902 127.364 220.717C127.642 220.533 127.854 220.267 127.999 219.92C128.143 219.574 128.216 219.159 128.216 218.676C128.216 218.205 128.145 217.788 128.003 217.428C127.861 217.067 127.651 216.784 127.372 216.58C127.094 216.375 126.75 216.273 126.341 216.273C125.915 216.273 125.56 216.381 125.276 216.597C124.994 216.812 124.783 217.102 124.641 217.466C124.501 217.83 124.432 218.233 124.432 218.676C124.432 219.131 124.503 219.533 124.645 219.882C124.79 220.229 125.003 220.501 125.284 220.7C125.568 220.896 125.92 220.994 126.341 220.994ZM69.5795 237.136C68.9886 237.136 68.4702 236.996 68.0241 236.714C67.581 236.433 67.2344 236.04 66.9844 235.534C66.7372 235.028 66.6136 234.437 66.6136 233.761C66.6136 233.08 66.7372 232.484 66.9844 231.976C67.2344 231.467 67.581 231.072 68.0241 230.791C68.4702 230.51 68.9886 230.369 69.5795 230.369C70.1705 230.369 70.6875 230.51 71.1307 230.791C71.5767 231.072 71.9233 231.467 72.1705 231.976C72.4205 232.484 72.5455 233.08 72.5455 233.761C72.5455 234.437 72.4205 235.028 72.1705 235.534C71.9233 236.04 71.5767 236.433 71.1307 236.714C70.6875 236.996 70.1705 237.136 69.5795 237.136ZM69.5795 236.233C70.0284 236.233 70.3977 236.118 70.6875 235.888C70.9773 235.658 71.1918 235.355 71.331 234.98C71.4702 234.605 71.5398 234.199 71.5398 233.761C71.5398 233.324 71.4702 232.916 71.331 232.538C71.1918 232.161 70.9773 231.855 70.6875 231.622C70.3977 231.389 70.0284 231.273 69.5795 231.273C69.1307 231.273 68.7614 231.389 68.4716 231.622C68.1818 231.855 67.9673 232.161 67.8281 232.538C67.6889 232.916 67.6193 233.324 67.6193 233.761C67.6193 234.199 67.6889 234.605 67.8281 234.98C67.9673 235.355 68.1818 235.658 68.4716 235.888C68.7614 236.118 69.1307 236.233 69.5795 236.233ZM76.9954 230.455V231.307H73.467V230.455H76.9954ZM74.5238 237V229.551C74.5238 229.176 74.6119 228.864 74.788 228.614C74.9641 228.364 75.1928 228.176 75.4741 228.051C75.7553 227.926 76.0522 227.864 76.3647 227.864C76.6119 227.864 76.8136 227.884 76.9698 227.923C77.1261 227.963 77.2425 228 77.3192 228.034L77.0295 228.903C76.9783 228.886 76.9073 228.865 76.8164 228.839C76.7283 228.814 76.6119 228.801 76.467 228.801C76.1346 228.801 75.8945 228.885 75.7468 229.053C75.6019 229.22 75.5295 229.466 75.5295 229.79V237H74.5238ZM69.767 245.455V246.307H66.375V245.455H69.767ZM67.3636 243.886H68.3693V250.125C68.3693 250.409 68.4105 250.622 68.4929 250.764C68.5781 250.903 68.6861 250.997 68.8168 251.045C68.9503 251.091 69.0909 251.114 69.2386 251.114C69.3494 251.114 69.4403 251.108 69.5114 251.097C69.5824 251.082 69.6392 251.071 69.6818 251.062L69.8864 251.966C69.8182 251.991 69.723 252.017 69.6009 252.043C69.4787 252.071 69.3239 252.085 69.1364 252.085C68.8523 252.085 68.5739 252.024 68.3011 251.902C68.0313 251.78 67.8068 251.594 67.6278 251.344C67.4517 251.094 67.3636 250.778 67.3636 250.398V243.886ZM72.4261 248.062V252H71.4205V243.273H72.4261V246.477H72.5114C72.6648 246.139 72.8949 245.871 73.2017 245.672C73.5114 245.47 73.9233 245.369 74.4375 245.369C74.8835 245.369 75.2741 245.459 75.6094 245.638C75.9446 245.814 76.2045 246.085 76.3892 246.452C76.5767 246.815 76.6705 247.278 76.6705 247.841V252H75.6648V247.909C75.6648 247.389 75.5298 246.987 75.2599 246.703C74.9929 246.416 74.6222 246.273 74.1477 246.273C73.8182 246.273 73.5227 246.342 73.2614 246.482C73.0028 246.621 72.7983 246.824 72.6477 247.091C72.5 247.358 72.4261 247.682 72.4261 248.062ZM81.2546 252.136C80.6239 252.136 80.0799 251.997 79.6225 251.719C79.168 251.438 78.8171 251.045 78.57 250.543C78.3256 250.037 78.2035 249.449 78.2035 248.778C78.2035 248.108 78.3256 247.517 78.57 247.006C78.8171 246.491 79.1609 246.091 79.6012 245.804C80.0444 245.514 80.5614 245.369 81.1523 245.369C81.4933 245.369 81.8299 245.426 82.1623 245.54C82.4947 245.653 82.7972 245.838 83.07 246.094C83.3427 246.347 83.56 246.682 83.7219 247.099C83.8839 247.517 83.9648 248.031 83.9648 248.642V249.068H78.9194V248.199H82.9421C82.9421 247.83 82.8683 247.5 82.7205 247.21C82.5756 246.92 82.3683 246.692 82.0984 246.524C81.8313 246.357 81.516 246.273 81.1523 246.273C80.7518 246.273 80.4052 246.372 80.1126 246.571C79.8228 246.767 79.5998 247.023 79.4435 247.338C79.2873 247.653 79.2092 247.991 79.2092 248.352V248.932C79.2092 249.426 79.2944 249.845 79.4648 250.189C79.6381 250.53 79.8782 250.79 80.185 250.969C80.4918 251.145 80.8484 251.233 81.2546 251.233C81.5188 251.233 81.7575 251.196 81.9705 251.122C82.1864 251.045 82.3725 250.932 82.5288 250.781C82.685 250.628 82.8058 250.437 82.891 250.21L83.8626 250.483C83.7603 250.812 83.5884 251.102 83.3469 251.352C83.1055 251.599 82.8072 251.793 82.4521 251.932C82.0969 252.068 81.6978 252.136 81.2546 252.136ZM67.9261 263.062V267H66.9205V260.455H67.892V261.477H67.9773C68.1307 261.145 68.3636 260.878 68.6761 260.676C68.9886 260.472 69.392 260.369 69.8864 260.369C70.3295 260.369 70.7173 260.46 71.0497 260.642C71.3821 260.821 71.6406 261.094 71.8253 261.46C72.0099 261.824 72.1023 262.284 72.1023 262.841V267H71.0966V262.909C71.0966 262.395 70.9631 261.994 70.696 261.707C70.429 261.418 70.0625 261.273 69.5966 261.273C69.2756 261.273 68.9886 261.342 68.7358 261.482C68.4858 261.621 68.2884 261.824 68.1435 262.091C67.9986 262.358 67.9261 262.682 67.9261 263.062ZM76.6843 267.136C76.0536 267.136 75.5096 266.997 75.0522 266.719C74.5977 266.438 74.2468 266.045 73.9996 265.543C73.7553 265.037 73.6332 264.449 73.6332 263.778C73.6332 263.108 73.7553 262.517 73.9996 262.006C74.2468 261.491 74.5906 261.091 75.0309 260.804C75.4741 260.514 75.9911 260.369 76.582 260.369C76.9229 260.369 77.2596 260.426 77.592 260.54C77.9244 260.653 78.2269 260.838 78.4996 261.094C78.7724 261.347 78.9897 261.682 79.1516 262.099C79.3136 262.517 79.3945 263.031 79.3945 263.642V264.068H74.3491V263.199H78.3718C78.3718 262.83 78.2979 262.5 78.1502 262.21C78.0053 261.92 77.7979 261.692 77.5281 261.524C77.261 261.357 76.9457 261.273 76.582 261.273C76.1815 261.273 75.8349 261.372 75.5423 261.571C75.2525 261.767 75.0295 262.023 74.8732 262.338C74.717 262.653 74.6388 262.991 74.6388 263.352V263.932C74.6388 264.426 74.7241 264.845 74.8945 265.189C75.0678 265.53 75.3079 265.79 75.6147 265.969C75.9215 266.145 76.2781 266.233 76.6843 266.233C76.9485 266.233 77.1871 266.196 77.4002 266.122C77.6161 266.045 77.8022 265.932 77.9585 265.781C78.1147 265.628 78.2354 265.437 78.3207 265.21L79.2923 265.483C79.19 265.812 79.0181 266.102 78.7766 266.352C78.5352 266.599 78.2369 266.793 77.8817 266.932C77.5266 267.068 77.1275 267.136 76.6843 267.136ZM82.8505 267.153C82.4357 267.153 82.0593 267.075 81.7212 266.919C81.3832 266.76 81.1147 266.531 80.9158 266.233C80.717 265.932 80.6175 265.568 80.6175 265.142C80.6175 264.767 80.6914 264.463 80.8391 264.23C80.9869 263.994 81.1843 263.81 81.4315 263.676C81.6786 263.543 81.9513 263.443 82.2496 263.378C82.5508 263.31 82.8533 263.256 83.1573 263.216C83.555 263.165 83.8775 263.126 84.1246 263.101C84.3746 263.072 84.5565 263.026 84.6701 262.96C84.7866 262.895 84.8448 262.781 84.8448 262.619V262.585C84.8448 262.165 84.7298 261.838 84.4996 261.605C84.2724 261.372 83.9272 261.256 83.4641 261.256C82.984 261.256 82.6076 261.361 82.3349 261.571C82.0621 261.781 81.8704 262.006 81.7596 262.244L80.805 261.903C80.9755 261.506 81.2028 261.196 81.4869 260.974C81.7738 260.75 82.0863 260.594 82.4244 260.506C82.7653 260.415 83.1005 260.369 83.43 260.369C83.6403 260.369 83.8817 260.395 84.1545 260.446C84.43 260.494 84.6957 260.595 84.9513 260.749C85.2099 260.902 85.4244 261.134 85.5948 261.443C85.7653 261.753 85.8505 262.168 85.8505 262.688V267H84.8448V266.114H84.7937C84.7255 266.256 84.6119 266.408 84.4528 266.57C84.2937 266.732 84.082 266.869 83.8178 266.983C83.5536 267.097 83.2312 267.153 82.8505 267.153ZM83.0039 266.25C83.4016 266.25 83.7369 266.172 84.0096 266.016C84.2852 265.859 84.4925 265.658 84.6317 265.411C84.7738 265.163 84.8448 264.903 84.8448 264.631V263.71C84.8022 263.761 84.7085 263.808 84.5636 263.851C84.4215 263.891 84.2567 263.926 84.0692 263.957C83.8846 263.986 83.7042 264.011 83.5281 264.034C83.3548 264.054 83.2141 264.071 83.1062 264.085C82.8448 264.119 82.6005 264.175 82.3732 264.251C82.1488 264.325 81.967 264.437 81.8278 264.588C81.6914 264.736 81.6232 264.937 81.6232 265.193C81.6232 265.543 81.7525 265.807 82.011 265.986C82.2724 266.162 82.6033 266.25 83.0039 266.25ZM87.6861 267V260.455H88.6577V261.443H88.7259C88.8452 261.119 89.0611 260.857 89.3736 260.655C89.6861 260.453 90.0384 260.352 90.4304 260.352C90.5043 260.352 90.5966 260.354 90.7074 260.357C90.8182 260.359 90.902 260.364 90.9588 260.369V261.392C90.9247 261.384 90.8466 261.371 90.7244 261.354C90.6051 261.334 90.4787 261.324 90.3452 261.324C90.027 261.324 89.7429 261.391 89.4929 261.524C89.2457 261.655 89.0497 261.837 88.9048 262.07C88.7628 262.3 88.6918 262.562 88.6918 262.858V267H87.6861ZM94.696 267.136C94.0653 267.136 93.5213 266.997 93.0639 266.719C92.6094 266.438 92.2585 266.045 92.0114 265.543C91.767 265.037 91.6449 264.449 91.6449 263.778C91.6449 263.108 91.767 262.517 92.0114 262.006C92.2585 261.491 92.6023 261.091 93.0426 260.804C93.4858 260.514 94.0028 260.369 94.5938 260.369C94.9347 260.369 95.2713 260.426 95.6037 260.54C95.9361 260.653 96.2386 260.838 96.5114 261.094C96.7841 261.347 97.0014 261.682 97.1634 262.099C97.3253 262.517 97.4062 263.031 97.4062 263.642V264.068H92.3608V263.199H96.3835C96.3835 262.83 96.3097 262.5 96.1619 262.21C96.017 261.92 95.8097 261.692 95.5398 261.524C95.2727 261.357 94.9574 261.273 94.5938 261.273C94.1932 261.273 93.8466 261.372 93.554 261.571C93.2642 261.767 93.0412 262.023 92.8849 262.338C92.7287 262.653 92.6506 262.991 92.6506 263.352V263.932C92.6506 264.426 92.7358 264.845 92.9062 265.189C93.0795 265.53 93.3196 265.79 93.6264 265.969C93.9332 266.145 94.2898 266.233 94.696 266.233C94.9602 266.233 95.1989 266.196 95.4119 266.122C95.6278 266.045 95.8139 265.932 95.9702 265.781C96.1264 265.628 96.2472 265.437 96.3324 265.21L97.304 265.483C97.2017 265.812 97.0298 266.102 96.7884 266.352C96.5469 266.599 96.2486 266.793 95.8935 266.932C95.5384 267.068 95.1392 267.136 94.696 267.136ZM103.572 261.92L102.669 262.176C102.612 262.026 102.528 261.879 102.418 261.737C102.31 261.592 102.162 261.473 101.974 261.379C101.787 261.286 101.547 261.239 101.254 261.239C100.854 261.239 100.52 261.331 100.253 261.516C99.9886 261.697 99.8565 261.929 99.8565 262.21C99.8565 262.46 99.9474 262.658 100.129 262.803C100.311 262.947 100.595 263.068 100.982 263.165L101.953 263.403C102.538 263.545 102.974 263.763 103.261 264.055C103.548 264.345 103.692 264.719 103.692 265.176C103.692 265.551 103.584 265.886 103.368 266.182C103.155 266.477 102.857 266.71 102.473 266.881C102.089 267.051 101.643 267.136 101.135 267.136C100.467 267.136 99.9148 266.991 99.4773 266.702C99.0398 266.412 98.7628 265.989 98.6463 265.432L99.6009 265.193C99.6918 265.545 99.8636 265.81 100.116 265.986C100.372 266.162 100.706 266.25 101.118 266.25C101.587 266.25 101.959 266.151 102.234 265.952C102.513 265.75 102.652 265.509 102.652 265.227C102.652 265 102.572 264.81 102.413 264.656C102.254 264.5 102.01 264.384 101.68 264.307L100.589 264.051C99.9901 263.909 99.5497 263.689 99.2685 263.391C98.9901 263.089 98.8509 262.713 98.8509 262.261C98.8509 261.892 98.9545 261.565 99.1619 261.281C99.3722 260.997 99.6577 260.774 100.018 260.612C100.382 260.45 100.794 260.369 101.254 260.369C101.902 260.369 102.411 260.511 102.78 260.795C103.152 261.08 103.416 261.455 103.572 261.92ZM108.052 260.455V261.307H104.66V260.455H108.052ZM105.649 258.886H106.654V265.125C106.654 265.409 106.696 265.622 106.778 265.764C106.863 265.903 106.971 265.997 107.102 266.045C107.235 266.091 107.376 266.114 107.524 266.114C107.635 266.114 107.725 266.108 107.797 266.097C107.868 266.082 107.924 266.071 107.967 266.062L108.172 266.966C108.103 266.991 108.008 267.017 107.886 267.043C107.764 267.071 107.609 267.085 107.422 267.085C107.137 267.085 106.859 267.024 106.586 266.902C106.316 266.78 106.092 266.594 105.913 266.344C105.737 266.094 105.649 265.778 105.649 265.398V258.886ZM67.9261 273.273V282H66.9205V273.273H67.9261ZM72.5124 282.136C71.8817 282.136 71.3377 281.997 70.8803 281.719C70.4258 281.438 70.0749 281.045 69.8278 280.543C69.5835 280.037 69.4613 279.449 69.4613 278.778C69.4613 278.108 69.5835 277.517 69.8278 277.006C70.0749 276.491 70.4187 276.091 70.859 275.804C71.3022 275.514 71.8192 275.369 72.4102 275.369C72.7511 275.369 73.0877 275.426 73.4201 275.54C73.7525 275.653 74.055 275.838 74.3278 276.094C74.6005 276.347 74.8178 276.682 74.9798 277.099C75.1417 277.517 75.2227 278.031 75.2227 278.642V279.068H70.1772V278.199H74.1999C74.1999 277.83 74.1261 277.5 73.9783 277.21C73.8335 276.92 73.6261 276.692 73.3562 276.524C73.0891 276.357 72.7738 276.273 72.4102 276.273C72.0096 276.273 71.663 276.372 71.3704 276.571C71.0806 276.767 70.8576 277.023 70.7013 277.338C70.5451 277.653 70.467 277.991 70.467 278.352V278.932C70.467 279.426 70.5522 279.845 70.7227 280.189C70.896 280.53 71.136 280.79 71.4428 280.969C71.7496 281.145 72.1062 281.233 72.5124 281.233C72.7766 281.233 73.0153 281.196 73.2283 281.122C73.4442 281.045 73.6303 280.932 73.7866 280.781C73.9428 280.628 74.0636 280.437 74.1488 280.21L75.1204 280.483C75.0181 280.812 74.8462 281.102 74.6048 281.352C74.3633 281.599 74.065 281.793 73.7099 281.932C73.3548 282.068 72.9556 282.136 72.5124 282.136ZM79.5991 275.455V276.307H76.207V275.455H79.5991ZM77.1957 273.886H78.2013V280.125C78.2013 280.409 78.2425 280.622 78.3249 280.764C78.4102 280.903 78.5181 280.997 78.6488 281.045C78.7823 281.091 78.9229 281.114 79.0707 281.114C79.1815 281.114 79.2724 281.108 79.3434 281.097C79.4144 281.082 79.4712 281.071 79.5138 281.062L79.7184 281.966C79.6502 281.991 79.555 282.017 79.4329 282.043C79.3107 282.071 79.1559 282.085 78.9684 282.085C78.6843 282.085 78.4059 282.024 78.1332 281.902C77.8633 281.78 77.6388 281.594 77.4599 281.344C77.2837 281.094 77.1957 280.778 77.1957 280.398V273.886ZM83.9585 275.455V276.307H80.5664V275.455H83.9585ZM81.555 273.886H82.5607V280.125C82.5607 280.409 82.6019 280.622 82.6843 280.764C82.7695 280.903 82.8775 280.997 83.0082 281.045C83.1417 281.091 83.2823 281.114 83.43 281.114C83.5408 281.114 83.6317 281.108 83.7028 281.097C83.7738 281.082 83.8306 281.071 83.8732 281.062L84.0778 281.966C84.0096 281.991 83.9144 282.017 83.7923 282.043C83.6701 282.071 83.5153 282.085 83.3278 282.085C83.0437 282.085 82.7653 282.024 82.4925 281.902C82.2227 281.78 81.9982 281.594 81.8192 281.344C81.6431 281.094 81.555 280.778 81.555 280.398V273.886ZM88.1452 282.136C87.5146 282.136 86.9705 281.997 86.5131 281.719C86.0586 281.438 85.7077 281.045 85.4606 280.543C85.2163 280.037 85.0941 279.449 85.0941 278.778C85.0941 278.108 85.2163 277.517 85.4606 277.006C85.7077 276.491 86.0515 276.091 86.4918 275.804C86.935 275.514 87.4521 275.369 88.043 275.369C88.3839 275.369 88.7205 275.426 89.0529 275.54C89.3853 275.653 89.6879 275.838 89.9606 276.094C90.2333 276.347 90.4506 276.682 90.6126 277.099C90.7745 277.517 90.8555 278.031 90.8555 278.642V279.068H85.81V278.199H89.8327C89.8327 277.83 89.7589 277.5 89.6112 277.21C89.4663 276.92 89.2589 276.692 88.989 276.524C88.7219 276.357 88.4066 276.273 88.043 276.273C87.6424 276.273 87.2958 276.372 87.0032 276.571C86.7134 276.767 86.4904 277.023 86.3342 277.338C86.1779 277.653 86.0998 277.991 86.0998 278.352V278.932C86.0998 279.426 86.185 279.845 86.3555 280.189C86.5288 280.53 86.7688 280.79 87.0756 280.969C87.3825 281.145 87.739 281.233 88.1452 281.233C88.4094 281.233 88.6481 281.196 88.8612 281.122C89.0771 281.045 89.2631 280.932 89.4194 280.781C89.5756 280.628 89.6964 280.437 89.7816 280.21L90.7532 280.483C90.6509 280.812 90.479 281.102 90.2376 281.352C89.9961 281.599 89.6978 281.793 89.3427 281.932C88.9876 282.068 88.5884 282.136 88.1452 282.136ZM92.3853 282V275.455H93.3569V276.443H93.4251C93.5444 276.119 93.7603 275.857 94.0728 275.655C94.3853 275.453 94.7376 275.352 95.1296 275.352C95.2035 275.352 95.2958 275.354 95.4066 275.357C95.5174 275.359 95.6012 275.364 95.658 275.369V276.392C95.6239 276.384 95.5458 276.371 95.4237 276.354C95.3043 276.334 95.1779 276.324 95.0444 276.324C94.7262 276.324 94.4421 276.391 94.1921 276.524C93.945 276.655 93.7489 276.837 93.604 277.07C93.462 277.3 93.391 277.562 93.391 277.858V282H92.3853ZM67.858 294.614L67.8409 293.369H68.0455L70.9091 290.455H72.1534L69.1023 293.54H69.017L67.858 294.614ZM66.9205 297V288.273H67.9261V297H66.9205ZM71.0795 297L68.5227 293.761L69.2386 293.062L72.358 297H71.0795ZM75.9226 297.136C75.2919 297.136 74.7479 296.997 74.2905 296.719C73.8359 296.438 73.4851 296.045 73.2379 295.543C72.9936 295.037 72.8714 294.449 72.8714 293.778C72.8714 293.108 72.9936 292.517 73.2379 292.006C73.4851 291.491 73.8288 291.091 74.2692 290.804C74.7124 290.514 75.2294 290.369 75.8203 290.369C76.1612 290.369 76.4979 290.426 76.8303 290.54C77.1626 290.653 77.4652 290.838 77.7379 291.094C78.0107 291.347 78.228 291.682 78.3899 292.099C78.5518 292.517 78.6328 293.031 78.6328 293.642V294.068H73.5874V293.199H77.6101C77.6101 292.83 77.5362 292.5 77.3885 292.21C77.2436 291.92 77.0362 291.692 76.7663 291.524C76.4993 291.357 76.1839 291.273 75.8203 291.273C75.4197 291.273 75.0732 291.372 74.7805 291.571C74.4908 291.767 74.2678 292.023 74.1115 292.338C73.9553 292.653 73.8771 292.991 73.8771 293.352V293.932C73.8771 294.426 73.9624 294.845 74.1328 295.189C74.3061 295.53 74.5462 295.79 74.853 295.969C75.1598 296.145 75.5163 296.233 75.9226 296.233C76.1868 296.233 76.4254 296.196 76.6385 296.122C76.8544 296.045 77.0405 295.932 77.1967 295.781C77.353 295.628 77.4737 295.437 77.5589 295.21L78.5305 295.483C78.4283 295.812 78.2564 296.102 78.0149 296.352C77.7734 296.599 77.4751 296.793 77.12 296.932C76.7649 297.068 76.3658 297.136 75.9226 297.136ZM80.6112 299.455C80.4407 299.455 80.2887 299.44 80.1552 299.412C80.0217 299.386 79.9293 299.361 79.8782 299.335L80.1339 298.449C80.3782 298.511 80.5941 298.534 80.7816 298.517C80.9691 298.5 81.1353 298.416 81.2802 298.266C81.4279 298.118 81.5629 297.878 81.685 297.545L81.8725 297.034L79.4521 290.455H80.543L82.3498 295.67H82.418L84.2248 290.455H85.3157L82.5373 297.955C82.4123 298.293 82.2575 298.572 82.0728 298.794C81.8881 299.018 81.6737 299.185 81.4293 299.293C81.1879 299.401 80.9151 299.455 80.6112 299.455Z" fill="black"/>
<rect x="243.5" y="192.5" width="95" height="125" rx="3.5" fill="white" stroke="black"/>
<path d="M264.057 252V243.273H267.006C267.69 243.273 268.25 243.396 268.685 243.643C269.122 243.888 269.446 244.219 269.656 244.636C269.866 245.054 269.972 245.52 269.972 246.034C269.972 246.548 269.866 247.016 269.656 247.436C269.449 247.857 269.128 248.192 268.693 248.442C268.259 248.689 267.702 248.812 267.023 248.812H264.909V247.875H266.989C267.457 247.875 267.834 247.794 268.118 247.632C268.402 247.47 268.608 247.251 268.736 246.976C268.866 246.697 268.932 246.384 268.932 246.034C268.932 245.685 268.866 245.372 268.736 245.097C268.608 244.821 268.401 244.605 268.114 244.449C267.827 244.29 267.446 244.21 266.972 244.21H265.114V252H264.057ZM274.126 252.136C273.536 252.136 273.017 251.996 272.571 251.714C272.128 251.433 271.781 251.04 271.531 250.534C271.284 250.028 271.161 249.437 271.161 248.761C271.161 248.08 271.284 247.484 271.531 246.976C271.781 246.467 272.128 246.072 272.571 245.791C273.017 245.51 273.536 245.369 274.126 245.369C274.717 245.369 275.234 245.51 275.678 245.791C276.124 246.072 276.47 246.467 276.717 246.976C276.967 247.484 277.092 248.08 277.092 248.761C277.092 249.437 276.967 250.028 276.717 250.534C276.47 251.04 276.124 251.433 275.678 251.714C275.234 251.996 274.717 252.136 274.126 252.136ZM274.126 251.233C274.575 251.233 274.945 251.118 275.234 250.888C275.524 250.658 275.739 250.355 275.878 249.98C276.017 249.605 276.087 249.199 276.087 248.761C276.087 248.324 276.017 247.916 275.878 247.538C275.739 247.161 275.524 246.855 275.234 246.622C274.945 246.389 274.575 246.273 274.126 246.273C273.678 246.273 273.308 246.389 273.018 246.622C272.729 246.855 272.514 247.161 272.375 247.538C272.236 247.916 272.166 248.324 272.166 248.761C272.166 249.199 272.236 249.605 272.375 249.98C272.514 250.355 272.729 250.658 273.018 250.888C273.308 251.118 273.678 251.233 274.126 251.233ZM283.264 246.92L282.36 247.176C282.304 247.026 282.22 246.879 282.109 246.737C282.001 246.592 281.853 246.473 281.666 246.379C281.478 246.286 281.238 246.239 280.946 246.239C280.545 246.239 280.211 246.331 279.944 246.516C279.68 246.697 279.548 246.929 279.548 247.21C279.548 247.46 279.639 247.658 279.821 247.803C280.002 247.947 280.287 248.068 280.673 248.165L281.645 248.403C282.23 248.545 282.666 248.763 282.953 249.055C283.24 249.345 283.383 249.719 283.383 250.176C283.383 250.551 283.275 250.886 283.059 251.182C282.846 251.477 282.548 251.71 282.164 251.881C281.781 252.051 281.335 252.136 280.826 252.136C280.159 252.136 279.606 251.991 279.169 251.702C278.731 251.412 278.454 250.989 278.338 250.432L279.292 250.193C279.383 250.545 279.555 250.81 279.808 250.986C280.064 251.162 280.397 251.25 280.809 251.25C281.278 251.25 281.65 251.151 281.926 250.952C282.204 250.75 282.343 250.509 282.343 250.227C282.343 250 282.264 249.81 282.105 249.656C281.946 249.5 281.701 249.384 281.372 249.307L280.281 249.051C279.681 248.909 279.241 248.689 278.96 248.391C278.681 248.089 278.542 247.713 278.542 247.261C278.542 246.892 278.646 246.565 278.853 246.281C279.064 245.997 279.349 245.774 279.71 245.612C280.074 245.45 280.485 245.369 280.946 245.369C281.593 245.369 282.102 245.511 282.471 245.795C282.843 246.08 283.108 246.455 283.264 246.92ZM284.897 252V245.455H285.903V252H284.897ZM285.408 244.364C285.212 244.364 285.043 244.297 284.901 244.163C284.762 244.03 284.692 243.869 284.692 243.682C284.692 243.494 284.762 243.334 284.901 243.2C285.043 243.067 285.212 243 285.408 243C285.604 243 285.772 243.067 285.911 243.2C286.053 243.334 286.124 243.494 286.124 243.682C286.124 243.869 286.053 244.03 285.911 244.163C285.772 244.297 285.604 244.364 285.408 244.364ZM290.591 245.455V246.307H287.199V245.455H290.591ZM288.188 243.886H289.194V250.125C289.194 250.409 289.235 250.622 289.317 250.764C289.402 250.903 289.51 250.997 289.641 251.045C289.775 251.091 289.915 251.114 290.063 251.114C290.174 251.114 290.265 251.108 290.336 251.097C290.407 251.082 290.463 251.071 290.506 251.062L290.711 251.966C290.642 251.991 290.547 252.017 290.425 252.043C290.303 252.071 290.148 252.085 289.961 252.085C289.676 252.085 289.398 252.024 289.125 251.902C288.855 251.78 288.631 251.594 288.452 251.344C288.276 251.094 288.188 250.778 288.188 250.398V243.886ZM292.104 252V245.455H293.11V252H292.104ZM292.615 244.364C292.419 244.364 292.25 244.297 292.108 244.163C291.969 244.03 291.9 243.869 291.9 243.682C291.9 243.494 291.969 243.334 292.108 243.2C292.25 243.067 292.419 243 292.615 243C292.811 243 292.979 243.067 293.118 243.2C293.26 243.334 293.331 243.494 293.331 243.682C293.331 243.869 293.26 244.03 293.118 244.163C292.979 244.297 292.811 244.364 292.615 244.364ZM297.611 252.136C297.02 252.136 296.501 251.996 296.055 251.714C295.612 251.433 295.266 251.04 295.016 250.534C294.768 250.028 294.645 249.437 294.645 248.761C294.645 248.08 294.768 247.484 295.016 246.976C295.266 246.467 295.612 246.072 296.055 245.791C296.501 245.51 297.02 245.369 297.611 245.369C298.202 245.369 298.719 245.51 299.162 245.791C299.608 246.072 299.955 246.467 300.202 246.976C300.452 247.484 300.577 248.08 300.577 248.761C300.577 249.437 300.452 250.028 300.202 250.534C299.955 251.04 299.608 251.433 299.162 251.714C298.719 251.996 298.202 252.136 297.611 252.136ZM297.611 251.233C298.06 251.233 298.429 251.118 298.719 250.888C299.009 250.658 299.223 250.355 299.362 249.98C299.501 249.605 299.571 249.199 299.571 248.761C299.571 248.324 299.501 247.916 299.362 247.538C299.223 247.161 299.009 246.855 298.719 246.622C298.429 246.389 298.06 246.273 297.611 246.273C297.162 246.273 296.793 246.389 296.503 246.622C296.213 246.855 295.999 247.161 295.859 247.538C295.72 247.916 295.651 248.324 295.651 248.761C295.651 249.199 295.72 249.605 295.859 249.98C295.999 250.355 296.213 250.658 296.503 250.888C296.793 251.118 297.162 251.233 297.611 251.233ZM303.118 248.062V252H302.112V245.455H303.083V246.477H303.169C303.322 246.145 303.555 245.878 303.868 245.676C304.18 245.472 304.583 245.369 305.078 245.369C305.521 245.369 305.909 245.46 306.241 245.642C306.574 245.821 306.832 246.094 307.017 246.46C307.201 246.824 307.294 247.284 307.294 247.841V252H306.288V247.909C306.288 247.395 306.154 246.994 305.887 246.707C305.62 246.418 305.254 246.273 304.788 246.273C304.467 246.273 304.18 246.342 303.927 246.482C303.677 246.621 303.48 246.824 303.335 247.091C303.19 247.358 303.118 247.682 303.118 248.062ZM311.058 252.153C310.643 252.153 310.266 252.075 309.928 251.919C309.59 251.76 309.322 251.531 309.123 251.233C308.924 250.932 308.825 250.568 308.825 250.142C308.825 249.767 308.898 249.463 309.046 249.23C309.194 248.994 309.391 248.81 309.638 248.676C309.886 248.543 310.158 248.443 310.457 248.378C310.758 248.31 311.06 248.256 311.364 248.216C311.762 248.165 312.085 248.126 312.332 248.101C312.582 248.072 312.763 248.026 312.877 247.96C312.994 247.895 313.052 247.781 313.052 247.619V247.585C313.052 247.165 312.937 246.838 312.707 246.605C312.479 246.372 312.134 246.256 311.671 246.256C311.191 246.256 310.815 246.361 310.542 246.571C310.269 246.781 310.077 247.006 309.967 247.244L309.012 246.903C309.183 246.506 309.41 246.196 309.694 245.974C309.981 245.75 310.293 245.594 310.631 245.506C310.972 245.415 311.308 245.369 311.637 245.369C311.847 245.369 312.089 245.395 312.362 245.446C312.637 245.494 312.903 245.595 313.158 245.749C313.417 245.902 313.631 246.134 313.802 246.443C313.972 246.753 314.058 247.168 314.058 247.688V252H313.052V251.114H313.001C312.933 251.256 312.819 251.408 312.66 251.57C312.501 251.732 312.289 251.869 312.025 251.983C311.761 252.097 311.438 252.153 311.058 252.153ZM311.211 251.25C311.609 251.25 311.944 251.172 312.217 251.016C312.492 250.859 312.7 250.658 312.839 250.411C312.981 250.163 313.052 249.903 313.052 249.631V248.71C313.009 248.761 312.915 248.808 312.771 248.851C312.629 248.891 312.464 248.926 312.276 248.957C312.092 248.986 311.911 249.011 311.735 249.034C311.562 249.054 311.421 249.071 311.313 249.085C311.052 249.119 310.808 249.175 310.58 249.251C310.356 249.325 310.174 249.437 310.035 249.588C309.898 249.736 309.83 249.937 309.83 250.193C309.83 250.543 309.96 250.807 310.218 250.986C310.479 251.162 310.81 251.25 311.211 251.25ZM316.899 243.273V252H315.893V243.273H316.899ZM266.665 267.136C266.034 267.136 265.49 266.997 265.033 266.719C264.578 266.438 264.227 266.045 263.98 265.543C263.736 265.037 263.614 264.449 263.614 263.778C263.614 263.108 263.736 262.517 263.98 262.006C264.227 261.491 264.571 261.091 265.011 260.804C265.455 260.514 265.972 260.369 266.562 260.369C266.903 260.369 267.24 260.426 267.572 260.54C267.905 260.653 268.207 260.838 268.48 261.094C268.753 261.347 268.97 261.682 269.132 262.099C269.294 262.517 269.375 263.031 269.375 263.642V264.068H264.33V263.199H268.352C268.352 262.83 268.278 262.5 268.131 262.21C267.986 261.92 267.778 261.692 267.509 261.524C267.241 261.357 266.926 261.273 266.562 261.273C266.162 261.273 265.815 261.372 265.523 261.571C265.233 261.767 265.01 262.023 264.854 262.338C264.697 262.653 264.619 262.991 264.619 263.352V263.932C264.619 264.426 264.705 264.845 264.875 265.189C265.048 265.53 265.288 265.79 265.595 265.969C265.902 266.145 266.259 266.233 266.665 266.233C266.929 266.233 267.168 266.196 267.381 266.122C267.597 266.045 267.783 265.932 267.939 265.781C268.095 265.628 268.216 265.437 268.301 265.21L269.273 265.483C269.17 265.812 268.999 266.102 268.757 266.352C268.516 266.599 268.217 266.793 267.862 266.932C267.507 267.068 267.108 267.136 266.665 267.136ZM271.911 263.062V267H270.905V260.455H271.876V261.477H271.962C272.115 261.145 272.348 260.878 272.661 260.676C272.973 260.472 273.376 260.369 273.871 260.369C274.314 260.369 274.702 260.46 275.034 260.642C275.366 260.821 275.625 261.094 275.81 261.46C275.994 261.824 276.087 262.284 276.087 262.841V267H275.081V262.909C275.081 262.395 274.947 261.994 274.68 261.707C274.413 261.418 274.047 261.273 273.581 261.273C273.26 261.273 272.973 261.342 272.72 261.482C272.47 261.621 272.273 261.824 272.128 262.091C271.983 262.358 271.911 262.682 271.911 263.062ZM280.583 267.136C279.97 267.136 279.441 266.991 278.998 266.702C278.555 266.412 278.214 266.013 277.975 265.504C277.737 264.996 277.618 264.415 277.618 263.761C277.618 263.097 277.74 262.51 277.984 262.001C278.231 261.49 278.575 261.091 279.015 260.804C279.458 260.514 279.975 260.369 280.566 260.369C281.027 260.369 281.441 260.455 281.811 260.625C282.18 260.795 282.483 261.034 282.718 261.341C282.954 261.648 283.1 262.006 283.157 262.415H282.152C282.075 262.116 281.904 261.852 281.64 261.622C281.379 261.389 281.027 261.273 280.583 261.273C280.191 261.273 279.848 261.375 279.552 261.58C279.26 261.781 279.031 262.067 278.866 262.436C278.704 262.803 278.623 263.233 278.623 263.727C278.623 264.233 278.703 264.673 278.862 265.048C279.024 265.423 279.251 265.714 279.544 265.922C279.839 266.129 280.186 266.233 280.583 266.233C280.845 266.233 281.082 266.188 281.295 266.097C281.508 266.006 281.689 265.875 281.836 265.705C281.984 265.534 282.089 265.33 282.152 265.091H283.157C283.1 265.477 282.96 265.825 282.735 266.135C282.514 266.442 282.22 266.686 281.853 266.868C281.49 267.047 281.066 267.136 280.583 267.136ZM287.287 267.136C286.696 267.136 286.177 266.996 285.731 266.714C285.288 266.433 284.941 266.04 284.691 265.534C284.444 265.028 284.321 264.437 284.321 263.761C284.321 263.08 284.444 262.484 284.691 261.976C284.941 261.467 285.288 261.072 285.731 260.791C286.177 260.51 286.696 260.369 287.287 260.369C287.877 260.369 288.395 260.51 288.838 260.791C289.284 261.072 289.63 261.467 289.877 261.976C290.127 262.484 290.252 263.08 290.252 263.761C290.252 264.437 290.127 265.028 289.877 265.534C289.63 266.04 289.284 266.433 288.838 266.714C288.395 266.996 287.877 267.136 287.287 267.136ZM287.287 266.233C287.735 266.233 288.105 266.118 288.395 265.888C288.684 265.658 288.899 265.355 289.038 264.98C289.177 264.605 289.247 264.199 289.247 263.761C289.247 263.324 289.177 262.916 289.038 262.538C288.899 262.161 288.684 261.855 288.395 261.622C288.105 261.389 287.735 261.273 287.287 261.273C286.838 261.273 286.468 261.389 286.179 261.622C285.889 261.855 285.674 262.161 285.535 262.538C285.396 262.916 285.326 263.324 285.326 263.761C285.326 264.199 285.396 264.605 285.535 264.98C285.674 265.355 285.889 265.658 286.179 265.888C286.468 266.118 286.838 266.233 287.287 266.233ZM294.259 267.136C293.714 267.136 293.232 266.999 292.815 266.723C292.397 266.445 292.07 266.053 291.835 265.547C291.599 265.038 291.481 264.438 291.481 263.744C291.481 263.057 291.599 262.46 291.835 261.955C292.07 261.449 292.398 261.058 292.819 260.783C293.239 260.507 293.725 260.369 294.276 260.369C294.702 260.369 295.039 260.44 295.286 260.582C295.536 260.722 295.727 260.881 295.857 261.06C295.991 261.236 296.094 261.381 296.168 261.494H296.254V258.273H297.259V267H296.288V265.994H296.168C296.094 266.114 295.989 266.264 295.853 266.446C295.717 266.625 295.522 266.786 295.269 266.928C295.016 267.067 294.68 267.136 294.259 267.136ZM294.396 266.233C294.799 266.233 295.14 266.128 295.418 265.918C295.697 265.705 295.908 265.411 296.053 265.036C296.198 264.658 296.271 264.222 296.271 263.727C296.271 263.239 296.2 262.811 296.058 262.445C295.915 262.075 295.705 261.788 295.427 261.584C295.148 261.376 294.805 261.273 294.396 261.273C293.969 261.273 293.614 261.382 293.33 261.601C293.049 261.817 292.837 262.111 292.695 262.483C292.556 262.852 292.487 263.267 292.487 263.727C292.487 264.193 292.558 264.616 292.7 264.997C292.844 265.375 293.058 265.676 293.339 265.901C293.623 266.122 293.975 266.233 294.396 266.233ZM299.241 267V260.455H300.246V267H299.241ZM299.752 259.364C299.556 259.364 299.387 259.297 299.245 259.163C299.106 259.03 299.036 258.869 299.036 258.682C299.036 258.494 299.106 258.334 299.245 258.2C299.387 258.067 299.556 258 299.752 258C299.948 258 300.116 258.067 300.255 258.2C300.397 258.334 300.468 258.494 300.468 258.682C300.468 258.869 300.397 259.03 300.255 259.163C300.116 259.297 299.948 259.364 299.752 259.364ZM303.094 263.062V267H302.088V260.455H303.06V261.477H303.145C303.299 261.145 303.532 260.878 303.844 260.676C304.157 260.472 304.56 260.369 305.054 260.369C305.498 260.369 305.885 260.46 306.218 260.642C306.55 260.821 306.809 261.094 306.993 261.46C307.178 261.824 307.27 262.284 307.27 262.841V267H306.265V262.909C306.265 262.395 306.131 261.994 305.864 261.707C305.597 261.418 305.23 261.273 304.765 261.273C304.444 261.273 304.157 261.342 303.904 261.482C303.654 261.621 303.456 261.824 303.311 262.091C303.167 262.358 303.094 262.682 303.094 263.062ZM311.75 269.591C311.264 269.591 310.847 269.528 310.497 269.403C310.148 269.281 309.857 269.119 309.624 268.918C309.393 268.719 309.21 268.506 309.074 268.278L309.875 267.716C309.966 267.835 310.081 267.972 310.22 268.125C310.359 268.281 310.55 268.416 310.791 268.53C311.036 268.646 311.355 268.705 311.75 268.705C312.278 268.705 312.714 268.577 313.058 268.321C313.402 268.065 313.574 267.665 313.574 267.119V265.79H313.489C313.415 265.909 313.31 266.057 313.173 266.233C313.04 266.406 312.847 266.561 312.594 266.697C312.344 266.831 312.006 266.898 311.58 266.898C311.051 266.898 310.577 266.773 310.156 266.523C309.739 266.273 309.408 265.909 309.163 265.432C308.922 264.955 308.801 264.375 308.801 263.693C308.801 263.023 308.919 262.439 309.155 261.942C309.391 261.442 309.719 261.055 310.139 260.783C310.56 260.507 311.045 260.369 311.597 260.369C312.023 260.369 312.361 260.44 312.611 260.582C312.864 260.722 313.057 260.881 313.19 261.06C313.327 261.236 313.432 261.381 313.506 261.494H313.608V260.455H314.58V267.188C314.58 267.75 314.452 268.207 314.196 268.56C313.943 268.915 313.602 269.175 313.173 269.339C312.747 269.507 312.273 269.591 311.75 269.591ZM311.716 265.994C312.119 265.994 312.46 265.902 312.739 265.717C313.017 265.533 313.229 265.267 313.374 264.92C313.518 264.574 313.591 264.159 313.591 263.676C313.591 263.205 313.52 262.788 313.378 262.428C313.236 262.067 313.026 261.784 312.747 261.58C312.469 261.375 312.125 261.273 311.716 261.273C311.29 261.273 310.935 261.381 310.651 261.597C310.369 261.812 310.158 262.102 310.016 262.466C309.876 262.83 309.807 263.233 309.807 263.676C309.807 264.131 309.878 264.533 310.02 264.882C310.165 265.229 310.378 265.501 310.659 265.7C310.943 265.896 311.295 265.994 311.716 265.994Z" fill="black"/>
<circle cx="194.5" cy="160.5" r="11" fill="#D9D9D9" stroke="black"/>
<path d="M194.5 154.447V166.553" stroke="black"/>
<line x1="188.447" y1="160" x2="199.947" y2="160" stroke="black"/>
<path d="M172.354 160.354C172.549 160.158 172.549 159.842 172.354 159.646L169.172 156.464C168.976 156.269 168.66 156.269 168.464 156.464C168.269 156.66 168.269 156.976 168.464 157.172L171.293 160L168.464 162.828C168.269 163.024 168.269 163.34 168.464 163.536C168.66 163.731 168.976 163.731 169.172 163.536L172.354 160.354ZM99 164H98.5H99ZM103 160.5L172 160.5L172 159.5L103 159.5L103 160.5ZM98.5 164L98.5 189H99.5L99.5 164H98.5ZM103 159.5C100.515 159.5 98.5 161.515 98.5 164L99.5 164C99.5 162.067 101.067 160.5 103 160.5L103 159.5Z" fill="black"/>
<path d="M287 160L287 159.5H287L287 160ZM215.146 160.354C214.951 160.158 214.951 159.842 215.146 159.646L218.328 156.464C218.524 156.269 218.84 156.269 219.036 156.464C219.231 156.66 219.231 156.976 219.036 157.172L216.207 160L219.036 162.828C219.231 163.024 219.231 163.34 219.036 163.536C218.84 163.731 218.524 163.731 218.328 163.536L215.146 160.354ZM291 164H291.5H291ZM287 160.5L215.5 160.5L215.5 159.5L287 159.5L287 160.5ZM291.5 164L291.5 189H290.5L290.5 164H291.5ZM287 159.5C289.485 159.5 291.5 161.515 291.5 164L290.5 164C290.5 162.067 288.933 160.5 287 160.5L287 159.5Z" fill="black"/>
<rect x="107.5" y="23.5" width="173" height="41" rx="3.5" fill="white" stroke="black"/>
<path d="M126.767 41.4545V42.3068H123.375V41.4545H126.767ZM124.364 39.8864H125.369V46.125C125.369 46.4091 125.411 46.6222 125.493 46.7642C125.578 46.9034 125.686 46.9972 125.817 47.0455C125.95 47.0909 126.091 47.1136 126.239 47.1136C126.349 47.1136 126.44 47.108 126.511 47.0966C126.582 47.0824 126.639 47.071 126.682 47.0625L126.886 47.9659C126.818 47.9915 126.723 48.017 126.601 48.0426C126.479 48.071 126.324 48.0852 126.136 48.0852C125.852 48.0852 125.574 48.0241 125.301 47.902C125.031 47.7798 124.807 47.5938 124.628 47.3438C124.452 47.0938 124.364 46.7784 124.364 46.3977V39.8864ZM128.28 48V41.4545H129.251V42.4432H129.32C129.439 42.1193 129.655 41.8565 129.967 41.6548C130.28 41.4531 130.632 41.3523 131.024 41.3523C131.098 41.3523 131.19 41.3537 131.301 41.3565C131.412 41.3594 131.496 41.3636 131.553 41.3693V42.392C131.518 42.3835 131.44 42.3707 131.318 42.3537C131.199 42.3338 131.072 42.3239 130.939 42.3239C130.621 42.3239 130.337 42.3906 130.087 42.5241C129.839 42.6548 129.643 42.8366 129.499 43.0696C129.357 43.2997 129.286 43.5625 129.286 43.858V48H128.28ZM134.671 48.1534C134.256 48.1534 133.88 48.0753 133.542 47.919C133.203 47.7599 132.935 47.5312 132.736 47.233C132.537 46.9318 132.438 46.5682 132.438 46.142C132.438 45.767 132.512 45.4631 132.659 45.2301C132.807 44.9943 133.005 44.8097 133.252 44.6761C133.499 44.5426 133.772 44.4432 134.07 44.3778C134.371 44.3097 134.674 44.2557 134.978 44.2159C135.375 44.1648 135.698 44.1264 135.945 44.1009C136.195 44.0724 136.377 44.0256 136.49 43.9602C136.607 43.8949 136.665 43.7812 136.665 43.6193V43.5852C136.665 43.1648 136.55 42.8381 136.32 42.6051C136.093 42.3722 135.748 42.2557 135.284 42.2557C134.804 42.2557 134.428 42.3608 134.155 42.571C133.882 42.7812 133.691 43.0057 133.58 43.2443L132.625 42.9034C132.796 42.5057 133.023 42.196 133.307 41.9744C133.594 41.75 133.907 41.5937 134.245 41.5057C134.586 41.4148 134.921 41.3693 135.25 41.3693C135.461 41.3693 135.702 41.3949 135.975 41.446C136.25 41.4943 136.516 41.5952 136.772 41.7486C137.03 41.902 137.245 42.1335 137.415 42.4432C137.586 42.7528 137.671 43.1676 137.671 43.6875V48H136.665V47.1136H136.614C136.546 47.2557 136.432 47.4077 136.273 47.5696C136.114 47.7315 135.902 47.8693 135.638 47.983C135.374 48.0966 135.051 48.1534 134.671 48.1534ZM134.824 47.25C135.222 47.25 135.557 47.1719 135.83 47.0156C136.105 46.8594 136.313 46.6577 136.452 46.4105C136.594 46.1634 136.665 45.9034 136.665 45.6307V44.7102C136.623 44.7614 136.529 44.8082 136.384 44.8509C136.242 44.8906 136.077 44.9261 135.89 44.9574C135.705 44.9858 135.525 45.0114 135.348 45.0341C135.175 45.054 135.034 45.071 134.926 45.0852C134.665 45.1193 134.421 45.1747 134.194 45.2514C133.969 45.3253 133.787 45.4375 133.648 45.5881C133.512 45.7358 133.444 45.9375 133.444 46.1932C133.444 46.5426 133.573 46.8068 133.831 46.9858C134.093 47.1619 134.424 47.25 134.824 47.25ZM139.506 41.4545H140.512V48.4773C140.512 48.8807 140.442 49.2301 140.303 49.5256C140.167 49.821 139.96 50.0497 139.681 50.2116C139.406 50.3736 139.058 50.4545 138.637 50.4545C138.603 50.4545 138.569 50.4545 138.535 50.4545C138.501 50.4545 138.467 50.4545 138.433 50.4545V49.517C138.467 49.517 138.498 49.517 138.526 49.517C138.555 49.517 138.586 49.517 138.62 49.517C138.927 49.517 139.151 49.4261 139.293 49.2443C139.435 49.0653 139.506 48.8097 139.506 48.4773V41.4545ZM140.001 40.3636C139.805 40.3636 139.636 40.2969 139.494 40.1634C139.354 40.0298 139.285 39.8693 139.285 39.6818C139.285 39.4943 139.354 39.3338 139.494 39.2003C139.636 39.0668 139.805 39 140.001 39C140.197 39 140.364 39.0668 140.504 39.2003C140.646 39.3338 140.717 39.4943 140.717 39.6818C140.717 39.8693 140.646 40.0298 140.504 40.1634C140.364 40.2969 140.197 40.3636 140.001 40.3636ZM145.098 48.1364C144.468 48.1364 143.924 47.9972 143.466 47.7188C143.012 47.4375 142.661 47.0455 142.414 46.5426C142.169 46.0369 142.047 45.4489 142.047 44.7784C142.047 44.108 142.169 43.517 142.414 43.0057C142.661 42.4915 143.005 42.0909 143.445 41.804C143.888 41.5142 144.405 41.3693 144.996 41.3693C145.337 41.3693 145.674 41.4261 146.006 41.5398C146.338 41.6534 146.641 41.8381 146.914 42.0938C147.186 42.3466 147.404 42.6818 147.566 43.0994C147.728 43.517 147.809 44.0312 147.809 44.642V45.0682H142.763V44.1989H146.786C146.786 43.8295 146.712 43.5 146.564 43.2102C146.419 42.9205 146.212 42.6918 145.942 42.5241C145.675 42.3565 145.36 42.2727 144.996 42.2727C144.596 42.2727 144.249 42.3722 143.956 42.571C143.667 42.767 143.444 43.0227 143.287 43.3381C143.131 43.6534 143.053 43.9915 143.053 44.3523V44.9318C143.053 45.4261 143.138 45.8452 143.309 46.1889C143.482 46.5298 143.722 46.7898 144.029 46.9688C144.336 47.1449 144.692 47.233 145.098 47.233C145.363 47.233 145.601 47.196 145.814 47.1222C146.03 47.0455 146.216 46.9318 146.373 46.7812C146.529 46.6278 146.65 46.4375 146.735 46.2102L147.706 46.483C147.604 46.8125 147.432 47.1023 147.191 47.3523C146.949 47.5994 146.651 47.7926 146.296 47.9318C145.941 48.0682 145.542 48.1364 145.098 48.1364ZM151.998 48.1364C151.384 48.1364 150.855 47.9915 150.412 47.7017C149.969 47.4119 149.628 47.0128 149.39 46.5043C149.151 45.9957 149.032 45.4148 149.032 44.7614C149.032 44.0966 149.154 43.5099 149.398 43.0014C149.645 42.4901 149.989 42.0909 150.429 41.804C150.873 41.5142 151.39 41.3693 151.98 41.3693C152.441 41.3693 152.855 41.4545 153.225 41.625C153.594 41.7955 153.897 42.0341 154.132 42.3409C154.368 42.6477 154.515 43.0057 154.571 43.4148H153.566C153.489 43.1165 153.319 42.8523 153.054 42.6222C152.793 42.3892 152.441 42.2727 151.998 42.2727C151.605 42.2727 151.262 42.375 150.966 42.5795C150.674 42.7812 150.445 43.0668 150.28 43.4361C150.118 43.8026 150.037 44.233 150.037 44.7273C150.037 45.233 150.117 45.6733 150.276 46.0483C150.438 46.4233 150.665 46.7145 150.958 46.9219C151.253 47.1293 151.6 47.233 151.998 47.233C152.259 47.233 152.496 47.1875 152.709 47.0966C152.922 47.0057 153.103 46.875 153.25 46.7045C153.398 46.5341 153.503 46.3295 153.566 46.0909H154.571C154.515 46.4773 154.374 46.8253 154.15 47.1349C153.928 47.4418 153.634 47.6861 153.267 47.8679C152.904 48.0469 152.48 48.1364 151.998 48.1364ZM158.888 41.4545V42.3068H155.496V41.4545H158.888ZM156.485 39.8864H157.49V46.125C157.49 46.4091 157.532 46.6222 157.614 46.7642C157.699 46.9034 157.807 46.9972 157.938 47.0455C158.071 47.0909 158.212 47.1136 158.36 47.1136C158.471 47.1136 158.561 47.108 158.632 47.0966C158.703 47.0824 158.76 47.071 158.803 47.0625L159.007 47.9659C158.939 47.9915 158.844 48.017 158.722 48.0426C158.6 48.071 158.445 48.0852 158.257 48.0852C157.973 48.0852 157.695 48.0241 157.422 47.902C157.152 47.7798 156.928 47.5938 156.749 47.3438C156.573 47.0938 156.485 46.7784 156.485 46.3977V39.8864ZM162.99 48.1364C162.399 48.1364 161.88 47.9957 161.434 47.7145C160.991 47.4332 160.645 47.0398 160.395 46.5341C160.147 46.0284 160.024 45.4375 160.024 44.7614C160.024 44.0795 160.147 43.4844 160.395 42.9759C160.645 42.4673 160.991 42.0724 161.434 41.7912C161.88 41.5099 162.399 41.3693 162.99 41.3693C163.581 41.3693 164.098 41.5099 164.541 41.7912C164.987 42.0724 165.333 42.4673 165.581 42.9759C165.831 43.4844 165.956 44.0795 165.956 44.7614C165.956 45.4375 165.831 46.0284 165.581 46.5341C165.333 47.0398 164.987 47.4332 164.541 47.7145C164.098 47.9957 163.581 48.1364 162.99 48.1364ZM162.99 47.233C163.439 47.233 163.808 47.1179 164.098 46.8878C164.387 46.6577 164.602 46.3551 164.741 45.9801C164.88 45.6051 164.95 45.1989 164.95 44.7614C164.95 44.3239 164.88 43.9162 164.741 43.5384C164.602 43.1605 164.387 42.8551 164.098 42.6222C163.808 42.3892 163.439 42.2727 162.99 42.2727C162.541 42.2727 162.172 42.3892 161.882 42.6222C161.592 42.8551 161.377 43.1605 161.238 43.5384C161.099 43.9162 161.029 44.3239 161.029 44.7614C161.029 45.1989 161.099 45.6051 161.238 45.9801C161.377 46.3551 161.592 46.6577 161.882 46.8878C162.172 47.1179 162.541 47.233 162.99 47.233ZM167.491 48V41.4545H168.462V42.4432H168.531C168.65 42.1193 168.866 41.8565 169.178 41.6548C169.491 41.4531 169.843 41.3523 170.235 41.3523C170.309 41.3523 170.401 41.3537 170.512 41.3565C170.623 41.3594 170.707 41.3636 170.763 41.3693V42.392C170.729 42.3835 170.651 42.3707 170.529 42.3537C170.41 42.3338 170.283 42.3239 170.15 42.3239C169.832 42.3239 169.548 42.3906 169.298 42.5241C169.05 42.6548 168.854 42.8366 168.71 43.0696C168.567 43.2997 168.496 43.5625 168.496 43.858V48H167.491ZM172.803 50.4545C172.632 50.4545 172.48 50.4403 172.347 50.4119C172.213 50.3864 172.121 50.3608 172.07 50.3352L172.325 49.4489C172.57 49.5114 172.786 49.5341 172.973 49.517C173.161 49.5 173.327 49.4162 173.472 49.2656C173.619 49.1179 173.754 48.8778 173.876 48.5455L174.064 48.0341L171.643 41.4545H172.734L174.541 46.6705H174.609L176.416 41.4545H177.507L174.729 48.9545C174.604 49.2926 174.449 49.5724 174.264 49.794C174.08 50.0185 173.865 50.1847 173.621 50.2926C173.379 50.4006 173.107 50.4545 172.803 50.4545ZM182.402 48V48.9375H176.948V48H182.402ZM183.862 50.4545V41.4545H184.833V42.4943H184.953C185.027 42.3807 185.129 42.2358 185.26 42.0597C185.393 41.8807 185.583 41.7216 185.831 41.5824C186.081 41.4403 186.419 41.3693 186.845 41.3693C187.396 41.3693 187.882 41.5071 188.302 41.7827C188.723 42.0582 189.051 42.4489 189.287 42.9545C189.522 43.4602 189.64 44.0568 189.64 44.7443C189.64 45.4375 189.522 46.0384 189.287 46.5469C189.051 47.0526 188.724 47.4446 188.306 47.723C187.889 47.9986 187.407 48.1364 186.862 48.1364C186.441 48.1364 186.105 48.0668 185.852 47.9276C185.599 47.7855 185.404 47.625 185.268 47.446C185.132 47.2642 185.027 47.1136 184.953 46.9943H184.868V50.4545H183.862ZM184.85 44.7273C184.85 45.2216 184.923 45.6577 185.068 46.0355C185.213 46.4105 185.424 46.7045 185.703 46.9176C185.981 47.1278 186.322 47.233 186.725 47.233C187.146 47.233 187.497 47.1222 187.778 46.9006C188.062 46.6761 188.275 46.375 188.417 45.9972C188.562 45.6165 188.635 45.1932 188.635 44.7273C188.635 44.267 188.564 43.8523 188.422 43.483C188.282 43.1108 188.071 42.8168 187.787 42.6009C187.505 42.3821 187.152 42.2727 186.725 42.2727C186.316 42.2727 185.973 42.3764 185.694 42.5838C185.416 42.7884 185.206 43.0753 185.064 43.4446C184.922 43.8111 184.85 44.2386 184.85 44.7273ZM193.833 48.1364C193.243 48.1364 192.724 47.9957 192.278 47.7145C191.835 47.4332 191.488 47.0398 191.238 46.5341C190.991 46.0284 190.868 45.4375 190.868 44.7614C190.868 44.0795 190.991 43.4844 191.238 42.9759C191.488 42.4673 191.835 42.0724 192.278 41.7912C192.724 41.5099 193.243 41.3693 193.833 41.3693C194.424 41.3693 194.941 41.5099 195.385 41.7912C195.831 42.0724 196.177 42.4673 196.424 42.9759C196.674 43.4844 196.799 44.0795 196.799 44.7614C196.799 45.4375 196.674 46.0284 196.424 46.5341C196.177 47.0398 195.831 47.4332 195.385 47.7145C194.941 47.9957 194.424 48.1364 193.833 48.1364ZM193.833 47.233C194.282 47.233 194.652 47.1179 194.941 46.8878C195.231 46.6577 195.446 46.3551 195.585 45.9801C195.724 45.6051 195.794 45.1989 195.794 44.7614C195.794 44.3239 195.724 43.9162 195.585 43.5384C195.446 43.1605 195.231 42.8551 194.941 42.6222C194.652 42.3892 194.282 42.2727 193.833 42.2727C193.385 42.2727 193.015 42.3892 192.725 42.6222C192.436 42.8551 192.221 43.1605 192.082 43.5384C191.943 43.9162 191.873 44.3239 191.873 44.7614C191.873 45.1989 191.943 45.6051 192.082 45.9801C192.221 46.3551 192.436 46.6577 192.725 46.8878C193.015 47.1179 193.385 47.233 193.833 47.233ZM198.335 48V41.4545H199.34V48H198.335ZM198.846 40.3636C198.65 40.3636 198.481 40.2969 198.339 40.1634C198.2 40.0298 198.13 39.8693 198.13 39.6818C198.13 39.4943 198.2 39.3338 198.339 39.2003C198.481 39.0668 198.65 39 198.846 39C199.042 39 199.21 39.0668 199.349 39.2003C199.491 39.3338 199.562 39.4943 199.562 39.6818C199.562 39.8693 199.491 40.0298 199.349 40.1634C199.21 40.2969 199.042 40.3636 198.846 40.3636ZM202.188 44.0625V48H201.182V41.4545H202.154V42.4773H202.239C202.392 42.1449 202.625 41.8778 202.938 41.6761C203.25 41.4716 203.654 41.3693 204.148 41.3693C204.591 41.3693 204.979 41.4602 205.311 41.642C205.644 41.821 205.902 42.0938 206.087 42.4602C206.272 42.8239 206.364 43.2841 206.364 43.8409V48H205.358V43.9091C205.358 43.3949 205.225 42.9943 204.958 42.7074C204.691 42.4176 204.324 42.2727 203.858 42.2727C203.537 42.2727 203.25 42.3423 202.998 42.4815C202.748 42.6207 202.55 42.8239 202.405 43.0909C202.26 43.358 202.188 43.6818 202.188 44.0625ZM211.048 41.4545V42.3068H207.656V41.4545H211.048ZM208.645 39.8864H209.651V46.125C209.651 46.4091 209.692 46.6222 209.774 46.7642C209.859 46.9034 209.967 46.9972 210.098 47.0455C210.232 47.0909 210.372 47.1136 210.52 47.1136C210.631 47.1136 210.722 47.108 210.793 47.0966C210.864 47.0824 210.92 47.071 210.963 47.0625L211.168 47.9659C211.099 47.9915 211.004 48.017 210.882 48.0426C210.76 48.071 210.605 48.0852 210.418 48.0852C210.134 48.0852 209.855 48.0241 209.582 47.902C209.313 47.7798 209.088 47.5938 208.909 47.3438C208.733 47.0938 208.645 46.7784 208.645 46.3977V39.8864ZM217.078 48V48.9375H211.624V48H217.078ZM220.902 41.4545V42.3068H217.373V41.4545H220.902ZM218.43 48V40.5511C218.43 40.1761 218.518 39.8636 218.694 39.6136C218.87 39.3636 219.099 39.1761 219.38 39.0511C219.662 38.9261 219.958 38.8636 220.271 38.8636C220.518 38.8636 220.72 38.8835 220.876 38.9233C221.032 38.9631 221.149 39 221.225 39.0341L220.936 39.9034C220.885 39.8864 220.814 39.8651 220.723 39.8395C220.635 39.8139 220.518 39.8011 220.373 39.8011C220.041 39.8011 219.801 39.8849 219.653 40.0526C219.508 40.2202 219.436 40.4659 219.436 40.7898V48H218.43ZM224.786 48.1364C224.155 48.1364 223.611 47.9972 223.154 47.7188C222.699 47.4375 222.348 47.0455 222.101 46.5426C221.857 46.0369 221.735 45.4489 221.735 44.7784C221.735 44.108 221.857 43.517 222.101 43.0057C222.348 42.4915 222.692 42.0909 223.132 41.804C223.576 41.5142 224.093 41.3693 224.684 41.3693C225.025 41.3693 225.361 41.4261 225.694 41.5398C226.026 41.6534 226.328 41.8381 226.601 42.0938C226.874 42.3466 227.091 42.6818 227.253 43.0994C227.415 43.517 227.496 44.0312 227.496 44.642V45.0682H222.451V44.1989H226.473C226.473 43.8295 226.4 43.5 226.252 43.2102C226.107 42.9205 225.9 42.6918 225.63 42.5241C225.363 42.3565 225.047 42.2727 224.684 42.2727C224.283 42.2727 223.936 42.3722 223.644 42.571C223.354 42.767 223.131 43.0227 222.975 43.3381C222.819 43.6534 222.74 43.9915 222.74 44.3523V44.9318C222.74 45.4261 222.826 45.8452 222.996 46.1889C223.169 46.5298 223.409 46.7898 223.716 46.9688C224.023 47.1449 224.38 47.233 224.786 47.233C225.05 47.233 225.289 47.196 225.502 47.1222C225.718 47.0455 225.904 46.9318 226.06 46.7812C226.216 46.6278 226.337 46.4375 226.422 46.2102L227.394 46.483C227.292 46.8125 227.12 47.1023 226.878 47.3523C226.637 47.5994 226.338 47.7926 225.983 47.9318C225.628 48.0682 225.229 48.1364 224.786 48.1364ZM230.952 48.1534C230.537 48.1534 230.161 48.0753 229.823 47.919C229.485 47.7599 229.216 47.5312 229.017 47.233C228.819 46.9318 228.719 46.5682 228.719 46.142C228.719 45.767 228.793 45.4631 228.941 45.2301C229.088 44.9943 229.286 44.8097 229.533 44.6761C229.78 44.5426 230.053 44.4432 230.351 44.3778C230.652 44.3097 230.955 44.2557 231.259 44.2159C231.657 44.1648 231.979 44.1264 232.226 44.1009C232.476 44.0724 232.658 44.0256 232.772 43.9602C232.888 43.8949 232.946 43.7812 232.946 43.6193V43.5852C232.946 43.1648 232.831 42.8381 232.601 42.6051C232.374 42.3722 232.029 42.2557 231.566 42.2557C231.086 42.2557 230.709 42.3608 230.436 42.571C230.164 42.7812 229.972 43.0057 229.861 43.2443L228.907 42.9034C229.077 42.5057 229.304 42.196 229.588 41.9744C229.875 41.75 230.188 41.5937 230.526 41.5057C230.867 41.4148 231.202 41.3693 231.532 41.3693C231.742 41.3693 231.983 41.3949 232.256 41.446C232.532 41.4943 232.797 41.5952 233.053 41.7486C233.311 41.902 233.526 42.1335 233.696 42.4432C233.867 42.7528 233.952 43.1676 233.952 43.6875V48H232.946V47.1136H232.895C232.827 47.2557 232.713 47.4077 232.554 47.5696C232.395 47.7315 232.184 47.8693 231.919 47.983C231.655 48.0966 231.333 48.1534 230.952 48.1534ZM231.105 47.25C231.503 47.25 231.838 47.1719 232.111 47.0156C232.387 46.8594 232.594 46.6577 232.733 46.4105C232.875 46.1634 232.946 45.9034 232.946 45.6307V44.7102C232.904 44.7614 232.81 44.8082 232.665 44.8509C232.523 44.8906 232.358 44.9261 232.171 44.9574C231.986 44.9858 231.806 45.0114 231.63 45.0341C231.456 45.054 231.316 45.071 231.208 45.0852C230.946 45.1193 230.702 45.1747 230.475 45.2514C230.25 45.3253 230.069 45.4375 229.929 45.5881C229.793 45.7358 229.725 45.9375 229.725 46.1932C229.725 46.5426 229.854 46.8068 230.113 46.9858C230.374 47.1619 230.705 47.25 231.105 47.25ZM238.634 41.4545V42.3068H235.242V41.4545H238.634ZM236.231 39.8864H237.237V46.125C237.237 46.4091 237.278 46.6222 237.36 46.7642C237.445 46.9034 237.553 46.9972 237.684 47.0455C237.817 47.0909 237.958 47.1136 238.106 47.1136C238.217 47.1136 238.308 47.108 238.379 47.0966C238.45 47.0824 238.506 47.071 238.549 47.0625L238.754 47.9659C238.685 47.9915 238.59 48.017 238.468 48.0426C238.346 48.071 238.191 48.0852 238.004 48.0852C237.719 48.0852 237.441 48.0241 237.168 47.902C236.898 47.7798 236.674 47.5938 236.495 47.3438C236.319 47.0938 236.231 46.7784 236.231 46.3977V39.8864ZM244.272 45.3239V41.4545H245.278V48H244.272V46.892H244.204C244.05 47.2244 243.812 47.5071 243.488 47.7401C243.164 47.9702 242.755 48.0852 242.261 48.0852C241.852 48.0852 241.488 47.9957 241.17 47.8168C240.852 47.6349 240.602 47.3622 240.42 46.9986C240.238 46.6321 240.147 46.1705 240.147 45.6136V41.4545H241.153V45.5455C241.153 46.0227 241.286 46.4034 241.553 46.6875C241.823 46.9716 242.167 47.1136 242.585 47.1136C242.835 47.1136 243.089 47.0497 243.347 46.9219C243.609 46.794 243.827 46.598 244.004 46.3338C244.183 46.0696 244.272 45.733 244.272 45.3239ZM247.12 48V41.4545H248.091V42.4432H248.159C248.279 42.1193 248.495 41.8565 248.807 41.6548C249.12 41.4531 249.472 41.3523 249.864 41.3523C249.938 41.3523 250.03 41.3537 250.141 41.3565C250.252 41.3594 250.336 41.3636 250.392 41.3693V42.392C250.358 42.3835 250.28 42.3707 250.158 42.3537C250.039 42.3338 249.912 42.3239 249.779 42.3239C249.461 42.3239 249.176 42.3906 248.926 42.5241C248.679 42.6548 248.483 42.8366 248.338 43.0696C248.196 43.2997 248.125 43.5625 248.125 43.858V48H247.12ZM254.13 48.1364C253.499 48.1364 252.955 47.9972 252.498 47.7188C252.043 47.4375 251.692 47.0455 251.445 46.5426C251.201 46.0369 251.078 45.4489 251.078 44.7784C251.078 44.108 251.201 43.517 251.445 43.0057C251.692 42.4915 252.036 42.0909 252.476 41.804C252.919 41.5142 253.436 41.3693 254.027 41.3693C254.368 41.3693 254.705 41.4261 255.037 41.5398C255.37 41.6534 255.672 41.8381 255.945 42.0938C256.218 42.3466 256.435 42.6818 256.597 43.0994C256.759 43.517 256.84 44.0312 256.84 44.642V45.0682H251.794V44.1989H255.817C255.817 43.8295 255.743 43.5 255.596 43.2102C255.451 42.9205 255.243 42.6918 254.973 42.5241C254.706 42.3565 254.391 42.2727 254.027 42.2727C253.627 42.2727 253.28 42.3722 252.988 42.571C252.698 42.767 252.475 43.0227 252.319 43.3381C252.162 43.6534 252.084 43.9915 252.084 44.3523V44.9318C252.084 45.4261 252.169 45.8452 252.34 46.1889C252.513 46.5298 252.753 46.7898 253.06 46.9688C253.367 47.1449 253.723 47.233 254.13 47.233C254.394 47.233 254.632 47.196 254.846 47.1222C255.061 47.0455 255.248 46.9318 255.404 46.7812C255.56 46.6278 255.681 46.4375 255.766 46.2102L256.738 46.483C256.635 46.8125 256.463 47.1023 256.222 47.3523C255.98 47.5994 255.682 47.7926 255.327 47.9318C254.972 48.0682 254.573 48.1364 254.13 48.1364ZM263.006 42.9205L262.103 43.1761C262.046 43.0256 261.962 42.8793 261.851 42.7372C261.743 42.5923 261.596 42.473 261.408 42.3793C261.221 42.2855 260.98 42.2386 260.688 42.2386C260.287 42.2386 259.953 42.331 259.686 42.5156C259.422 42.6974 259.29 42.929 259.29 43.2102C259.29 43.4602 259.381 43.6577 259.563 43.8026C259.745 43.9474 260.029 44.0682 260.415 44.1648L261.387 44.4034C261.972 44.5455 262.408 44.7628 262.695 45.0554C262.982 45.3452 263.125 45.7187 263.125 46.1761C263.125 46.5511 263.017 46.8864 262.801 47.1818C262.588 47.4773 262.29 47.7102 261.907 47.8807C261.523 48.0511 261.077 48.1364 260.569 48.1364C259.901 48.1364 259.348 47.9915 258.911 47.7017C258.473 47.4119 258.196 46.9886 258.08 46.4318L259.034 46.1932C259.125 46.5455 259.297 46.8097 259.55 46.9858C259.806 47.1619 260.14 47.25 260.551 47.25C261.02 47.25 261.392 47.1506 261.668 46.9517C261.946 46.75 262.086 46.5085 262.086 46.2273C262.086 46 262.006 45.8097 261.847 45.6562C261.688 45.5 261.444 45.3835 261.114 45.3068L260.023 45.0511C259.424 44.9091 258.983 44.6889 258.702 44.3906C258.424 44.0895 258.284 43.7131 258.284 43.2614C258.284 42.892 258.388 42.5653 258.596 42.2812C258.806 41.9972 259.091 41.7741 259.452 41.6122C259.816 41.4503 260.228 41.3693 260.688 41.3693C261.336 41.3693 261.844 41.5114 262.213 41.7955C262.586 42.0795 262.85 42.4545 263.006 42.9205Z" fill="black"/>
<path d="M225.5 107.5C225.5 111.187 222.179 114.689 216.421 117.298C210.709 119.886 202.782 121.5 194 121.5C185.218 121.5 177.291 119.886 171.579 117.298C165.821 114.689 162.5 111.187 162.5 107.5C162.5 103.813 165.821 100.311 171.579 97.7024C177.291 95.114 185.218 93.5 194 93.5C202.782 93.5 210.709 95.114 216.421 97.7024C222.179 100.311 225.5 103.813 225.5 107.5Z" fill="#D9D9D9" stroke="black"/>
<path d="M177.58 112.136C176.966 112.136 176.438 111.991 175.994 111.702C175.551 111.412 175.21 111.013 174.972 110.504C174.733 109.996 174.614 109.415 174.614 108.761C174.614 108.097 174.736 107.51 174.98 107.001C175.227 106.49 175.571 106.091 176.011 105.804C176.455 105.514 176.972 105.369 177.562 105.369C178.023 105.369 178.438 105.455 178.807 105.625C179.176 105.795 179.479 106.034 179.714 106.341C179.95 106.648 180.097 107.006 180.153 107.415H179.148C179.071 107.116 178.901 106.852 178.636 106.622C178.375 106.389 178.023 106.273 177.58 106.273C177.188 106.273 176.844 106.375 176.548 106.58C176.256 106.781 176.027 107.067 175.862 107.436C175.7 107.803 175.619 108.233 175.619 108.727C175.619 109.233 175.699 109.673 175.858 110.048C176.02 110.423 176.247 110.714 176.54 110.922C176.835 111.129 177.182 111.233 177.58 111.233C177.841 111.233 178.078 111.188 178.291 111.097C178.504 111.006 178.685 110.875 178.832 110.705C178.98 110.534 179.085 110.33 179.148 110.091H180.153C180.097 110.477 179.956 110.825 179.732 111.135C179.51 111.442 179.216 111.686 178.849 111.868C178.486 112.047 178.063 112.136 177.58 112.136ZM184.283 112.136C183.692 112.136 183.173 111.996 182.727 111.714C182.284 111.433 181.938 111.04 181.688 110.534C181.44 110.028 181.317 109.437 181.317 108.761C181.317 108.08 181.44 107.484 181.688 106.976C181.938 106.467 182.284 106.072 182.727 105.791C183.173 105.51 183.692 105.369 184.283 105.369C184.874 105.369 185.391 105.51 185.834 105.791C186.28 106.072 186.626 106.467 186.874 106.976C187.124 107.484 187.249 108.08 187.249 108.761C187.249 109.437 187.124 110.028 186.874 110.534C186.626 111.04 186.28 111.433 185.834 111.714C185.391 111.996 184.874 112.136 184.283 112.136ZM184.283 111.233C184.732 111.233 185.101 111.118 185.391 110.888C185.68 110.658 185.895 110.355 186.034 109.98C186.173 109.605 186.243 109.199 186.243 108.761C186.243 108.324 186.173 107.916 186.034 107.538C185.895 107.161 185.68 106.855 185.391 106.622C185.101 106.389 184.732 106.273 184.283 106.273C183.834 106.273 183.464 106.389 183.175 106.622C182.885 106.855 182.67 107.161 182.531 107.538C182.392 107.916 182.322 108.324 182.322 108.761C182.322 109.199 182.392 109.605 182.531 109.98C182.67 110.355 182.885 110.658 183.175 110.888C183.464 111.118 183.834 111.233 184.283 111.233ZM189.789 108.062V112H188.784V105.455H189.755V106.477H189.841C189.994 106.145 190.227 105.878 190.539 105.676C190.852 105.472 191.255 105.369 191.75 105.369C192.193 105.369 192.581 105.46 192.913 105.642C193.245 105.821 193.504 106.094 193.689 106.46C193.873 106.824 193.966 107.284 193.966 107.841V112H192.96V107.909C192.96 107.395 192.826 106.994 192.559 106.707C192.292 106.418 191.926 106.273 191.46 106.273C191.139 106.273 190.852 106.342 190.599 106.482C190.349 106.621 190.152 106.824 190.007 107.091C189.862 107.358 189.789 107.682 189.789 108.062ZM198.462 112.136C197.849 112.136 197.32 111.991 196.877 111.702C196.434 111.412 196.093 111.013 195.854 110.504C195.616 109.996 195.496 109.415 195.496 108.761C195.496 108.097 195.619 107.51 195.863 107.001C196.11 106.49 196.454 106.091 196.894 105.804C197.337 105.514 197.854 105.369 198.445 105.369C198.906 105.369 199.32 105.455 199.69 105.625C200.059 105.795 200.362 106.034 200.597 106.341C200.833 106.648 200.979 107.006 201.036 107.415H200.031C199.954 107.116 199.783 106.852 199.519 106.622C199.258 106.389 198.906 106.273 198.462 106.273C198.07 106.273 197.727 106.375 197.431 106.58C197.138 106.781 196.91 107.067 196.745 107.436C196.583 107.803 196.502 108.233 196.502 108.727C196.502 109.233 196.582 109.673 196.741 110.048C196.903 110.423 197.13 110.714 197.423 110.922C197.718 111.129 198.065 111.233 198.462 111.233C198.724 111.233 198.961 111.188 199.174 111.097C199.387 111.006 199.567 110.875 199.715 110.705C199.863 110.534 199.968 110.33 200.031 110.091H201.036C200.979 110.477 200.839 110.825 200.614 111.135C200.393 111.442 200.099 111.686 199.732 111.868C199.369 112.047 198.945 112.136 198.462 112.136ZM204.433 112.153C204.018 112.153 203.641 112.075 203.303 111.919C202.965 111.76 202.697 111.531 202.498 111.233C202.299 110.932 202.2 110.568 202.2 110.142C202.2 109.767 202.273 109.463 202.421 109.23C202.569 108.994 202.766 108.81 203.013 108.676C203.261 108.543 203.533 108.443 203.832 108.378C204.133 108.31 204.435 108.256 204.739 108.216C205.137 108.165 205.46 108.126 205.707 108.101C205.957 108.072 206.138 108.026 206.252 107.96C206.369 107.895 206.427 107.781 206.427 107.619V107.585C206.427 107.165 206.312 106.838 206.082 106.605C205.854 106.372 205.509 106.256 205.046 106.256C204.566 106.256 204.19 106.361 203.917 106.571C203.644 106.781 203.452 107.006 203.342 107.244L202.387 106.903C202.558 106.506 202.785 106.196 203.069 105.974C203.356 105.75 203.668 105.594 204.006 105.506C204.347 105.415 204.683 105.369 205.012 105.369C205.222 105.369 205.464 105.395 205.737 105.446C206.012 105.494 206.278 105.595 206.533 105.749C206.792 105.902 207.006 106.134 207.177 106.443C207.347 106.753 207.433 107.168 207.433 107.688V112H206.427V111.114H206.376C206.308 111.256 206.194 111.408 206.035 111.57C205.876 111.732 205.664 111.869 205.4 111.983C205.136 112.097 204.813 112.153 204.433 112.153ZM204.586 111.25C204.984 111.25 205.319 111.172 205.592 111.016C205.867 110.859 206.075 110.658 206.214 110.411C206.356 110.163 206.427 109.903 206.427 109.631V108.71C206.384 108.761 206.29 108.808 206.146 108.851C206.004 108.891 205.839 108.926 205.651 108.957C205.467 108.986 205.286 109.011 205.11 109.034C204.937 109.054 204.796 109.071 204.688 109.085C204.427 109.119 204.183 109.175 203.955 109.251C203.731 109.325 203.549 109.437 203.41 109.588C203.273 109.736 203.205 109.937 203.205 110.193C203.205 110.543 203.335 110.807 203.593 110.986C203.854 111.162 204.185 111.25 204.586 111.25ZM212.115 105.455V106.307H208.723V105.455H212.115ZM209.711 103.886H210.717V110.125C210.717 110.409 210.758 110.622 210.841 110.764C210.926 110.903 211.034 110.997 211.164 111.045C211.298 111.091 211.439 111.114 211.586 111.114C211.697 111.114 211.788 111.108 211.859 111.097C211.93 111.082 211.987 111.071 212.029 111.062L212.234 111.966C212.166 111.991 212.071 112.017 211.949 112.043C211.826 112.071 211.672 112.085 211.484 112.085C211.2 112.085 210.922 112.024 210.649 111.902C210.379 111.78 210.154 111.594 209.975 111.344C209.799 111.094 209.711 110.778 209.711 110.398V103.886Z" fill="black"/>
<path d="M194.646 86.3536C194.842 86.5488 195.158 86.5488 195.354 86.3536L198.536 83.1716C198.731 82.9763 198.731 82.6597 198.536 82.4645C198.34 82.2692 198.024 82.2692 197.828 82.4645L195 85.2929L192.172 82.4645C191.976 82.2692 191.66 82.2692 191.464 82.4645C191.269 82.6597 191.269 82.9763 191.464 83.1716L194.646 86.3536ZM194.5 71L194.5 86L195.5 86L195.5 71L194.5 71Z" fill="black"/>
<path d="M195.354 127.646C195.158 127.451 194.842 127.451 194.646 127.646L191.464 130.828C191.269 131.024 191.269 131.34 191.464 131.536C191.66 131.731 191.976 131.731 192.172 131.536L195 128.707L197.828 131.536C198.024 131.731 198.34 131.731 198.536 131.536C198.731 131.34 198.731 131.024 198.536 130.828L195.354 127.646ZM195.5 143L195.5 128L194.5 128L194.5 143L195.5 143Z" fill="black"/>
</svg>
