<svg width="677" height="562" viewBox="0 0 677 562" fill="none" xmlns="http://www.w3.org/2000/svg">
<rect width="677" height="562" rx="29.181" fill="white"/>
<g filter="url(#filter0_d_21_199)">
<rect x="252" y="350" width="140" height="163" rx="5.83621" fill="white"/>
</g>
<path d="M274.941 385V372.266H282.626V373.634H276.483V377.937H282.228V379.305H276.483V383.632H282.725V385H274.941ZM285.206 385V375.45H286.624V376.942H286.748C286.947 376.432 287.268 376.036 287.712 375.755C288.155 375.468 288.688 375.325 289.31 375.325C289.94 375.325 290.464 375.468 290.883 375.755C291.305 376.036 291.635 376.432 291.871 376.942H291.971C292.215 376.449 292.582 376.057 293.071 375.767C293.56 375.473 294.147 375.325 294.831 375.325C295.685 375.325 296.383 375.593 296.926 376.128C297.469 376.658 297.741 377.485 297.741 378.608V385H296.273V378.608C296.273 377.904 296.08 377.4 295.695 377.097C295.309 376.795 294.856 376.644 294.333 376.644C293.662 376.644 293.142 376.847 292.773 377.253C292.404 377.655 292.219 378.165 292.219 378.782V385H290.727V378.459C290.727 377.916 290.551 377.479 290.199 377.147C289.846 376.811 289.392 376.644 288.837 376.644C288.456 376.644 288.099 376.745 287.768 376.948C287.44 377.151 287.175 377.433 286.972 377.794C286.773 378.15 286.673 378.563 286.673 379.031V385H285.206ZM300.622 385V372.266H302.09V376.967H302.214C302.322 376.801 302.471 376.59 302.662 376.333C302.857 376.072 303.134 375.839 303.495 375.636C303.86 375.429 304.353 375.325 304.975 375.325C305.779 375.325 306.488 375.527 307.101 375.929C307.714 376.331 308.193 376.901 308.537 377.638C308.881 378.376 309.053 379.247 309.053 380.25C309.053 381.261 308.881 382.138 308.537 382.88C308.193 383.618 307.717 384.19 307.107 384.596C306.498 384.998 305.795 385.199 304.999 385.199C304.386 385.199 303.895 385.097 303.526 384.894C303.157 384.687 302.873 384.453 302.674 384.192C302.475 383.926 302.322 383.707 302.214 383.533H302.04V385H300.622ZM302.065 380.225C302.065 380.946 302.171 381.582 302.382 382.134C302.593 382.681 302.902 383.11 303.308 383.421C303.715 383.727 304.212 383.881 304.801 383.881C305.414 383.881 305.926 383.719 306.336 383.396C306.751 383.068 307.062 382.629 307.269 382.078C307.48 381.522 307.586 380.905 307.586 380.225C307.586 379.553 307.482 378.948 307.275 378.409C307.072 377.866 306.763 377.437 306.349 377.122C305.938 376.803 305.422 376.644 304.801 376.644C304.204 376.644 303.702 376.795 303.296 377.097C302.89 377.396 302.583 377.815 302.376 378.353C302.168 378.888 302.065 379.512 302.065 380.225ZM315.302 385.199C314.382 385.199 313.588 384.996 312.921 384.59C312.257 384.179 311.746 383.607 311.385 382.874C311.028 382.136 310.85 381.278 310.85 380.3C310.85 379.321 311.028 378.459 311.385 377.713C311.746 376.963 312.247 376.378 312.89 375.96C313.536 375.537 314.291 375.325 315.153 375.325C315.65 375.325 316.141 375.408 316.626 375.574C317.111 375.74 317.553 376.009 317.951 376.382C318.349 376.751 318.666 377.24 318.902 377.85C319.138 378.459 319.256 379.209 319.256 380.101V380.722H311.895V379.454H317.764C317.764 378.915 317.656 378.434 317.441 378.011C317.229 377.589 316.927 377.255 316.533 377.01C316.143 376.766 315.683 376.644 315.153 376.644C314.568 376.644 314.063 376.789 313.636 377.079C313.213 377.365 312.887 377.738 312.66 378.198C312.432 378.658 312.318 379.151 312.318 379.678V380.523C312.318 381.245 312.442 381.856 312.691 382.358C312.943 382.855 313.294 383.234 313.741 383.495C314.189 383.752 314.709 383.881 315.302 383.881C315.687 383.881 316.036 383.827 316.347 383.719C316.662 383.607 316.933 383.441 317.161 383.222C317.389 382.998 317.565 382.72 317.69 382.389L319.107 382.787C318.958 383.267 318.707 383.69 318.355 384.055C318.002 384.416 317.567 384.697 317.049 384.901C316.531 385.099 315.949 385.199 315.302 385.199ZM325.095 385.199C324.299 385.199 323.596 384.998 322.987 384.596C322.378 384.19 321.901 383.618 321.557 382.88C321.213 382.138 321.041 381.261 321.041 380.25C321.041 379.247 321.213 378.376 321.557 377.638C321.901 376.901 322.38 376.331 322.993 375.929C323.607 375.527 324.315 375.325 325.119 375.325C325.741 375.325 326.232 375.429 326.593 375.636C326.958 375.839 327.236 376.072 327.426 376.333C327.621 376.59 327.772 376.801 327.88 376.967H328.004V372.266H329.472V385H328.054V383.533H327.88C327.772 383.707 327.619 383.926 327.42 384.192C327.221 384.453 326.937 384.687 326.568 384.894C326.199 385.097 325.708 385.199 325.095 385.199ZM325.294 383.881C325.882 383.881 326.38 383.727 326.786 383.421C327.192 383.11 327.501 382.681 327.712 382.134C327.924 381.582 328.029 380.946 328.029 380.225C328.029 379.512 327.926 378.888 327.718 378.353C327.511 377.815 327.204 377.396 326.798 377.097C326.392 376.795 325.89 376.644 325.294 376.644C324.672 376.644 324.154 376.803 323.739 377.122C323.329 377.437 323.02 377.866 322.813 378.409C322.61 378.948 322.508 379.553 322.508 380.225C322.508 380.905 322.612 381.522 322.819 382.078C323.03 382.629 323.341 383.068 323.752 383.396C324.166 383.719 324.68 383.881 325.294 383.881ZM335.969 385.199C335.173 385.199 334.471 384.998 333.861 384.596C333.252 384.19 332.775 383.618 332.431 382.88C332.087 382.138 331.915 381.261 331.915 380.25C331.915 379.247 332.087 378.376 332.431 377.638C332.775 376.901 333.254 376.331 333.868 375.929C334.481 375.527 335.19 375.325 335.994 375.325C336.616 375.325 337.107 375.429 337.468 375.636C337.832 375.839 338.11 376.072 338.301 376.333C338.496 376.59 338.647 376.801 338.755 376.967H338.879V372.266H340.346V385H338.929V383.533H338.755C338.647 383.707 338.493 383.926 338.294 384.192C338.096 384.453 337.812 384.687 337.443 384.894C337.074 385.097 336.583 385.199 335.969 385.199ZM336.168 383.881C336.757 383.881 337.254 383.727 337.66 383.421C338.066 383.11 338.375 382.681 338.587 382.134C338.798 381.582 338.904 380.946 338.904 380.225C338.904 379.512 338.8 378.888 338.593 378.353C338.386 377.815 338.079 377.396 337.673 377.097C337.267 376.795 336.765 376.644 336.168 376.644C335.546 376.644 335.028 376.803 334.614 377.122C334.203 377.437 333.895 377.866 333.687 378.409C333.484 378.948 333.383 379.553 333.383 380.225C333.383 380.905 333.486 381.522 333.693 382.078C333.905 382.629 334.216 383.068 334.626 383.396C335.041 383.719 335.555 383.881 336.168 383.881ZM343.237 385V375.45H344.705V385H343.237ZM343.984 373.858C343.698 373.858 343.451 373.761 343.244 373.566C343.041 373.371 342.939 373.137 342.939 372.863C342.939 372.59 343.041 372.356 343.244 372.161C343.451 371.966 343.698 371.869 343.984 371.869C344.27 371.869 344.514 371.966 344.717 372.161C344.924 372.356 345.028 372.59 345.028 372.863C345.028 373.137 344.924 373.371 344.717 373.566C344.514 373.761 344.27 373.858 343.984 373.858ZM348.86 379.255V385H347.392V375.45H348.81V376.942H348.934C349.158 376.457 349.498 376.067 349.954 375.773C350.41 375.475 350.998 375.325 351.72 375.325C352.366 375.325 352.932 375.458 353.417 375.723C353.902 375.985 354.279 376.382 354.549 376.917C354.818 377.448 354.953 378.119 354.953 378.932V385H353.486V379.031C353.486 378.281 353.291 377.696 352.901 377.278C352.511 376.855 351.977 376.644 351.297 376.644C350.829 376.644 350.41 376.745 350.041 376.948C349.676 377.151 349.388 377.448 349.177 377.837C348.965 378.227 348.86 378.7 348.86 379.255ZM361.489 388.78C360.78 388.78 360.171 388.689 359.661 388.507C359.151 388.328 358.726 388.092 358.386 387.798C358.051 387.508 357.783 387.197 357.584 386.865L358.753 386.045C358.886 386.219 359.054 386.418 359.257 386.641C359.46 386.869 359.738 387.066 360.09 387.232C360.447 387.402 360.913 387.487 361.489 387.487C362.26 387.487 362.896 387.3 363.398 386.927C363.899 386.554 364.15 385.97 364.15 385.174V383.234H364.026C363.918 383.408 363.765 383.624 363.566 383.881C363.371 384.134 363.089 384.36 362.72 384.559C362.355 384.753 361.862 384.851 361.24 384.851C360.469 384.851 359.777 384.668 359.164 384.304C358.554 383.939 358.071 383.408 357.715 382.712C357.363 382.016 357.186 381.17 357.186 380.175C357.186 379.197 357.359 378.345 357.703 377.62C358.047 376.89 358.525 376.327 359.139 375.929C359.752 375.527 360.461 375.325 361.265 375.325C361.887 375.325 362.38 375.429 362.745 375.636C363.114 375.839 363.396 376.072 363.591 376.333C363.79 376.59 363.943 376.801 364.051 376.967H364.2V375.45H365.617V385.274C365.617 386.094 365.431 386.762 365.058 387.276C364.689 387.794 364.192 388.173 363.566 388.413C362.944 388.658 362.252 388.78 361.489 388.78ZM361.439 383.533C362.028 383.533 362.525 383.398 362.932 383.129C363.338 382.859 363.647 382.472 363.858 381.966C364.069 381.46 364.175 380.855 364.175 380.15C364.175 379.462 364.071 378.855 363.864 378.329C363.657 377.802 363.35 377.39 362.944 377.091C362.538 376.793 362.036 376.644 361.439 376.644C360.818 376.644 360.299 376.801 359.885 377.116C359.475 377.431 359.166 377.854 358.958 378.385C358.755 378.915 358.654 379.504 358.654 380.15C358.654 380.814 358.757 381.4 358.965 381.91C359.176 382.416 359.487 382.813 359.897 383.104C360.312 383.39 360.826 383.533 361.439 383.533ZM278.622 406.199C277.759 406.199 277.003 405.994 276.352 405.583C275.706 405.173 275.2 404.599 274.835 403.861C274.474 403.123 274.294 402.261 274.294 401.275C274.294 400.28 274.474 399.411 274.835 398.67C275.2 397.928 275.706 397.351 276.352 396.941C277.003 396.531 277.759 396.325 278.622 396.325C279.484 396.325 280.238 396.531 280.885 396.941C281.536 397.351 282.041 397.928 282.402 398.67C282.767 399.411 282.949 400.28 282.949 401.275C282.949 402.261 282.767 403.123 282.402 403.861C282.041 404.599 281.536 405.173 280.885 405.583C280.238 405.994 279.484 406.199 278.622 406.199ZM278.622 404.881C279.276 404.881 279.815 404.713 280.238 404.377C280.661 404.041 280.974 403.6 281.177 403.053C281.38 402.506 281.482 401.913 281.482 401.275C281.482 400.636 281.38 400.042 281.177 399.49C280.974 398.939 280.661 398.493 280.238 398.153C279.815 397.814 279.276 397.644 278.622 397.644C277.967 397.644 277.428 397.814 277.005 398.153C276.582 398.493 276.269 398.939 276.066 399.49C275.863 400.042 275.761 400.636 275.761 401.275C275.761 401.913 275.863 402.506 276.066 403.053C276.269 403.6 276.582 404.041 277.005 404.377C277.428 404.713 277.967 404.881 278.622 404.881ZM289.442 396.45V397.693H284.294V396.45H289.442ZM285.835 406V395.132C285.835 394.585 285.964 394.129 286.221 393.764C286.478 393.399 286.812 393.126 287.222 392.943C287.632 392.761 288.065 392.67 288.521 392.67C288.882 392.67 289.176 392.699 289.404 392.757C289.632 392.815 289.802 392.869 289.914 392.918L289.491 394.187C289.417 394.162 289.313 394.131 289.18 394.093C289.052 394.056 288.882 394.037 288.671 394.037C288.186 394.037 287.835 394.16 287.62 394.404C287.408 394.649 287.303 395.007 287.303 395.48V406H285.835ZM278.895 417.45V418.693H273.946V417.45H278.895ZM275.388 415.162H276.856V424.264C276.856 424.679 276.916 424.99 277.036 425.197C277.16 425.4 277.318 425.537 277.509 425.607C277.703 425.674 277.909 425.707 278.124 425.707C278.286 425.707 278.418 425.698 278.522 425.682C278.626 425.661 278.709 425.645 278.771 425.632L279.069 426.95C278.97 426.988 278.831 427.025 278.653 427.062C278.474 427.104 278.248 427.124 277.975 427.124C277.56 427.124 277.154 427.035 276.756 426.857C276.363 426.679 276.035 426.407 275.774 426.042C275.517 425.678 275.388 425.218 275.388 424.662V415.162ZM282.775 421.255V427H281.308V414.266H282.775V418.942H282.899C283.123 418.449 283.459 418.057 283.906 417.767C284.358 417.473 284.959 417.325 285.71 417.325C286.36 417.325 286.93 417.456 287.419 417.717C287.908 417.974 288.288 418.37 288.557 418.905C288.831 419.435 288.968 420.111 288.968 420.932V427H287.5V421.031C287.5 420.273 287.303 419.686 286.91 419.272C286.52 418.853 285.979 418.644 285.287 418.644C284.806 418.644 284.375 418.745 283.994 418.948C283.616 419.151 283.318 419.448 283.098 419.837C282.883 420.227 282.775 420.7 282.775 421.255ZM295.656 427.199C294.736 427.199 293.942 426.996 293.275 426.59C292.612 426.179 292.1 425.607 291.739 424.874C291.383 424.136 291.204 423.278 291.204 422.3C291.204 421.321 291.383 420.459 291.739 419.713C292.1 418.963 292.601 418.378 293.244 417.96C293.89 417.537 294.645 417.325 295.507 417.325C296.004 417.325 296.495 417.408 296.98 417.574C297.465 417.74 297.907 418.009 298.305 418.382C298.703 418.751 299.02 419.24 299.256 419.85C299.492 420.459 299.61 421.209 299.61 422.101V422.722H292.249V421.454H298.118C298.118 420.915 298.01 420.434 297.795 420.011C297.584 419.589 297.281 419.255 296.887 419.01C296.498 418.766 296.037 418.644 295.507 418.644C294.922 418.644 294.417 418.789 293.99 419.079C293.567 419.365 293.242 419.738 293.014 420.198C292.786 420.658 292.672 421.151 292.672 421.678V422.523C292.672 423.245 292.796 423.856 293.045 424.358C293.298 424.855 293.648 425.234 294.095 425.495C294.543 425.752 295.063 425.881 295.656 425.881C296.042 425.881 296.39 425.827 296.701 425.719C297.016 425.607 297.287 425.441 297.515 425.222C297.743 424.998 297.919 424.72 298.044 424.389L299.461 424.787C299.312 425.267 299.061 425.69 298.709 426.055C298.357 426.416 297.921 426.697 297.403 426.901C296.885 427.099 296.303 427.199 295.656 427.199ZM276.209 442.255V448H274.742V438.45H276.159V439.942H276.284C276.508 439.457 276.847 439.067 277.303 438.773C277.759 438.475 278.348 438.325 279.069 438.325C279.716 438.325 280.282 438.458 280.767 438.723C281.252 438.985 281.629 439.382 281.898 439.917C282.168 440.448 282.302 441.119 282.302 441.932V448H280.835V442.031C280.835 441.281 280.64 440.696 280.251 440.278C279.861 439.855 279.326 439.644 278.646 439.644C278.178 439.644 277.759 439.745 277.39 439.948C277.026 440.151 276.738 440.448 276.526 440.837C276.315 441.227 276.209 441.7 276.209 442.255ZM288.988 448.199C288.068 448.199 287.274 447.996 286.606 447.59C285.943 447.179 285.431 446.607 285.071 445.874C284.714 445.136 284.536 444.278 284.536 443.3C284.536 442.321 284.714 441.459 285.071 440.713C285.431 439.963 285.933 439.378 286.575 438.96C287.222 438.537 287.976 438.325 288.839 438.325C289.336 438.325 289.827 438.408 290.312 438.574C290.797 438.74 291.239 439.009 291.636 439.382C292.034 439.751 292.351 440.24 292.588 440.85C292.824 441.459 292.942 442.209 292.942 443.101V443.722H285.581V442.454H291.45C291.45 441.915 291.342 441.434 291.127 441.011C290.915 440.589 290.613 440.255 290.219 440.01C289.829 439.766 289.369 439.644 288.839 439.644C288.254 439.644 287.748 439.789 287.321 440.079C286.899 440.365 286.573 440.738 286.345 441.198C286.117 441.658 286.003 442.151 286.003 442.678V443.523C286.003 444.245 286.128 444.856 286.376 445.358C286.629 445.855 286.979 446.234 287.427 446.495C287.875 446.752 288.395 446.881 288.988 446.881C289.373 446.881 289.721 446.827 290.032 446.719C290.347 446.607 290.619 446.441 290.847 446.222C291.075 445.998 291.251 445.72 291.375 445.389L292.793 445.787C292.644 446.267 292.393 446.69 292.041 447.055C291.688 447.416 291.253 447.697 290.735 447.901C290.217 448.099 289.634 448.199 288.988 448.199ZM297.985 448.224C297.379 448.224 296.83 448.11 296.337 447.882C295.844 447.65 295.452 447.316 295.162 446.881C294.872 446.441 294.727 445.911 294.727 445.289C294.727 444.742 294.834 444.298 295.05 443.959C295.265 443.615 295.553 443.345 295.914 443.15C296.275 442.955 296.673 442.81 297.108 442.715C297.547 442.616 297.989 442.537 298.432 442.479C299.013 442.404 299.483 442.348 299.844 442.311C300.208 442.269 300.474 442.201 300.639 442.106C300.809 442.01 300.894 441.845 300.894 441.608V441.559C300.894 440.945 300.726 440.468 300.391 440.129C300.059 439.789 299.556 439.619 298.88 439.619C298.179 439.619 297.63 439.772 297.232 440.079C296.834 440.386 296.555 440.713 296.393 441.061L295 440.564C295.249 439.984 295.58 439.532 295.995 439.208C296.414 438.881 296.87 438.653 297.363 438.524C297.86 438.392 298.349 438.325 298.83 438.325C299.137 438.325 299.489 438.363 299.887 438.437C300.289 438.508 300.677 438.655 301.05 438.879C301.427 439.103 301.74 439.441 301.989 439.892C302.237 440.344 302.362 440.949 302.362 441.708V448H300.894V446.707H300.82C300.72 446.914 300.554 447.136 300.322 447.372C300.09 447.608 299.781 447.809 299.396 447.975C299.01 448.141 298.54 448.224 297.985 448.224ZM298.208 446.906C298.789 446.906 299.278 446.792 299.676 446.564C300.078 446.336 300.38 446.041 300.583 445.681C300.791 445.32 300.894 444.941 300.894 444.543V443.2C300.832 443.275 300.695 443.343 300.484 443.405C300.277 443.463 300.036 443.515 299.763 443.561C299.493 443.602 299.23 443.639 298.973 443.673C298.72 443.702 298.515 443.726 298.358 443.747C297.976 443.797 297.62 443.878 297.288 443.99C296.961 444.097 296.695 444.261 296.492 444.481C296.293 444.696 296.194 444.991 296.194 445.364C296.194 445.874 296.382 446.259 296.76 446.52C297.141 446.777 297.624 446.906 298.208 446.906ZM305.04 448V438.45H306.458V439.892H306.557C306.731 439.42 307.046 439.036 307.502 438.742C307.958 438.448 308.472 438.301 309.044 438.301C309.152 438.301 309.286 438.303 309.448 438.307C309.61 438.311 309.732 438.317 309.815 438.325V439.818C309.765 439.805 309.651 439.787 309.473 439.762C309.299 439.733 309.114 439.718 308.92 439.718C308.455 439.718 308.041 439.816 307.676 440.01C307.316 440.201 307.03 440.466 306.818 440.806C306.611 441.142 306.507 441.525 306.507 441.957V448H305.04ZM315.268 448.199C314.348 448.199 313.554 447.996 312.886 447.59C312.223 447.179 311.711 446.607 311.351 445.874C310.994 445.136 310.816 444.278 310.816 443.3C310.816 442.321 310.994 441.459 311.351 440.713C311.711 439.963 312.213 439.378 312.855 438.96C313.502 438.537 314.256 438.325 315.119 438.325C315.616 438.325 316.107 438.408 316.592 438.574C317.077 438.74 317.519 439.009 317.916 439.382C318.314 439.751 318.631 440.24 318.868 440.85C319.104 441.459 319.222 442.209 319.222 443.101V443.722H311.861V442.454H317.73C317.73 441.915 317.622 441.434 317.407 441.011C317.195 440.589 316.893 440.255 316.499 440.01C316.109 439.766 315.649 439.644 315.119 439.644C314.534 439.644 314.028 439.789 313.601 440.079C313.179 440.365 312.853 440.738 312.625 441.198C312.397 441.658 312.283 442.151 312.283 442.678V443.523C312.283 444.245 312.408 444.856 312.656 445.358C312.909 445.855 313.26 446.234 313.707 446.495C314.155 446.752 314.675 446.881 315.268 446.881C315.653 446.881 316.001 446.827 316.312 446.719C316.627 446.607 316.899 446.441 317.127 446.222C317.355 445.998 317.531 445.72 317.655 445.389L319.073 445.787C318.924 446.267 318.673 446.69 318.321 447.055C317.968 447.416 317.533 447.697 317.015 447.901C316.497 448.099 315.914 448.199 315.268 448.199ZM328.219 440.589L326.901 440.962C326.818 440.742 326.696 440.529 326.534 440.321C326.376 440.11 326.161 439.936 325.887 439.799C325.614 439.662 325.264 439.594 324.837 439.594C324.252 439.594 323.765 439.729 323.375 439.998C322.99 440.263 322.797 440.601 322.797 441.011C322.797 441.376 322.93 441.664 323.195 441.876C323.46 442.087 323.875 442.263 324.439 442.404L325.856 442.752C326.71 442.96 327.346 443.277 327.765 443.704C328.184 444.126 328.393 444.672 328.393 445.339C328.393 445.886 328.236 446.375 327.92 446.806C327.61 447.237 327.174 447.577 326.615 447.826C326.055 448.075 325.404 448.199 324.662 448.199C323.688 448.199 322.882 447.988 322.244 447.565C321.606 447.142 321.201 446.524 321.031 445.712L322.424 445.364C322.557 445.878 322.808 446.263 323.177 446.52C323.55 446.777 324.037 446.906 324.638 446.906C325.322 446.906 325.865 446.761 326.267 446.47C326.673 446.176 326.876 445.824 326.876 445.413C326.876 445.082 326.76 444.804 326.528 444.58C326.296 444.352 325.939 444.182 325.458 444.071L323.867 443.697C322.992 443.49 322.35 443.169 321.939 442.734C321.533 442.294 321.33 441.745 321.33 441.086C321.33 440.547 321.481 440.071 321.784 439.656C322.091 439.242 322.507 438.916 323.034 438.68C323.564 438.444 324.165 438.325 324.837 438.325C325.782 438.325 326.524 438.533 327.062 438.947C327.605 439.362 327.991 439.909 328.219 440.589ZM334.755 438.45V439.693H329.806V438.45H334.755ZM331.248 436.162H332.716V445.264C332.716 445.679 332.776 445.99 332.896 446.197C333.02 446.4 333.178 446.537 333.369 446.607C333.563 446.674 333.769 446.707 333.984 446.707C334.146 446.707 334.278 446.698 334.382 446.682C334.486 446.661 334.569 446.645 334.631 446.632L334.929 447.95C334.83 447.988 334.691 448.025 334.513 448.062C334.334 448.104 334.109 448.124 333.835 448.124C333.42 448.124 333.014 448.035 332.616 447.857C332.223 447.679 331.895 447.407 331.634 447.042C331.377 446.678 331.248 446.218 331.248 445.662V436.162ZM276.209 456.266V469H274.742V456.266H276.209ZM282.901 469.199C281.981 469.199 281.187 468.996 280.519 468.59C279.856 468.179 279.344 467.607 278.984 466.874C278.627 466.136 278.449 465.278 278.449 464.3C278.449 463.321 278.627 462.459 278.984 461.713C279.344 460.963 279.846 460.378 280.488 459.96C281.135 459.537 281.889 459.325 282.752 459.325C283.249 459.325 283.74 459.408 284.225 459.574C284.71 459.74 285.152 460.009 285.549 460.382C285.947 460.751 286.264 461.24 286.501 461.85C286.737 462.459 286.855 463.209 286.855 464.101V464.722H279.494V463.454H285.363C285.363 462.915 285.255 462.434 285.04 462.011C284.828 461.589 284.526 461.255 284.132 461.01C283.742 460.766 283.282 460.644 282.752 460.644C282.167 460.644 281.661 460.789 281.234 461.079C280.812 461.365 280.486 461.738 280.258 462.198C280.03 462.658 279.916 463.151 279.916 463.678V464.523C279.916 465.245 280.041 465.856 280.289 466.358C280.542 466.855 280.893 467.234 281.34 467.495C281.788 467.752 282.308 467.881 282.901 467.881C283.286 467.881 283.634 467.827 283.945 467.719C284.26 467.607 284.532 467.441 284.76 467.222C284.988 466.998 285.164 466.72 285.288 466.389L286.706 466.787C286.557 467.267 286.306 467.69 285.954 468.055C285.601 468.416 285.166 468.697 284.648 468.901C284.13 469.099 283.547 469.199 282.901 469.199ZM293.241 459.45V460.693H288.291V459.45H293.241ZM289.734 457.162H291.201V466.264C291.201 466.679 291.261 466.99 291.382 467.197C291.506 467.4 291.663 467.537 291.854 467.607C292.049 467.674 292.254 467.707 292.47 467.707C292.631 467.707 292.764 467.698 292.868 467.682C292.971 467.661 293.054 467.645 293.116 467.632L293.415 468.95C293.315 468.988 293.176 469.025 292.998 469.062C292.82 469.104 292.594 469.124 292.32 469.124C291.906 469.124 291.5 469.035 291.102 468.857C290.708 468.679 290.38 468.407 290.119 468.042C289.862 467.678 289.734 467.218 289.734 466.662V457.162ZM299.601 459.45V460.693H294.652V459.45H299.601ZM296.094 457.162H297.562V466.264C297.562 466.679 297.622 466.99 297.742 467.197C297.866 467.4 298.024 467.537 298.215 467.607C298.409 467.674 298.615 467.707 298.83 467.707C298.992 467.707 299.124 467.698 299.228 467.682C299.332 467.661 299.415 467.645 299.477 467.632L299.775 468.95C299.676 468.988 299.537 469.025 299.359 469.062C299.18 469.104 298.954 469.124 298.681 469.124C298.266 469.124 297.86 469.035 297.462 468.857C297.068 468.679 296.741 468.407 296.48 468.042C296.223 467.678 296.094 467.218 296.094 466.662V457.162ZM305.71 469.199C304.79 469.199 303.996 468.996 303.329 468.59C302.665 468.179 302.153 467.607 301.793 466.874C301.436 466.136 301.258 465.278 301.258 464.3C301.258 463.321 301.436 462.459 301.793 461.713C302.153 460.963 302.655 460.378 303.297 459.96C303.944 459.537 304.698 459.325 305.561 459.325C306.058 459.325 306.549 459.408 307.034 459.574C307.519 459.74 307.961 460.009 308.359 460.382C308.756 460.751 309.074 461.24 309.31 461.85C309.546 462.459 309.664 463.209 309.664 464.101V464.722H302.303V463.454H308.172C308.172 462.915 308.064 462.434 307.849 462.011C307.637 461.589 307.335 461.255 306.941 461.01C306.551 460.766 306.091 460.644 305.561 460.644C304.976 460.644 304.47 460.789 304.044 461.079C303.621 461.365 303.295 461.738 303.067 462.198C302.839 462.658 302.725 463.151 302.725 463.678V464.523C302.725 465.245 302.85 465.856 303.098 466.358C303.351 466.855 303.702 467.234 304.149 467.495C304.597 467.752 305.117 467.881 305.71 467.881C306.095 467.881 306.444 467.827 306.754 467.719C307.069 467.607 307.341 467.441 307.569 467.222C307.797 466.998 307.973 466.72 308.097 466.389L309.515 466.787C309.366 467.267 309.115 467.69 308.763 468.055C308.41 468.416 307.975 468.697 307.457 468.901C306.939 469.099 306.356 469.199 305.71 469.199ZM311.896 469V459.45H313.314V460.892H313.413C313.587 460.42 313.903 460.036 314.358 459.742C314.814 459.448 315.328 459.301 315.9 459.301C316.008 459.301 316.143 459.303 316.305 459.307C316.466 459.311 316.588 459.317 316.671 459.325V460.818C316.622 460.805 316.508 460.787 316.329 460.762C316.155 460.733 315.971 460.718 315.776 460.718C315.312 460.718 314.897 460.816 314.533 461.01C314.172 461.201 313.886 461.466 313.675 461.806C313.467 462.142 313.364 462.525 313.364 462.957V469H311.896ZM276.11 486.518L276.085 484.703H276.383L280.561 480.45H282.377L277.925 484.951H277.801L276.11 486.518ZM274.742 490V477.266H276.209V490H274.742ZM280.81 490L277.08 485.275L278.124 484.255L282.675 490H280.81ZM287.876 490.199C286.956 490.199 286.162 489.996 285.495 489.59C284.832 489.179 284.32 488.607 283.959 487.874C283.603 487.136 283.425 486.278 283.425 485.3C283.425 484.321 283.603 483.459 283.959 482.713C284.32 481.963 284.821 481.378 285.464 480.96C286.111 480.537 286.865 480.325 287.727 480.325C288.225 480.325 288.716 480.408 289.201 480.574C289.686 480.74 290.127 481.009 290.525 481.382C290.923 481.751 291.24 482.24 291.476 482.85C291.713 483.459 291.831 484.209 291.831 485.101V485.722H284.469V484.454H290.339C290.339 483.915 290.231 483.434 290.015 483.011C289.804 482.589 289.501 482.255 289.107 482.01C288.718 481.766 288.258 481.644 287.727 481.644C287.143 481.644 286.637 481.789 286.21 482.079C285.787 482.365 285.462 482.738 285.234 483.198C285.006 483.658 284.892 484.151 284.892 484.678V485.523C284.892 486.245 285.016 486.856 285.265 487.358C285.518 487.855 285.868 488.234 286.316 488.495C286.763 488.752 287.284 488.881 287.876 488.881C288.262 488.881 288.61 488.827 288.921 488.719C289.236 488.607 289.507 488.441 289.735 488.222C289.963 487.998 290.14 487.72 290.264 487.389L291.682 487.787C291.532 488.267 291.282 488.69 290.929 489.055C290.577 489.416 290.142 489.697 289.623 489.901C289.105 490.099 288.523 490.199 287.876 490.199ZM294.717 493.581C294.469 493.581 294.247 493.561 294.052 493.519C293.857 493.482 293.722 493.445 293.648 493.407L294.021 492.114C294.377 492.205 294.692 492.238 294.966 492.213C295.24 492.189 295.482 492.066 295.693 491.847C295.909 491.631 296.106 491.281 296.284 490.796L296.558 490.05L293.026 480.45H294.618L297.254 488.06H297.353L299.99 480.45H301.581L297.528 491.393C297.345 491.886 297.119 492.294 296.85 492.618C296.58 492.945 296.267 493.188 295.911 493.345C295.559 493.503 295.161 493.581 294.717 493.581Z" fill="black"/>
<g filter="url(#filter1_d_21_199)">
<rect x="141" y="48" width="249" height="54" rx="5.83621" fill="white"/>
</g>
<path d="M175.506 72.4498C175.431 71.8198 175.128 71.3307 174.598 70.9825C174.067 70.6343 173.417 70.4602 172.646 70.4602C172.082 70.4602 171.589 70.5514 171.166 70.7338C170.747 70.9162 170.42 71.167 170.183 71.4861C169.951 71.8053 169.835 72.168 169.835 72.5742C169.835 72.9141 169.916 73.2063 170.078 73.4509C170.243 73.6913 170.455 73.8923 170.712 74.054C170.969 74.2115 171.238 74.3421 171.52 74.4457C171.802 74.5452 172.061 74.626 172.297 74.6882L173.591 75.0363C173.922 75.1234 174.291 75.2436 174.697 75.397C175.108 75.5503 175.499 75.7597 175.872 76.0249C176.25 76.2861 176.561 76.6218 176.805 77.0322C177.05 77.4425 177.172 77.9462 177.172 78.543C177.172 79.2311 176.992 79.8529 176.631 80.4083C176.275 80.9637 175.752 81.4052 175.064 81.7326C174.38 82.0601 173.549 82.2238 172.571 82.2238C171.659 82.2238 170.869 82.0767 170.202 81.7824C169.539 81.4881 169.017 81.0777 168.635 80.5513C168.258 80.0249 168.045 79.4135 167.995 78.7171H169.587C169.628 79.198 169.79 79.5959 170.071 79.9109C170.357 80.2218 170.718 80.4539 171.153 80.6073C171.593 80.7565 172.065 80.8311 172.571 80.8311C173.16 80.8311 173.688 80.7358 174.156 80.5451C174.625 80.3503 174.996 80.0808 175.269 79.7368C175.543 79.3886 175.68 78.9824 175.68 78.5182C175.68 78.0954 175.562 77.7513 175.325 77.4861C175.089 77.2208 174.778 77.0052 174.393 76.8394C174.007 76.6736 173.591 76.5286 173.143 76.4042L171.576 75.9565C170.581 75.6705 169.794 75.2622 169.213 74.7317C168.633 74.2011 168.343 73.5068 168.343 72.6488C168.343 71.9359 168.536 71.3141 168.921 70.7835C169.311 70.2488 169.833 69.8343 170.488 69.54C171.147 69.2416 171.883 69.0924 172.695 69.0924C173.516 69.0924 174.246 69.2395 174.884 69.5338C175.522 69.824 176.028 70.2219 176.401 70.7276C176.778 71.2333 176.977 71.8074 176.998 72.4498H175.506ZM181.672 82L178.762 72.4498H180.304L182.368 79.7617H182.468L184.507 72.4498H186.074L188.088 79.7368H188.188L190.252 72.4498H191.794L188.884 82H187.442L185.353 74.6633H185.203L183.114 82H181.672ZM193.734 82V72.4498H195.201V82H193.734ZM194.48 70.8582C194.194 70.8582 193.947 70.7607 193.74 70.5659C193.537 70.3711 193.435 70.1369 193.435 69.8633C193.435 69.5898 193.537 69.3556 193.74 69.1608C193.947 68.9659 194.194 68.8685 194.48 68.8685C194.766 68.8685 195.011 68.9659 195.214 69.1608C195.421 69.3556 195.525 69.5898 195.525 69.8633C195.525 70.1369 195.421 70.3711 195.214 70.5659C195.011 70.7607 194.766 70.8582 194.48 70.8582ZM197.889 85.5813V72.4498H199.306V73.9669H199.48C199.588 73.8011 199.737 73.5897 199.928 73.3327C200.123 73.0716 200.401 72.8395 200.761 72.6364C201.126 72.4291 201.619 72.3255 202.241 72.3255C203.045 72.3255 203.754 72.5265 204.367 72.9286C204.981 73.3307 205.46 73.9006 205.804 74.6384C206.148 75.3762 206.32 76.2467 206.32 77.2498C206.32 78.2612 206.148 79.1379 205.804 79.8798C205.46 80.6176 204.983 81.1896 204.374 81.5959C203.764 81.9979 203.062 82.199 202.266 82.199C201.652 82.199 201.161 82.0974 200.792 81.8943C200.423 81.687 200.14 81.4529 199.941 81.1917C199.742 80.9264 199.588 80.7067 199.48 80.5327H199.356V85.5813H197.889ZM199.331 77.2249C199.331 77.9462 199.437 78.5824 199.648 79.1337C199.86 79.6809 200.169 80.1099 200.575 80.4207C200.981 80.7275 201.478 80.8808 202.067 80.8808C202.68 80.8808 203.192 80.7192 203.603 80.3959C204.017 80.0684 204.328 79.629 204.535 79.0778C204.747 78.5223 204.852 77.9047 204.852 77.2249C204.852 76.5534 204.749 75.9483 204.542 75.4094C204.338 74.8664 204.03 74.4374 203.615 74.1224C203.205 73.8032 202.689 73.6436 202.067 73.6436C201.47 73.6436 200.969 73.7949 200.562 74.0975C200.156 74.3959 199.849 74.8146 199.642 75.3534C199.435 75.8881 199.331 76.512 199.331 77.2249ZM212.562 82.199C211.642 82.199 210.848 81.9959 210.181 81.5896C209.518 81.1793 209.006 80.6073 208.645 79.8736C208.289 79.1358 208.11 78.2778 208.11 77.2995C208.11 76.3213 208.289 75.4591 208.645 74.713C209.006 73.9628 209.507 73.3783 210.15 72.9597C210.796 72.5369 211.551 72.3255 212.413 72.3255C212.91 72.3255 213.402 72.4084 213.887 72.5742C214.372 72.74 214.813 73.0094 215.211 73.3825C215.609 73.7514 215.926 74.2405 216.162 74.8498C216.398 75.4591 216.517 76.2094 216.517 77.1006V77.7223H209.155V76.4539H215.024C215.024 75.9151 214.917 75.4343 214.701 75.0115C214.49 74.5887 214.187 74.255 213.793 74.0104C213.404 73.7659 212.944 73.6436 212.413 73.6436C211.829 73.6436 211.323 73.7887 210.896 74.0788C210.473 74.3648 210.148 74.7379 209.92 75.198C209.692 75.6581 209.578 76.1514 209.578 76.6778V77.5234C209.578 78.2446 209.702 78.856 209.951 79.3575C210.204 79.8549 210.554 80.2342 211.002 80.4954C211.449 80.7523 211.969 80.8808 212.562 80.8808C212.948 80.8808 213.296 80.827 213.607 80.7192C213.922 80.6073 214.193 80.4415 214.421 80.2218C214.649 79.9979 214.825 79.7202 214.95 79.3886L216.367 79.7866C216.218 80.2674 215.967 80.6902 215.615 81.0549C215.263 81.4156 214.827 81.6974 214.309 81.9005C213.791 82.0995 213.209 82.199 212.562 82.199ZM223.673 85.5813V72.4498H225.091V73.9669H225.265C225.372 73.8011 225.522 73.5897 225.712 73.3327C225.907 73.0716 226.185 72.8395 226.545 72.6364C226.91 72.4291 227.403 72.3255 228.025 72.3255C228.829 72.3255 229.538 72.5265 230.152 72.9286C230.765 73.3307 231.244 73.9006 231.588 74.6384C231.932 75.3762 232.104 76.2467 232.104 77.2498C232.104 78.2612 231.932 79.1379 231.588 79.8798C231.244 80.6176 230.767 81.1896 230.158 81.5959C229.549 81.9979 228.846 82.199 228.05 82.199C227.437 82.199 226.945 82.0974 226.577 81.8943C226.208 81.687 225.924 81.4529 225.725 81.1917C225.526 80.9264 225.372 80.7067 225.265 80.5327H225.14V85.5813H223.673ZM225.115 77.2249C225.115 77.9462 225.221 78.5824 225.433 79.1337C225.644 79.6809 225.953 80.1099 226.359 80.4207C226.765 80.7275 227.263 80.8808 227.851 80.8808C228.465 80.8808 228.977 80.7192 229.387 80.3959C229.801 80.0684 230.112 79.629 230.32 79.0778C230.531 78.5223 230.637 77.9047 230.637 77.2249C230.637 76.5534 230.533 75.9483 230.326 75.4094C230.123 74.8664 229.814 74.4374 229.399 74.1224C228.989 73.8032 228.473 73.6436 227.851 73.6436C227.254 73.6436 226.753 73.7949 226.347 74.0975C225.94 74.3959 225.634 74.8146 225.426 75.3534C225.219 75.8881 225.115 76.512 225.115 77.2249ZM238.222 82.199C237.36 82.199 236.603 81.9938 235.953 81.5834C235.306 81.1731 234.8 80.599 234.436 79.8612C234.075 79.1233 233.895 78.2612 233.895 77.2747C233.895 76.2799 234.075 75.4115 234.436 74.6695C234.8 73.9275 235.306 73.3514 235.953 72.941C236.603 72.5307 237.36 72.3255 238.222 72.3255C239.084 72.3255 239.839 72.5307 240.485 72.941C241.136 73.3514 241.642 73.9275 242.002 74.6695C242.367 75.4115 242.549 76.2799 242.549 77.2747C242.549 78.2612 242.367 79.1233 242.002 79.8612C241.642 80.599 241.136 81.1731 240.485 81.5834C239.839 81.9938 239.084 82.199 238.222 82.199ZM238.222 80.8808C238.877 80.8808 239.416 80.713 239.839 80.3772C240.261 80.0415 240.574 79.6 240.777 79.0529C240.981 78.5057 241.082 77.913 241.082 77.2747C241.082 76.6363 240.981 76.0415 240.777 75.4902C240.574 74.9389 240.261 74.4933 239.839 74.1535C239.416 73.8136 238.877 73.6436 238.222 73.6436C237.567 73.6436 237.028 73.8136 236.605 74.1535C236.183 74.4933 235.87 74.9389 235.667 75.4902C235.464 76.0415 235.362 76.6363 235.362 77.2747C235.362 77.913 235.464 78.5057 235.667 79.0529C235.87 79.6 236.183 80.0415 236.605 80.3772C237.028 80.713 237.567 80.8808 238.222 80.8808ZM244.789 82V72.4498H246.257V82H244.789ZM245.535 70.8582C245.249 70.8582 245.003 70.7607 244.796 70.5659C244.592 70.3711 244.491 70.1369 244.491 69.8633C244.491 69.5898 244.592 69.3556 244.796 69.1608C245.003 68.9659 245.249 68.8685 245.535 68.8685C245.821 68.8685 246.066 68.9659 246.269 69.1608C246.476 69.3556 246.58 69.5898 246.58 69.8633C246.58 70.1369 246.476 70.3711 246.269 70.5659C246.066 70.7607 245.821 70.8582 245.535 70.8582ZM250.412 76.255V82H248.944V72.4498H250.362V73.9421H250.486C250.71 73.4571 251.05 73.0675 251.506 72.7732C251.962 72.4747 252.55 72.3255 253.272 72.3255C253.918 72.3255 254.484 72.4581 254.969 72.7234C255.454 72.9846 255.831 73.3825 256.101 73.9172C256.37 74.4477 256.505 75.1192 256.505 75.9317V82H255.037V76.0312C255.037 75.2809 254.843 74.6965 254.453 74.2778C254.063 73.855 253.529 73.6436 252.849 73.6436C252.38 73.6436 251.962 73.7452 251.593 73.9483C251.228 74.1514 250.94 74.4477 250.729 74.8374C250.517 75.227 250.412 75.6995 250.412 76.255ZM263.339 72.4498V73.6934H258.39V72.4498H263.339ZM259.833 70.1618H261.3V79.2643C261.3 79.6788 261.36 79.9897 261.48 80.1969C261.605 80.4 261.762 80.5368 261.953 80.6073C262.148 80.6736 262.353 80.7067 262.568 80.7067C262.73 80.7067 262.863 80.6985 262.966 80.6819C263.07 80.6612 263.153 80.6446 263.215 80.6321L263.513 81.9503C263.414 81.9876 263.275 82.0249 263.097 82.0622C262.919 82.1036 262.693 82.1244 262.419 82.1244C262.005 82.1244 261.598 82.0352 261.201 81.857C260.807 81.6788 260.479 81.4073 260.218 81.0425C259.961 80.6777 259.833 80.2176 259.833 79.6622V70.1618ZM274.475 82.199C273.555 82.199 272.761 81.9959 272.094 81.5896C271.43 81.1793 270.919 80.6073 270.558 79.8736C270.201 79.1358 270.023 78.2778 270.023 77.2995C270.023 76.3213 270.201 75.4591 270.558 74.713C270.919 73.9628 271.42 73.3783 272.063 72.9597C272.709 72.5369 273.464 72.3255 274.326 72.3255C274.823 72.3255 275.314 72.4084 275.799 72.5742C276.284 72.74 276.726 73.0094 277.124 73.3825C277.522 73.7514 277.839 74.2405 278.075 74.8498C278.311 75.4591 278.429 76.2094 278.429 77.1006V77.7223H271.068V76.4539H276.937C276.937 75.9151 276.829 75.4343 276.614 75.0115C276.402 74.5887 276.1 74.255 275.706 74.0104C275.316 73.7659 274.856 73.6436 274.326 73.6436C273.741 73.6436 273.236 73.7887 272.809 74.0788C272.386 74.3648 272.061 74.7379 271.833 75.198C271.605 75.6581 271.491 76.1514 271.491 76.6778V77.5234C271.491 78.2446 271.615 78.856 271.864 79.3575C272.116 79.8549 272.467 80.2342 272.914 80.4954C273.362 80.7523 273.882 80.8808 274.475 80.8808C274.86 80.8808 275.209 80.827 275.52 80.7192C275.835 80.6073 276.106 80.4415 276.334 80.2218C276.562 79.9979 276.738 79.7202 276.863 79.3886L278.28 79.7866C278.131 80.2674 277.88 80.6902 277.528 81.0549C277.175 81.4156 276.74 81.6974 276.222 81.9005C275.704 82.0995 275.122 82.199 274.475 82.199ZM280.661 82V72.4498H282.079V73.9421H282.203C282.402 73.4322 282.724 73.0364 283.167 72.7545C283.611 72.4685 284.143 72.3255 284.765 72.3255C285.395 72.3255 285.919 72.4685 286.338 72.7545C286.761 73.0364 287.09 73.4322 287.327 73.9421H287.426C287.671 73.4488 288.038 73.0571 288.527 72.7669C289.016 72.4726 289.602 72.3255 290.286 72.3255C291.14 72.3255 291.839 72.5928 292.382 73.1276C292.925 73.6581 293.196 74.4851 293.196 75.6084V82H291.729V75.6084C291.729 74.9037 291.536 74.4001 291.15 74.0975C290.765 73.7949 290.311 73.6436 289.789 73.6436C289.117 73.6436 288.597 73.8467 288.228 74.2529C287.859 74.655 287.675 75.1648 287.675 75.7825V82H286.183V75.4591C286.183 74.9161 286.006 74.4788 285.654 74.1472C285.302 73.8115 284.848 73.6436 284.293 73.6436C283.911 73.6436 283.555 73.7452 283.223 73.9483C282.896 74.1514 282.63 74.4332 282.427 74.7939C282.228 75.1503 282.129 75.5628 282.129 76.0312V82H280.661ZM296.078 82V69.2665H297.545V73.9669H297.67C297.777 73.8011 297.927 73.5897 298.117 73.3327C298.312 73.0716 298.59 72.8395 298.95 72.6364C299.315 72.4291 299.808 72.3255 300.43 72.3255C301.234 72.3255 301.943 72.5265 302.557 72.9286C303.17 73.3307 303.649 73.9006 303.993 74.6384C304.337 75.3762 304.509 76.2467 304.509 77.2498C304.509 78.2612 304.337 79.1379 303.993 79.8798C303.649 80.6176 303.172 81.1896 302.563 81.5959C301.953 81.9979 301.251 82.199 300.455 82.199C299.842 82.199 299.35 82.0974 298.981 81.8943C298.613 81.687 298.329 81.4529 298.13 81.1917C297.931 80.9264 297.777 80.7067 297.67 80.5327H297.495V82H296.078ZM297.52 77.2249C297.52 77.9462 297.626 78.5824 297.837 79.1337C298.049 79.6809 298.358 80.1099 298.764 80.4207C299.17 80.7275 299.667 80.8808 300.256 80.8808C300.87 80.8808 301.381 80.7192 301.792 80.3959C302.206 80.0684 302.517 79.629 302.724 79.0778C302.936 78.5223 303.042 77.9047 303.042 77.2249C303.042 76.5534 302.938 75.9483 302.731 75.4094C302.528 74.8664 302.219 74.4374 301.804 74.1224C301.394 73.8032 300.878 73.6436 300.256 73.6436C299.659 73.6436 299.158 73.7949 298.751 74.0975C298.345 74.3959 298.038 74.8146 297.831 75.3534C297.624 75.8881 297.52 76.512 297.52 77.2249ZM310.758 82.199C309.837 82.199 309.044 81.9959 308.376 81.5896C307.713 81.1793 307.201 80.6073 306.84 79.8736C306.484 79.1358 306.306 78.2778 306.306 77.2995C306.306 76.3213 306.484 75.4591 306.84 74.713C307.201 73.9628 307.703 73.3783 308.345 72.9597C308.992 72.5369 309.746 72.3255 310.608 72.3255C311.106 72.3255 311.597 72.4084 312.082 72.5742C312.567 72.74 313.008 73.0094 313.406 73.3825C313.804 73.7514 314.121 74.2405 314.357 74.8498C314.594 75.4591 314.712 76.2094 314.712 77.1006V77.7223H307.35V76.4539H313.22C313.22 75.9151 313.112 75.4343 312.896 75.0115C312.685 74.5887 312.382 74.255 311.989 74.0104C311.599 73.7659 311.139 73.6436 310.608 73.6436C310.024 73.6436 309.518 73.7887 309.091 74.0788C308.668 74.3648 308.343 74.7379 308.115 75.198C307.887 75.6581 307.773 76.1514 307.773 76.6778V77.5234C307.773 78.2446 307.897 78.856 308.146 79.3575C308.399 79.8549 308.749 80.2342 309.197 80.4954C309.645 80.7523 310.165 80.8808 310.758 80.8808C311.143 80.8808 311.491 80.827 311.802 80.7192C312.117 80.6073 312.389 80.4415 312.617 80.2218C312.845 79.9979 313.021 79.7202 313.145 79.3886L314.563 79.7866C314.413 80.2674 314.163 80.6902 313.81 81.0549C313.458 81.4156 313.023 81.6974 312.505 81.9005C311.987 82.0995 311.404 82.199 310.758 82.199ZM320.55 82.199C319.754 82.199 319.052 81.9979 318.442 81.5959C317.833 81.1896 317.356 80.6176 317.012 79.8798C316.668 79.1379 316.496 78.2612 316.496 77.2498C316.496 76.2467 316.668 75.3762 317.012 74.6384C317.356 73.9006 317.835 73.3307 318.449 72.9286C319.062 72.5265 319.771 72.3255 320.575 72.3255C321.197 72.3255 321.688 72.4291 322.049 72.6364C322.413 72.8395 322.691 73.0716 322.882 73.3327C323.077 73.5897 323.228 73.8011 323.336 73.9669H323.46V69.2665H324.927V82H323.51V80.5327H323.336C323.228 80.7067 323.074 80.9264 322.876 81.1917C322.677 81.4529 322.393 81.687 322.024 81.8943C321.655 82.0974 321.164 82.199 320.55 82.199ZM320.749 80.8808C321.338 80.8808 321.835 80.7275 322.241 80.4207C322.648 80.1099 322.956 79.6809 323.168 79.1337C323.379 78.5824 323.485 77.9462 323.485 77.2249C323.485 76.512 323.381 75.8881 323.174 75.3534C322.967 74.8146 322.66 74.3959 322.254 74.0975C321.848 73.7949 321.346 73.6436 320.749 73.6436C320.127 73.6436 319.609 73.8032 319.195 74.1224C318.784 74.4374 318.476 74.8664 318.268 75.4094C318.065 75.9483 317.964 76.5534 317.964 77.2249C317.964 77.9047 318.067 78.5223 318.275 79.0778C318.486 79.629 318.797 80.0684 319.207 80.3959C319.622 80.7192 320.136 80.8808 320.749 80.8808ZM331.425 82.199C330.629 82.199 329.926 81.9979 329.317 81.5959C328.708 81.1896 328.231 80.6176 327.887 79.8798C327.543 79.1379 327.371 78.2612 327.371 77.2498C327.371 76.2467 327.543 75.3762 327.887 74.6384C328.231 73.9006 328.71 73.3307 329.323 72.9286C329.937 72.5265 330.645 72.3255 331.45 72.3255C332.071 72.3255 332.562 72.4291 332.923 72.6364C333.288 72.8395 333.566 73.0716 333.756 73.3327C333.951 73.5897 334.102 73.8011 334.21 73.9669H334.334V69.2665H335.802V82H334.384V80.5327H334.21C334.102 80.7067 333.949 80.9264 333.75 81.1917C333.551 81.4529 333.267 81.687 332.898 81.8943C332.529 82.0974 332.038 82.199 331.425 82.199ZM331.624 80.8808C332.212 80.8808 332.71 80.7275 333.116 80.4207C333.522 80.1099 333.831 79.6809 334.042 79.1337C334.254 78.5824 334.359 77.9462 334.359 77.2249C334.359 76.512 334.256 75.8881 334.048 75.3534C333.841 74.8146 333.534 74.3959 333.128 74.0975C332.722 73.7949 332.22 73.6436 331.624 73.6436C331.002 73.6436 330.484 73.8032 330.069 74.1224C329.659 74.4374 329.35 74.8664 329.143 75.4094C328.94 75.9483 328.838 76.5534 328.838 77.2249C328.838 77.9047 328.942 78.5223 329.149 79.0778C329.36 79.629 329.671 80.0684 330.082 80.3959C330.496 80.7192 331.01 80.8808 331.624 80.8808ZM338.693 82V72.4498H340.16V82H338.693ZM339.439 70.8582C339.153 70.8582 338.906 70.7607 338.699 70.5659C338.496 70.3711 338.395 70.1369 338.395 69.8633C338.395 69.5898 338.496 69.3556 338.699 69.1608C338.906 68.9659 339.153 68.8685 339.439 68.8685C339.725 68.8685 339.97 68.9659 340.173 69.1608C340.38 69.3556 340.484 69.5898 340.484 69.8633C340.484 70.1369 340.38 70.3711 340.173 70.5659C339.97 70.7607 339.725 70.8582 339.439 70.8582ZM344.315 76.255V82H342.848V72.4498H344.265V73.9421H344.39C344.614 73.4571 344.954 73.0675 345.409 72.7732C345.865 72.4747 346.454 72.3255 347.175 72.3255C347.822 72.3255 348.388 72.4581 348.873 72.7234C349.358 72.9846 349.735 73.3825 350.004 73.9172C350.274 74.4477 350.408 75.1192 350.408 75.9317V82H348.941V76.0312C348.941 75.2809 348.746 74.6965 348.357 74.2778C347.967 73.855 347.432 73.6436 346.752 73.6436C346.284 73.6436 345.865 73.7452 345.497 73.9483C345.132 74.1514 344.844 74.4477 344.632 74.8374C344.421 75.227 344.315 75.6995 344.315 76.255ZM356.945 85.7803C356.236 85.7803 355.626 85.6891 355.117 85.5067C354.607 85.3285 354.182 85.0922 353.842 84.7979C353.506 84.5077 353.239 84.1969 353.04 83.8653L354.209 83.0445C354.341 83.2186 354.509 83.4176 354.712 83.6414C354.916 83.8694 355.193 84.0663 355.546 84.2321C355.902 84.402 356.368 84.487 356.945 84.487C357.716 84.487 358.352 84.3005 358.853 83.9274C359.355 83.5544 359.606 82.9699 359.606 82.1741V80.2342H359.481C359.374 80.4083 359.22 80.6238 359.021 80.8808C358.826 81.1337 358.545 81.3596 358.176 81.5586C357.811 81.7534 357.318 81.8508 356.696 81.8508C355.925 81.8508 355.233 81.6684 354.619 81.3036C354.01 80.9389 353.527 80.4083 353.171 79.7119C352.818 79.0156 352.642 78.17 352.642 77.1752C352.642 76.197 352.814 75.3451 353.158 74.6198C353.502 73.8902 353.981 73.3265 354.594 72.9286C355.208 72.5265 355.917 72.3255 356.721 72.3255C357.342 72.3255 357.836 72.4291 358.201 72.6364C358.569 72.8395 358.851 73.0716 359.046 73.3327C359.245 73.5897 359.398 73.8011 359.506 73.9669H359.655V72.4498H361.073V82.2736C361.073 83.0943 360.887 83.7616 360.513 84.2756C360.145 84.7938 359.647 85.173 359.021 85.4134C358.399 85.658 357.707 85.7803 356.945 85.7803ZM356.895 80.5327C357.483 80.5327 357.981 80.3979 358.387 80.1285C358.793 79.8591 359.102 79.4715 359.313 78.9658C359.525 78.4601 359.631 77.855 359.631 77.1503C359.631 76.4622 359.527 75.855 359.32 75.3286C359.112 74.8022 358.806 74.3897 358.399 74.0913C357.993 73.7928 357.492 73.6436 356.895 73.6436C356.273 73.6436 355.755 73.8011 355.34 74.1161C354.93 74.4312 354.621 74.854 354.414 75.3845C354.211 75.9151 354.109 76.5037 354.109 77.1503C354.109 77.8135 354.213 78.4 354.42 78.9099C354.632 79.4156 354.943 79.8135 355.353 80.1036C355.767 80.3897 356.281 80.5327 356.895 80.5327Z" fill="black"/>
<g filter="url(#filter2_d_21_199)">
<rect x="458" y="350" width="140.069" height="163.224" rx="5.83621" fill="white"/>
</g>
<path d="M489.542 427V414.266H493.844C494.843 414.266 495.66 414.447 496.294 414.807C496.933 415.164 497.405 415.647 497.712 416.256C498.019 416.865 498.172 417.545 498.172 418.295C498.172 419.046 498.019 419.728 497.712 420.341C497.409 420.954 496.941 421.444 496.307 421.808C495.672 422.169 494.86 422.349 493.869 422.349H490.785V420.981H493.82C494.504 420.981 495.053 420.863 495.467 420.627C495.882 420.391 496.182 420.072 496.369 419.67C496.559 419.263 496.655 418.805 496.655 418.295C496.655 417.786 496.559 417.33 496.369 416.928C496.182 416.526 495.88 416.21 495.461 415.983C495.042 415.75 494.487 415.634 493.795 415.634H491.084V427H489.542ZM504.234 427.199C503.372 427.199 502.615 426.994 501.965 426.583C501.318 426.173 500.812 425.599 500.448 424.861C500.087 424.123 499.907 423.261 499.907 422.275C499.907 421.28 500.087 420.411 500.448 419.67C500.812 418.928 501.318 418.351 501.965 417.941C502.615 417.531 503.372 417.325 504.234 417.325C505.096 417.325 505.851 417.531 506.497 417.941C507.148 418.351 507.654 418.928 508.014 419.67C508.379 420.411 508.561 421.28 508.561 422.275C508.561 423.261 508.379 424.123 508.014 424.861C507.654 425.599 507.148 426.173 506.497 426.583C505.851 426.994 505.096 427.199 504.234 427.199ZM504.234 425.881C504.889 425.881 505.428 425.713 505.851 425.377C506.273 425.041 506.586 424.6 506.789 424.053C506.993 423.506 507.094 422.913 507.094 422.275C507.094 421.636 506.993 421.042 506.789 420.49C506.586 419.939 506.273 419.493 505.851 419.153C505.428 418.814 504.889 418.644 504.234 418.644C503.579 418.644 503.04 418.814 502.617 419.153C502.195 419.493 501.882 419.939 501.679 420.49C501.476 421.042 501.374 421.636 501.374 422.275C501.374 422.913 501.476 423.506 501.679 424.053C501.882 424.6 502.195 425.041 502.617 425.377C503.04 425.713 503.579 425.881 504.234 425.881ZM517.566 419.589L516.248 419.962C516.165 419.742 516.043 419.529 515.881 419.321C515.724 419.11 515.508 418.936 515.234 418.799C514.961 418.662 514.611 418.594 514.184 418.594C513.599 418.594 513.112 418.729 512.723 418.998C512.337 419.263 512.144 419.601 512.144 420.011C512.144 420.376 512.277 420.664 512.542 420.876C512.808 421.087 513.222 421.263 513.786 421.404L515.203 421.752C516.057 421.96 516.693 422.277 517.112 422.704C517.531 423.126 517.74 423.672 517.74 424.339C517.74 424.886 517.583 425.375 517.268 425.806C516.957 426.237 516.521 426.577 515.962 426.826C515.402 427.075 514.752 427.199 514.01 427.199C513.035 427.199 512.229 426.988 511.591 426.565C510.953 426.142 510.548 425.524 510.379 424.712L511.771 424.364C511.904 424.878 512.155 425.263 512.524 425.52C512.897 425.777 513.384 425.906 513.985 425.906C514.669 425.906 515.212 425.761 515.614 425.47C516.02 425.176 516.223 424.824 516.223 424.413C516.223 424.082 516.107 423.804 515.875 423.58C515.643 423.352 515.286 423.182 514.805 423.071L513.214 422.697C512.339 422.49 511.697 422.169 511.286 421.734C510.88 421.294 510.677 420.745 510.677 420.086C510.677 419.547 510.828 419.071 511.131 418.656C511.438 418.242 511.854 417.916 512.381 417.68C512.911 417.444 513.512 417.325 514.184 417.325C515.129 417.325 515.871 417.533 516.41 417.947C516.953 418.362 517.338 418.909 517.566 419.589ZM519.949 427V417.45H521.416V427H519.949ZM520.695 415.858C520.409 415.858 520.162 415.761 519.955 415.566C519.752 415.371 519.65 415.137 519.65 414.863C519.65 414.59 519.752 414.356 519.955 414.161C520.162 413.966 520.409 413.869 520.695 413.869C520.981 413.869 521.226 413.966 521.429 414.161C521.636 414.356 521.74 414.59 521.74 414.863C521.74 415.137 521.636 415.371 521.429 415.566C521.226 415.761 520.981 415.858 520.695 415.858ZM528.257 417.45V418.693H523.308V417.45H528.257ZM524.75 415.162H526.218V424.264C526.218 424.679 526.278 424.99 526.398 425.197C526.522 425.4 526.68 425.537 526.871 425.607C527.065 425.674 527.271 425.707 527.486 425.707C527.648 425.707 527.78 425.698 527.884 425.682C527.988 425.661 528.071 425.645 528.133 425.632L528.431 426.95C528.332 426.988 528.193 427.025 528.015 427.062C527.836 427.104 527.61 427.124 527.337 427.124C526.922 427.124 526.516 427.035 526.118 426.857C525.724 426.679 525.397 426.407 525.136 426.042C524.879 425.678 524.75 425.218 524.75 424.662V415.162ZM530.464 427V417.45H531.932V427H530.464ZM531.21 415.858C530.924 415.858 530.678 415.761 530.471 415.566C530.267 415.371 530.166 415.137 530.166 414.863C530.166 414.59 530.267 414.356 530.471 414.161C530.678 413.966 530.924 413.869 531.21 413.869C531.496 413.869 531.741 413.966 531.944 414.161C532.151 414.356 532.255 414.59 532.255 414.863C532.255 415.137 532.151 415.371 531.944 415.566C531.741 415.761 531.496 415.858 531.21 415.858ZM538.499 427.199C537.637 427.199 536.88 426.994 536.23 426.583C535.583 426.173 535.077 425.599 534.712 424.861C534.352 424.123 534.172 423.261 534.172 422.275C534.172 421.28 534.352 420.411 534.712 419.67C535.077 418.928 535.583 418.351 536.23 417.941C536.88 417.531 537.637 417.325 538.499 417.325C539.361 417.325 540.116 417.531 540.762 417.941C541.413 418.351 541.919 418.928 542.279 419.67C542.644 420.411 542.826 421.28 542.826 422.275C542.826 423.261 542.644 424.123 542.279 424.861C541.919 425.599 541.413 426.173 540.762 426.583C540.116 426.994 539.361 427.199 538.499 427.199ZM538.499 425.881C539.154 425.881 539.693 425.713 540.115 425.377C540.538 425.041 540.851 424.6 541.054 424.053C541.257 423.506 541.359 422.913 541.359 422.275C541.359 421.636 541.257 421.042 541.054 420.49C540.851 419.939 540.538 419.493 540.115 419.153C539.693 418.814 539.154 418.644 538.499 418.644C537.844 418.644 537.305 418.814 536.882 419.153C536.46 419.493 536.147 419.939 535.944 420.49C535.74 421.042 535.639 421.636 535.639 422.275C535.639 422.913 535.74 423.506 535.944 424.053C536.147 424.6 536.46 425.041 536.882 425.377C537.305 425.713 537.844 425.881 538.499 425.881ZM546.534 421.255V427H545.066V417.45H546.484V418.942H546.608C546.832 418.457 547.172 418.067 547.628 417.773C548.084 417.475 548.672 417.325 549.394 417.325C550.04 417.325 550.606 417.458 551.091 417.723C551.576 417.985 551.953 418.382 552.223 418.917C552.492 419.448 552.627 420.119 552.627 420.932V427H551.159V421.031C551.159 420.281 550.965 419.696 550.575 419.278C550.185 418.855 549.651 418.644 548.971 418.644C548.502 418.644 548.084 418.745 547.715 418.948C547.35 419.151 547.062 419.448 546.851 419.837C546.639 420.227 546.534 420.7 546.534 421.255ZM558.118 427.224C557.513 427.224 556.964 427.11 556.471 426.882C555.978 426.65 555.586 426.316 555.296 425.881C555.005 425.441 554.86 424.911 554.86 424.289C554.86 423.742 554.968 423.298 555.184 422.959C555.399 422.615 555.687 422.345 556.048 422.15C556.409 421.955 556.807 421.81 557.242 421.715C557.681 421.616 558.123 421.537 558.566 421.479C559.146 421.404 559.617 421.348 559.977 421.311C560.342 421.269 560.608 421.201 560.773 421.106C560.943 421.01 561.028 420.845 561.028 420.608V420.559C561.028 419.945 560.86 419.468 560.525 419.129C560.193 418.789 559.689 418.619 559.014 418.619C558.313 418.619 557.764 418.772 557.366 419.079C556.968 419.386 556.688 419.713 556.527 420.061L555.134 419.564C555.383 418.984 555.714 418.532 556.129 418.208C556.547 417.881 557.003 417.653 557.497 417.524C557.994 417.392 558.483 417.325 558.964 417.325C559.271 417.325 559.623 417.363 560.021 417.437C560.423 417.508 560.811 417.655 561.184 417.879C561.561 418.103 561.874 418.441 562.123 418.892C562.371 419.344 562.496 419.949 562.496 420.708V427H561.028V425.707H560.954C560.854 425.914 560.688 426.136 560.456 426.372C560.224 426.608 559.915 426.809 559.53 426.975C559.144 427.141 558.674 427.224 558.118 427.224ZM558.342 425.906C558.923 425.906 559.412 425.792 559.81 425.564C560.212 425.336 560.514 425.041 560.717 424.681C560.925 424.32 561.028 423.941 561.028 423.543V422.2C560.966 422.275 560.829 422.343 560.618 422.405C560.411 422.463 560.17 422.515 559.897 422.561C559.627 422.602 559.364 422.639 559.107 422.673C558.854 422.702 558.649 422.726 558.491 422.747C558.11 422.797 557.754 422.878 557.422 422.99C557.095 423.097 556.829 423.261 556.626 423.481C556.427 423.696 556.328 423.991 556.328 424.364C556.328 424.874 556.516 425.259 556.894 425.52C557.275 425.777 557.758 425.906 558.342 425.906ZM566.641 414.266V427H565.174V414.266H566.641ZM493.347 448.199C492.427 448.199 491.633 447.996 490.966 447.59C490.303 447.179 489.791 446.607 489.43 445.874C489.074 445.136 488.895 444.278 488.895 443.3C488.895 442.321 489.074 441.459 489.43 440.713C489.791 439.963 490.292 439.378 490.935 438.96C491.581 438.537 492.336 438.325 493.198 438.325C493.695 438.325 494.186 438.408 494.671 438.574C495.156 438.74 495.598 439.009 495.996 439.382C496.394 439.751 496.711 440.24 496.947 440.85C497.183 441.459 497.301 442.209 497.301 443.101V443.722H489.94V442.454H495.809C495.809 441.915 495.701 441.434 495.486 441.011C495.275 440.589 494.972 440.255 494.578 440.01C494.189 439.766 493.728 439.644 493.198 439.644C492.613 439.644 492.108 439.789 491.681 440.079C491.258 440.365 490.933 440.738 490.705 441.198C490.477 441.658 490.363 442.151 490.363 442.678V443.523C490.363 444.245 490.487 444.856 490.736 445.358C490.989 445.855 491.339 446.234 491.786 446.495C492.234 446.752 492.754 446.881 493.347 446.881C493.733 446.881 494.081 446.827 494.392 446.719C494.707 446.607 494.978 446.441 495.206 446.222C495.434 445.998 495.61 445.72 495.735 445.389L497.152 445.787C497.003 446.267 496.752 446.69 496.4 447.055C496.048 447.416 495.612 447.697 495.094 447.901C494.576 448.099 493.994 448.199 493.347 448.199ZM501.001 442.255V448H499.534V438.45H500.951V439.942H501.076C501.299 439.457 501.639 439.067 502.095 438.773C502.551 438.475 503.14 438.325 503.861 438.325C504.508 438.325 505.073 438.458 505.558 438.723C506.043 438.985 506.421 439.382 506.69 439.917C506.959 440.448 507.094 441.119 507.094 441.932V448H505.627V442.031C505.627 441.281 505.432 440.696 505.042 440.278C504.653 439.855 504.118 439.644 503.438 439.644C502.97 439.644 502.551 439.745 502.182 439.948C501.817 440.151 501.529 440.448 501.318 440.837C501.107 441.227 501.001 441.7 501.001 442.255ZM513.655 448.199C512.76 448.199 511.989 447.988 511.342 447.565C510.696 447.142 510.198 446.56 509.85 445.818C509.502 445.076 509.328 444.228 509.328 443.275C509.328 442.305 509.506 441.449 509.862 440.707C510.223 439.961 510.725 439.378 511.367 438.96C512.014 438.537 512.768 438.325 513.63 438.325C514.302 438.325 514.907 438.45 515.446 438.699C515.985 438.947 516.426 439.295 516.77 439.743C517.114 440.191 517.328 440.713 517.411 441.31H515.943C515.831 440.875 515.583 440.489 515.197 440.153C514.816 439.814 514.302 439.644 513.655 439.644C513.083 439.644 512.582 439.793 512.151 440.091C511.724 440.386 511.39 440.802 511.149 441.341C510.913 441.876 510.795 442.504 510.795 443.225C510.795 443.963 510.911 444.605 511.143 445.152C511.38 445.7 511.711 446.124 512.138 446.427C512.569 446.73 513.075 446.881 513.655 446.881C514.037 446.881 514.383 446.815 514.693 446.682C515.004 446.549 515.268 446.359 515.483 446.11C515.699 445.861 515.852 445.563 515.943 445.215H517.411C517.328 445.778 517.122 446.286 516.795 446.738C516.472 447.186 516.043 447.542 515.508 447.807C514.977 448.068 514.36 448.199 513.655 448.199ZM523.435 448.199C522.573 448.199 521.817 447.994 521.166 447.583C520.519 447.173 520.014 446.599 519.649 445.861C519.288 445.123 519.108 444.261 519.108 443.275C519.108 442.28 519.288 441.411 519.649 440.67C520.014 439.928 520.519 439.351 521.166 438.941C521.817 438.531 522.573 438.325 523.435 438.325C524.298 438.325 525.052 438.531 525.699 438.941C526.349 439.351 526.855 439.928 527.216 440.67C527.58 441.411 527.763 442.28 527.763 443.275C527.763 444.261 527.58 445.123 527.216 445.861C526.855 446.599 526.349 447.173 525.699 447.583C525.052 447.994 524.298 448.199 523.435 448.199ZM523.435 446.881C524.09 446.881 524.629 446.713 525.052 446.377C525.475 446.041 525.788 445.6 525.991 445.053C526.194 444.506 526.295 443.913 526.295 443.275C526.295 442.636 526.194 442.042 525.991 441.49C525.788 440.939 525.475 440.493 525.052 440.153C524.629 439.814 524.09 439.644 523.435 439.644C522.78 439.644 522.242 439.814 521.819 440.153C521.396 440.493 521.083 440.939 520.88 441.49C520.677 442.042 520.575 442.636 520.575 443.275C520.575 443.913 520.677 444.506 520.88 445.053C521.083 445.6 521.396 446.041 521.819 446.377C522.242 446.713 522.78 446.881 523.435 446.881ZM533.609 448.199C532.813 448.199 532.11 447.998 531.501 447.596C530.892 447.19 530.415 446.618 530.071 445.88C529.727 445.138 529.555 444.261 529.555 443.25C529.555 442.247 529.727 441.376 530.071 440.638C530.415 439.901 530.894 439.331 531.507 438.929C532.121 438.527 532.83 438.325 533.634 438.325C534.255 438.325 534.747 438.429 535.107 438.636C535.472 438.839 535.75 439.072 535.94 439.333C536.135 439.59 536.287 439.801 536.394 439.967H536.519V435.266H537.986V448H536.568V446.533H536.394C536.287 446.707 536.133 446.926 535.934 447.192C535.735 447.453 535.451 447.687 535.082 447.894C534.713 448.097 534.222 448.199 533.609 448.199ZM533.808 446.881C534.396 446.881 534.894 446.727 535.3 446.421C535.706 446.11 536.015 445.681 536.226 445.134C536.438 444.582 536.544 443.946 536.544 443.225C536.544 442.512 536.44 441.888 536.233 441.353C536.025 440.815 535.719 440.396 535.312 440.097C534.906 439.795 534.405 439.644 533.808 439.644C533.186 439.644 532.668 439.803 532.253 440.122C531.843 440.437 531.534 440.866 531.327 441.409C531.124 441.948 531.022 442.553 531.022 443.225C531.022 443.905 531.126 444.522 531.333 445.078C531.545 445.629 531.855 446.068 532.266 446.396C532.68 446.719 533.194 446.881 533.808 446.881ZM540.877 448V438.45H542.344V448H540.877ZM541.623 436.858C541.337 436.858 541.091 436.761 540.883 436.566C540.68 436.371 540.579 436.137 540.579 435.863C540.579 435.59 540.68 435.356 540.883 435.161C541.091 434.966 541.337 434.869 541.623 434.869C541.909 434.869 542.154 434.966 542.357 435.161C542.564 435.356 542.668 435.59 542.668 435.863C542.668 436.137 542.564 436.371 542.357 436.566C542.154 436.761 541.909 436.858 541.623 436.858ZM546.499 442.255V448H545.032V438.45H546.45V439.942H546.574C546.798 439.457 547.138 439.067 547.594 438.773C548.05 438.475 548.638 438.325 549.359 438.325C550.006 438.325 550.572 438.458 551.057 438.723C551.542 438.985 551.919 439.382 552.188 439.917C552.458 440.448 552.593 441.119 552.593 441.932V448H551.125V442.031C551.125 441.281 550.93 440.696 550.541 440.278C550.151 439.855 549.616 439.644 548.937 439.644C548.468 439.644 548.05 439.745 547.681 439.948C547.316 440.151 547.028 440.448 546.816 440.837C546.605 441.227 546.499 441.7 546.499 442.255ZM559.129 451.78C558.42 451.78 557.811 451.689 557.301 451.507C556.791 451.328 556.366 451.092 556.026 450.798C555.69 450.508 555.423 450.197 555.224 449.865L556.393 449.045C556.526 449.219 556.694 449.418 556.897 449.641C557.1 449.869 557.377 450.066 557.73 450.232C558.086 450.402 558.553 450.487 559.129 450.487C559.9 450.487 560.536 450.3 561.038 449.927C561.539 449.554 561.79 448.97 561.79 448.174V446.234H561.666C561.558 446.408 561.404 446.624 561.205 446.881C561.011 447.134 560.729 447.36 560.36 447.559C559.995 447.753 559.502 447.851 558.88 447.851C558.109 447.851 557.417 447.668 556.803 447.304C556.194 446.939 555.711 446.408 555.355 445.712C555.002 445.016 554.826 444.17 554.826 443.175C554.826 442.197 554.998 441.345 555.342 440.62C555.686 439.89 556.165 439.327 556.779 438.929C557.392 438.527 558.101 438.325 558.905 438.325C559.527 438.325 560.02 438.429 560.385 438.636C560.754 438.839 561.035 439.072 561.23 439.333C561.429 439.59 561.583 439.801 561.69 439.967H561.84V438.45H563.257V448.274C563.257 449.094 563.071 449.762 562.698 450.276C562.329 450.794 561.831 451.173 561.205 451.413C560.584 451.658 559.891 451.78 559.129 451.78ZM559.079 446.533C559.668 446.533 560.165 446.398 560.571 446.129C560.977 445.859 561.286 445.472 561.498 444.966C561.709 444.46 561.815 443.855 561.815 443.15C561.815 442.462 561.711 441.855 561.504 441.329C561.297 440.802 560.99 440.39 560.584 440.091C560.177 439.793 559.676 439.644 559.079 439.644C558.457 439.644 557.939 439.801 557.525 440.116C557.114 440.431 556.805 440.854 556.598 441.385C556.395 441.915 556.294 442.504 556.294 443.15C556.294 443.814 556.397 444.4 556.604 444.91C556.816 445.416 557.127 445.813 557.537 446.104C557.952 446.39 558.466 446.533 559.079 446.533Z" fill="black"/>
<g filter="url(#filter3_d_21_199)">
<circle cx="420.887" cy="244.779" r="16.7791" fill="white"/>
</g>
<path d="M420.887 235.948V253.61" stroke="black" stroke-width="1.45905"/>
<line x1="412.056" y1="244.05" x2="428.835" y2="244.05" stroke="black" stroke-width="1.45905"/>
<g filter="url(#filter4_d_21_199)">
<path d="M515.164 245L515.164 244.27H515.164L515.164 245ZM451.484 245.516C451.199 245.231 451.199 244.769 451.484 244.484L456.127 239.841C456.412 239.557 456.874 239.557 457.159 239.841C457.443 240.126 457.443 240.588 457.159 240.873L453.032 245L457.159 249.127C457.443 249.412 457.443 249.874 457.159 250.159C456.874 250.443 456.412 250.443 456.127 250.159L451.484 245.516ZM521 250.836L521.73 250.836V250.836L521 250.836ZM515.164 245.73L452 245.73L452 244.27L515.164 244.27L515.164 245.73ZM521.73 250.836L521.73 341L520.27 341L520.27 250.836L521.73 250.836ZM515.164 244.27C518.79 244.27 521.73 247.21 521.73 250.836L520.27 250.836C520.27 248.016 517.984 245.73 515.164 245.73L515.164 244.27Z" fill="#574E6A" fill-opacity="0.8"/>
</g>
<g filter="url(#filter5_d_21_199)">
<path d="M327.836 245L327.836 244.27H327.836L327.836 245ZM391.516 245.516C391.801 245.231 391.801 244.769 391.516 244.484L386.873 239.841C386.588 239.557 386.126 239.557 385.841 239.841C385.557 240.126 385.557 240.588 385.841 240.873L389.968 245L385.841 249.127C385.557 249.412 385.557 249.874 385.841 250.159C386.126 250.443 386.588 250.443 386.873 250.159L391.516 245.516ZM322 250.836L321.27 250.836V250.836L322 250.836ZM327.836 245.73L391 245.73L391 244.27L327.836 244.27L327.836 245.73ZM321.27 250.836L321.27 341L322.73 341L322.73 250.836L321.27 250.836ZM327.836 244.27C324.21 244.27 321.27 247.21 321.27 250.836L322.73 250.836C322.73 248.016 325.016 245.73 327.836 245.73L327.836 244.27Z" fill="#574E6A" fill-opacity="0.8"/>
</g>
<g filter="url(#filter6_d_21_199)">
<path d="M263.484 110.484C263.769 110.199 264.231 110.199 264.516 110.484L269.159 115.127C269.443 115.412 269.443 115.874 269.159 116.159C268.874 116.443 268.412 116.443 268.127 116.159L264 112.032L259.873 116.159C259.588 116.443 259.126 116.443 258.841 116.159C258.557 115.874 258.557 115.412 258.841 115.127L263.484 110.484ZM263.27 151L263.27 111L264.73 111L264.729 151L263.27 151Z" fill="#574E6A" fill-opacity="0.8"/>
</g>
<g filter="url(#filter7_d_21_199)">
<path d="M113.836 178L113.836 177.27L113.836 178ZM207.516 178.516C207.801 178.231 207.801 177.769 207.516 177.484L202.873 172.841C202.588 172.557 202.126 172.557 201.841 172.841C201.557 173.126 201.557 173.588 201.841 173.873L205.968 178L201.841 182.127C201.557 182.412 201.557 182.874 201.841 183.159C202.126 183.443 202.588 183.443 202.873 183.159L207.516 178.516ZM108 183.836L107.27 183.836L108 183.836ZM113.836 178.73L207 178.73L207 177.27L113.836 177.27L113.836 178.73ZM107.27 183.836L107.27 220.313L108.73 220.312L108.73 183.836L107.27 183.836ZM113.836 177.27C110.21 177.27 107.27 180.21 107.27 183.836L108.73 183.836C108.73 181.016 111.016 178.73 113.836 178.73L113.836 177.27Z" fill="#574E6A" fill-opacity="0.8"/>
</g>
<g filter="url(#filter8_d_21_199)">
<path d="M415.164 178L415.164 177.27L415.164 178ZM321.484 178.516C321.199 178.231 321.199 177.769 321.484 177.484L326.127 172.841C326.412 172.557 326.874 172.557 327.159 172.841C327.443 173.126 327.443 173.588 327.159 173.873L323.032 178L327.159 182.127C327.443 182.412 327.443 182.874 327.159 183.159C326.874 183.443 326.412 183.443 326.127 183.159L321.484 178.516ZM421 183.836L421.73 183.836L421 183.836ZM415.164 178.73L322 178.73L322 177.27L415.164 177.27L415.164 178.73ZM421.73 183.836L421.73 220.313L420.27 220.312L420.27 183.836L421.73 183.836ZM415.164 177.27C418.79 177.27 421.73 180.21 421.73 183.836L420.27 183.836C420.27 181.016 417.984 178.73 415.164 178.73L415.164 177.27Z" fill="#574E6A" fill-opacity="0.8"/>
</g>
<g filter="url(#filter9_d_21_199)">
<ellipse cx="264.69" cy="178.156" rx="46.6897" ry="21.1562" fill="white"/>
</g>
<path d="M240.731 184.412C239.836 184.412 239.065 184.201 238.418 183.778C237.772 183.355 237.274 182.773 236.926 182.031C236.578 181.289 236.404 180.441 236.404 179.488C236.404 178.518 236.582 177.662 236.939 176.92C237.299 176.174 237.801 175.592 238.443 175.173C239.09 174.75 239.844 174.539 240.706 174.539C241.378 174.539 241.983 174.663 242.522 174.912C243.061 175.161 243.502 175.509 243.846 175.956C244.19 176.404 244.404 176.926 244.487 177.523H243.019C242.907 177.088 242.659 176.703 242.273 176.367C241.892 176.027 241.378 175.857 240.731 175.857C240.159 175.857 239.658 176.006 239.227 176.305C238.8 176.599 238.466 177.016 238.226 177.554C237.989 178.089 237.871 178.717 237.871 179.438C237.871 180.176 237.987 180.819 238.219 181.366C238.456 181.913 238.787 182.338 239.214 182.64C239.645 182.943 240.151 183.094 240.731 183.094C241.113 183.094 241.459 183.028 241.77 182.895C242.08 182.763 242.344 182.572 242.559 182.323C242.775 182.075 242.928 181.776 243.019 181.428H244.487C244.404 181.992 244.199 182.499 243.871 182.951C243.548 183.399 243.119 183.755 242.584 184.021C242.054 184.282 241.436 184.412 240.731 184.412ZM250.511 184.412C249.649 184.412 248.893 184.207 248.242 183.797C247.595 183.386 247.09 182.812 246.725 182.075C246.364 181.337 246.184 180.475 246.184 179.488C246.184 178.493 246.364 177.625 246.725 176.883C247.09 176.141 247.595 175.565 248.242 175.154C248.893 174.744 249.649 174.539 250.511 174.539C251.374 174.539 252.128 174.744 252.775 175.154C253.425 175.565 253.931 176.141 254.292 176.883C254.657 177.625 254.839 178.493 254.839 179.488C254.839 180.475 254.657 181.337 254.292 182.075C253.931 182.812 253.425 183.386 252.775 183.797C252.128 184.207 251.374 184.412 250.511 184.412ZM250.511 183.094C251.166 183.094 251.705 182.926 252.128 182.591C252.551 182.255 252.864 181.813 253.067 181.266C253.27 180.719 253.372 180.126 253.372 179.488C253.372 178.85 253.27 178.255 253.067 177.704C252.864 177.152 252.551 176.707 252.128 176.367C251.705 176.027 251.166 175.857 250.511 175.857C249.857 175.857 249.318 176.027 248.895 176.367C248.472 176.707 248.159 177.152 247.956 177.704C247.753 178.255 247.651 178.85 247.651 179.488C247.651 180.126 247.753 180.719 247.956 181.266C248.159 181.813 248.472 182.255 248.895 182.591C249.318 182.926 249.857 183.094 250.511 183.094ZM258.546 178.468V184.213H257.079V174.663H258.496V176.155H258.621C258.845 175.67 259.184 175.281 259.64 174.987C260.096 174.688 260.685 174.539 261.406 174.539C262.053 174.539 262.619 174.672 263.104 174.937C263.589 175.198 263.966 175.596 264.235 176.131C264.505 176.661 264.639 177.333 264.639 178.145V184.213H263.172V178.245C263.172 177.494 262.977 176.91 262.588 176.491C262.198 176.068 261.663 175.857 260.983 175.857C260.515 175.857 260.096 175.959 259.727 176.162C259.363 176.365 259.075 176.661 258.863 177.051C258.652 177.44 258.546 177.913 258.546 178.468ZM271.2 184.412C270.305 184.412 269.534 184.201 268.887 183.778C268.241 183.355 267.743 182.773 267.395 182.031C267.047 181.289 266.873 180.441 266.873 179.488C266.873 178.518 267.051 177.662 267.408 176.92C267.768 176.174 268.27 175.592 268.912 175.173C269.559 174.75 270.313 174.539 271.176 174.539C271.847 174.539 272.452 174.663 272.991 174.912C273.53 175.161 273.971 175.509 274.315 175.956C274.659 176.404 274.873 176.926 274.956 177.523H273.488C273.377 177.088 273.128 176.703 272.742 176.367C272.361 176.027 271.847 175.857 271.2 175.857C270.628 175.857 270.127 176.006 269.696 176.305C269.269 176.599 268.935 177.016 268.695 177.554C268.458 178.089 268.34 178.717 268.34 179.438C268.34 180.176 268.456 180.819 268.688 181.366C268.925 181.913 269.256 182.338 269.683 182.64C270.114 182.943 270.62 183.094 271.2 183.094C271.582 183.094 271.928 183.028 272.239 182.895C272.55 182.763 272.813 182.572 273.028 182.323C273.244 182.075 273.397 181.776 273.488 181.428H274.956C274.873 181.992 274.668 182.499 274.34 182.951C274.017 183.399 273.588 183.755 273.053 184.021C272.523 184.282 271.905 184.412 271.2 184.412ZM279.911 184.437C279.306 184.437 278.757 184.323 278.264 184.095C277.77 183.863 277.379 183.529 277.088 183.094C276.798 182.655 276.653 182.124 276.653 181.503C276.653 180.955 276.761 180.512 276.976 180.172C277.192 179.828 277.48 179.559 277.841 179.364C278.201 179.169 278.599 179.024 279.034 178.928C279.474 178.829 279.915 178.75 280.359 178.692C280.939 178.618 281.41 178.562 281.77 178.524C282.135 178.483 282.4 178.414 282.566 178.319C282.736 178.224 282.821 178.058 282.821 177.822V177.772C282.821 177.159 282.653 176.682 282.317 176.342C281.986 176.002 281.482 175.832 280.807 175.832C280.106 175.832 279.557 175.985 279.159 176.292C278.761 176.599 278.481 176.926 278.319 177.275L276.927 176.777C277.175 176.197 277.507 175.745 277.922 175.422C278.34 175.094 278.796 174.866 279.289 174.738C279.787 174.605 280.276 174.539 280.757 174.539C281.063 174.539 281.416 174.576 281.814 174.651C282.216 174.721 282.603 174.868 282.976 175.092C283.354 175.316 283.667 175.654 283.915 176.106C284.164 176.558 284.288 177.163 284.288 177.921V184.213H282.821V182.92H282.746C282.647 183.127 282.481 183.349 282.249 183.585C282.017 183.822 281.708 184.023 281.323 184.189C280.937 184.354 280.467 184.437 279.911 184.437ZM280.135 183.119C280.715 183.119 281.204 183.005 281.602 182.777C282.004 182.549 282.307 182.255 282.51 181.894C282.717 181.534 282.821 181.154 282.821 180.756V179.413C282.759 179.488 282.622 179.556 282.411 179.619C282.203 179.677 281.963 179.728 281.689 179.774C281.42 179.815 281.157 179.853 280.9 179.886C280.647 179.915 280.442 179.94 280.284 179.961C279.903 180.01 279.546 180.091 279.215 180.203C278.887 180.311 278.622 180.475 278.419 180.694C278.22 180.91 278.121 181.204 278.121 181.577C278.121 182.087 278.309 182.472 278.686 182.734C279.068 182.991 279.551 183.119 280.135 183.119ZM291.12 174.663V175.907H286.171V174.663H291.12ZM287.613 172.375H289.081V181.478C289.081 181.892 289.141 182.203 289.261 182.41C289.385 182.613 289.543 182.75 289.733 182.821C289.928 182.887 290.133 182.92 290.349 182.92C290.511 182.92 290.643 182.912 290.747 182.895C290.85 182.875 290.933 182.858 290.996 182.846L291.294 184.164C291.194 184.201 291.056 184.238 290.877 184.276C290.699 184.317 290.473 184.338 290.2 184.338C289.785 184.338 289.379 184.249 288.981 184.07C288.587 183.892 288.26 183.621 287.999 183.256C287.742 182.891 287.613 182.431 287.613 181.876V172.375Z" fill="black"/>
<g filter="url(#filter10_d_21_199)">
<rect x="78" y="227" width="60" height="286" rx="5.83621" fill="white"/>
</g>
<path d="M106.233 247.45L107.875 251.354L110.809 247.45H112.5L108.621 252.225L110.909 257H109.218L107.551 253.294L104.641 257H102.95L106.78 252.225L104.542 247.45H106.233Z" fill="black"/>
<path d="M103.908 286.581C103.659 286.581 103.439 286.561 103.249 286.519C103.062 286.482 102.934 286.445 102.863 286.407L103.46 285.114C103.8 285.205 104.103 285.232 104.368 285.195C104.637 285.162 104.892 285.031 105.133 284.803C105.377 284.579 105.632 284.227 105.897 283.746L106.308 283L104.393 273.45H105.922L107.29 281.085H107.39L111.294 273.45H112.948L107.091 284.38C106.818 284.89 106.517 285.307 106.19 285.63C105.862 285.953 105.508 286.192 105.126 286.345C104.745 286.503 104.339 286.581 103.908 286.581Z" fill="black"/>
<path d="M101.141 312.199C100.341 312.199 99.6694 311.998 99.1264 311.596C98.5834 311.19 98.2 310.618 97.9762 309.88C97.7565 309.138 97.7295 308.261 97.8953 307.25C98.0653 306.247 98.3824 305.376 98.8466 304.638C99.315 303.901 99.8891 303.331 100.569 302.929C101.249 302.527 101.991 302.325 102.795 302.325C103.417 302.325 103.891 302.429 104.219 302.636C104.55 302.839 104.791 303.072 104.94 303.333C105.089 303.59 105.203 303.801 105.282 303.967H105.406L106.19 299.266H107.657L105.543 312H104.125L104.374 310.533H104.2C104.063 310.707 103.872 310.926 103.628 311.192C103.383 311.453 103.06 311.687 102.658 311.894C102.26 312.097 101.754 312.199 101.141 312.199ZM101.502 310.881C102.09 310.881 102.617 310.727 103.081 310.421C103.549 310.11 103.939 309.681 104.25 309.134C104.561 308.582 104.776 307.946 104.896 307.225C105.016 306.512 105.012 305.888 104.884 305.353C104.755 304.815 104.509 304.396 104.144 304.097C103.779 303.795 103.296 303.644 102.695 303.644C102.078 303.644 101.541 303.803 101.085 304.122C100.629 304.437 100.258 304.866 99.972 305.409C99.686 305.948 99.487 306.553 99.3751 307.225C99.2632 307.905 99.2611 308.522 99.3689 309.078C99.4767 309.629 99.7046 310.068 100.053 310.396C100.405 310.719 100.888 310.881 101.502 310.881ZM111.108 302.45L112.749 306.354L115.684 302.45H117.375L113.495 307.225L115.783 312H114.092L112.426 308.294L109.516 312H107.825L111.655 307.225L109.416 302.45H111.108Z" fill="black"/>
<path d="M102.141 336.199C101.341 336.199 100.669 335.998 100.126 335.596C99.5834 335.19 99.2 334.618 98.9762 333.88C98.7565 333.138 98.7295 332.261 98.8953 331.25C99.0653 330.247 99.3824 329.376 99.8466 328.638C100.315 327.901 100.889 327.331 101.569 326.929C102.249 326.527 102.991 326.325 103.795 326.325C104.417 326.325 104.891 326.429 105.219 326.636C105.55 326.839 105.791 327.072 105.94 327.333C106.089 327.59 106.203 327.801 106.282 327.967H106.406L107.19 323.266H108.657L106.543 336H105.125L105.374 334.533H105.2C105.063 334.707 104.872 334.926 104.628 335.192C104.383 335.453 104.06 335.687 103.658 335.894C103.26 336.097 102.754 336.199 102.141 336.199ZM102.502 334.881C103.09 334.881 103.617 334.727 104.081 334.421C104.549 334.11 104.939 333.681 105.25 333.134C105.561 332.582 105.776 331.946 105.896 331.225C106.016 330.512 106.012 329.888 105.884 329.353C105.755 328.815 105.509 328.396 105.144 328.097C104.779 327.795 104.296 327.644 103.695 327.644C103.078 327.644 102.541 327.803 102.085 328.122C101.629 328.437 101.258 328.866 100.972 329.409C100.686 329.948 100.487 330.553 100.375 331.225C100.263 331.905 100.261 332.522 100.369 333.078C100.477 333.629 100.705 334.068 101.053 334.396C101.405 334.719 101.888 334.881 102.502 334.881ZM115.167 326.45L114.968 327.693H110.019L110.217 326.45H115.167ZM112.033 324.162H113.5L111.983 333.264C111.917 333.679 111.927 333.99 112.014 334.197C112.106 334.4 112.242 334.537 112.425 334.607C112.611 334.674 112.812 334.707 113.028 334.707C113.189 334.707 113.322 334.698 113.426 334.682C113.529 334.661 113.612 334.645 113.674 334.632L113.774 335.95C113.662 335.988 113.511 336.025 113.32 336.062C113.134 336.104 112.903 336.124 112.63 336.124C112.215 336.124 111.826 336.035 111.461 335.857C111.096 335.679 110.816 335.407 110.622 335.042C110.427 334.678 110.375 334.218 110.466 333.662L112.033 324.162Z" fill="black"/>
<line x1="97" y1="318.5" x2="118" y2="318.5" stroke="black"/>
<path d="M98.1409 415.199C97.3409 415.199 96.6694 414.998 96.1264 414.596C95.5834 414.19 95.2 413.618 94.9762 412.88C94.7565 412.138 94.7295 411.261 94.8953 410.25C95.0653 409.247 95.3824 408.376 95.8466 407.638C96.315 406.901 96.8891 406.331 97.5689 405.929C98.2487 405.527 98.9906 405.325 99.7948 405.325C100.417 405.325 100.891 405.429 101.219 405.636C101.55 405.839 101.791 406.072 101.94 406.333C102.089 406.59 102.203 406.801 102.282 406.967H102.406L103.19 402.266H104.657L102.543 415H101.125L101.374 413.533H101.2C101.063 413.707 100.872 413.926 100.628 414.192C100.383 414.453 100.06 414.687 99.658 414.894C99.26 415.097 98.7544 415.199 98.1409 415.199ZM98.5015 413.881C99.0901 413.881 99.6165 413.727 100.081 413.421C100.549 413.11 100.939 412.681 101.25 412.134C101.561 411.582 101.776 410.946 101.896 410.225C102.016 409.512 102.012 408.888 101.884 408.353C101.755 407.815 101.509 407.396 101.144 407.097C100.779 406.795 100.296 406.644 99.6953 406.644C99.0777 406.644 98.5409 406.803 98.0849 407.122C97.629 407.437 97.258 407.866 96.972 408.409C96.686 408.948 96.487 409.553 96.3751 410.225C96.2632 410.905 96.2611 411.522 96.3689 412.078C96.4767 412.629 96.7046 413.068 97.0528 413.396C97.4051 413.719 97.888 413.881 98.5015 413.881ZM105.994 408.633L106.143 407.663L109.5 405.077C109.849 404.812 110.139 404.575 110.371 404.368C110.607 404.161 110.789 403.964 110.918 403.777C111.051 403.591 111.133 403.394 111.167 403.187C111.229 402.814 111.138 402.517 110.893 402.298C110.649 402.078 110.309 401.968 109.873 401.968C109.451 401.968 109.073 402.084 108.742 402.316C108.414 402.548 108.22 402.863 108.157 403.261H106.839C106.951 402.577 107.297 402.014 107.878 401.57C108.458 401.122 109.165 400.899 109.998 400.899C110.561 400.899 111.032 401.002 111.409 401.209C111.79 401.413 112.064 401.69 112.23 402.043C112.4 402.391 112.452 402.78 112.385 403.212C112.336 403.527 112.228 403.823 112.062 404.101C111.896 404.378 111.647 404.673 111.316 404.984C110.984 405.294 110.545 405.657 109.998 406.072L108.108 407.489V407.539H111.913L111.739 408.633H105.994ZM115.443 405.45L117.084 409.354L120.019 405.45H121.71L117.83 410.225L120.118 415H118.427L116.761 411.294L113.851 415H112.16L115.99 410.225L113.752 405.45H115.443Z" fill="black"/>
<path d="M99.1409 439.199C98.3409 439.199 97.6694 438.998 97.1264 438.596C96.5834 438.19 96.2 437.618 95.9762 436.88C95.7565 436.138 95.7295 435.261 95.8953 434.25C96.0653 433.247 96.3824 432.376 96.8466 431.638C97.315 430.901 97.8891 430.331 98.5689 429.929C99.2487 429.527 99.9906 429.325 100.795 429.325C101.417 429.325 101.891 429.429 102.219 429.636C102.55 429.839 102.791 430.072 102.94 430.333C103.089 430.59 103.203 430.801 103.282 430.967H103.406L104.19 426.266H105.657L103.543 439H102.125L102.374 437.533H102.2C102.063 437.707 101.872 437.926 101.628 438.192C101.383 438.453 101.06 438.687 100.658 438.894C100.26 439.097 99.7544 439.199 99.1409 439.199ZM99.5015 437.881C100.09 437.881 100.617 437.727 101.081 437.421C101.549 437.11 101.939 436.681 102.25 436.134C102.561 435.582 102.776 434.946 102.896 434.225C103.016 433.512 103.012 432.888 102.884 432.353C102.755 431.815 102.509 431.396 102.144 431.097C101.779 430.795 101.296 430.644 100.695 430.644C100.078 430.644 99.5409 430.803 99.0849 431.122C98.629 431.437 98.258 431.866 97.972 432.409C97.686 432.948 97.487 433.553 97.3751 434.225C97.2632 434.905 97.2611 435.522 97.3689 436.078C97.4767 436.629 97.7046 437.068 98.0528 437.396C98.4051 437.719 98.888 437.881 99.5015 437.881ZM112.167 429.45L111.968 430.693H107.019L107.217 429.45H112.167ZM109.033 427.162H110.5L108.983 436.264C108.917 436.679 108.927 436.99 109.014 437.197C109.106 437.4 109.242 437.537 109.425 437.607C109.611 437.674 109.812 437.707 110.028 437.707C110.189 437.707 110.322 437.698 110.426 437.682C110.529 437.661 110.612 437.645 110.674 437.632L110.774 438.95C110.662 438.988 110.511 439.025 110.32 439.062C110.134 439.104 109.903 439.124 109.63 439.124C109.215 439.124 108.826 439.035 108.461 438.857C108.096 438.679 107.816 438.407 107.622 438.042C107.427 437.678 107.375 437.218 107.466 436.662L109.033 427.162ZM113.354 432.633L113.503 431.663L116.861 429.077C117.209 428.812 117.499 428.575 117.731 428.368C117.968 428.161 118.15 427.964 118.279 427.777C118.411 427.591 118.494 427.394 118.527 427.187C118.589 426.814 118.498 426.517 118.254 426.298C118.009 426.078 117.669 425.968 117.234 425.968C116.811 425.968 116.434 426.084 116.102 426.316C115.775 426.548 115.58 426.863 115.518 427.261H114.2C114.312 426.577 114.658 426.014 115.238 425.57C115.818 425.122 116.525 424.899 117.358 424.899C117.922 424.899 118.392 425.002 118.77 425.209C119.151 425.413 119.425 425.69 119.59 426.043C119.76 426.391 119.812 426.78 119.746 427.212C119.696 427.527 119.588 427.823 119.423 428.101C119.257 428.378 119.008 428.673 118.676 428.984C118.345 429.294 117.905 429.657 117.358 430.072L115.468 431.489V431.539H119.273L119.099 432.633H113.354Z" fill="black"/>
<line x1="94" y1="421.5" x2="122" y2="421.5" stroke="black"/>
<path d="M98.1409 469.199C97.3409 469.199 96.6694 468.998 96.1264 468.596C95.5834 468.19 95.2 467.618 94.9762 466.88C94.7565 466.138 94.7295 465.261 94.8953 464.25C95.0653 463.247 95.3824 462.376 95.8466 461.638C96.315 460.901 96.8891 460.331 97.5689 459.929C98.2487 459.527 98.9906 459.325 99.7948 459.325C100.417 459.325 100.891 459.429 101.219 459.636C101.55 459.839 101.791 460.072 101.94 460.333C102.089 460.59 102.203 460.801 102.282 460.967H102.406L103.19 456.266H104.657L102.543 469H101.125L101.374 467.533H101.2C101.063 467.707 100.872 467.926 100.628 468.192C100.383 468.453 100.06 468.687 99.658 468.894C99.26 469.097 98.7544 469.199 98.1409 469.199ZM98.5015 467.881C99.0901 467.881 99.6165 467.727 100.081 467.421C100.549 467.11 100.939 466.681 101.25 466.134C101.561 465.582 101.776 464.946 101.896 464.225C102.016 463.512 102.012 462.888 101.884 462.353C101.755 461.815 101.509 461.396 101.144 461.097C100.779 460.795 100.296 460.644 99.6953 460.644C99.0777 460.644 98.5409 460.803 98.0849 461.122C97.629 461.437 97.258 461.866 96.972 462.409C96.686 462.948 96.487 463.553 96.3751 464.225C96.2632 464.905 96.2611 465.522 96.3689 466.078C96.4767 466.629 96.7046 467.068 97.0528 467.396C97.4051 467.719 97.888 467.881 98.5015 467.881ZM105.994 462.633L106.143 461.663L109.5 459.077C109.849 458.812 110.139 458.575 110.371 458.368C110.607 458.161 110.789 457.964 110.918 457.777C111.051 457.591 111.133 457.394 111.167 457.187C111.229 456.814 111.138 456.517 110.893 456.298C110.649 456.078 110.309 455.968 109.873 455.968C109.451 455.968 109.073 456.084 108.742 456.316C108.414 456.548 108.22 456.863 108.157 457.261H106.839C106.951 456.577 107.297 456.014 107.878 455.57C108.458 455.122 109.165 454.899 109.998 454.899C110.561 454.899 111.032 455.002 111.409 455.209C111.79 455.413 112.064 455.69 112.23 456.043C112.4 456.391 112.452 456.78 112.385 457.212C112.336 457.527 112.228 457.823 112.062 458.101C111.896 458.378 111.647 458.673 111.316 458.984C110.984 459.294 110.545 459.657 109.998 460.072L108.108 461.489V461.539H111.913L111.739 462.633H105.994ZM113.117 472.581C112.869 472.581 112.649 472.561 112.458 472.519C112.272 472.482 112.143 472.445 112.073 472.407L112.67 471.114C113.01 471.205 113.312 471.232 113.578 471.195C113.847 471.162 114.102 471.031 114.342 470.803C114.587 470.579 114.842 470.227 115.107 469.746L115.517 469L113.602 459.45H115.132L116.5 467.085H116.599L120.504 459.45H122.158L116.301 470.38C116.027 470.89 115.727 471.307 115.399 471.63C115.072 471.953 114.717 472.192 114.336 472.345C113.955 472.503 113.548 472.581 113.117 472.581Z" fill="black"/>
<path d="M99.1409 493.199C98.3409 493.199 97.6694 492.998 97.1264 492.596C96.5834 492.19 96.2 491.618 95.9762 490.88C95.7565 490.138 95.7295 489.261 95.8953 488.25C96.0653 487.247 96.3824 486.376 96.8466 485.638C97.315 484.901 97.8891 484.331 98.5689 483.929C99.2487 483.527 99.9906 483.325 100.795 483.325C101.417 483.325 101.891 483.429 102.219 483.636C102.55 483.839 102.791 484.072 102.94 484.333C103.089 484.59 103.203 484.801 103.282 484.967H103.406L104.19 480.266H105.657L103.543 493H102.125L102.374 491.533H102.2C102.063 491.707 101.872 491.926 101.628 492.192C101.383 492.453 101.06 492.687 100.658 492.894C100.26 493.097 99.7544 493.199 99.1409 493.199ZM99.5015 491.881C100.09 491.881 100.617 491.727 101.081 491.421C101.549 491.11 101.939 490.681 102.25 490.134C102.561 489.582 102.776 488.946 102.896 488.225C103.016 487.512 103.012 486.888 102.884 486.353C102.755 485.815 102.509 485.396 102.144 485.097C101.779 484.795 101.296 484.644 100.695 484.644C100.078 484.644 99.5409 484.803 99.0849 485.122C98.629 485.437 98.258 485.866 97.972 486.409C97.686 486.948 97.487 487.553 97.3751 488.225C97.2632 488.905 97.2611 489.522 97.3689 490.078C97.4767 490.629 97.7046 491.068 98.0528 491.396C98.4051 491.719 98.888 491.881 99.5015 491.881ZM112.167 483.45L111.968 484.693H107.019L107.217 483.45H112.167ZM109.033 481.162H110.5L108.983 490.264C108.917 490.679 108.927 490.99 109.014 491.197C109.106 491.4 109.242 491.537 109.425 491.607C109.611 491.674 109.812 491.707 110.028 491.707C110.189 491.707 110.322 491.698 110.426 491.682C110.529 491.661 110.612 491.645 110.674 491.632L110.774 492.95C110.662 492.988 110.511 493.025 110.32 493.062C110.134 493.104 109.903 493.124 109.63 493.124C109.215 493.124 108.826 493.035 108.461 492.857C108.096 492.679 107.816 492.407 107.622 492.042C107.427 491.678 107.375 491.218 107.466 490.662L109.033 481.162ZM113.354 486.633L113.503 485.663L116.861 483.077C117.209 482.812 117.499 482.575 117.731 482.368C117.968 482.161 118.15 481.964 118.279 481.777C118.411 481.591 118.494 481.394 118.527 481.187C118.589 480.814 118.498 480.517 118.254 480.298C118.009 480.078 117.669 479.968 117.234 479.968C116.811 479.968 116.434 480.084 116.102 480.316C115.775 480.548 115.58 480.863 115.518 481.261H114.2C114.312 480.577 114.658 480.014 115.238 479.57C115.818 479.122 116.525 478.899 117.358 478.899C117.922 478.899 118.392 479.002 118.77 479.209C119.151 479.413 119.425 479.69 119.59 480.043C119.76 480.391 119.812 480.78 119.746 481.212C119.696 481.527 119.588 481.823 119.423 482.101C119.257 482.378 119.008 482.673 118.676 482.984C118.345 483.294 117.905 483.657 117.358 484.072L115.468 485.489V485.539H119.273L119.099 486.633H113.354Z" fill="black"/>
<line x1="94" y1="475.5" x2="122" y2="475.5" stroke="black"/>
<path d="M101.141 362.199C100.341 362.199 99.6694 361.998 99.1264 361.596C98.5834 361.19 98.2 360.618 97.9762 359.88C97.7565 359.138 97.7295 358.261 97.8953 357.25C98.0653 356.247 98.3824 355.376 98.8466 354.638C99.315 353.901 99.8891 353.331 100.569 352.929C101.249 352.527 101.991 352.325 102.795 352.325C103.417 352.325 103.891 352.429 104.219 352.636C104.55 352.839 104.791 353.072 104.94 353.333C105.089 353.59 105.203 353.801 105.282 353.967H105.406L106.19 349.266H107.657L105.543 362H104.125L104.374 360.533H104.2C104.063 360.707 103.872 360.926 103.628 361.192C103.383 361.453 103.06 361.687 102.658 361.894C102.26 362.097 101.754 362.199 101.141 362.199ZM101.502 360.881C102.09 360.881 102.617 360.727 103.081 360.421C103.549 360.11 103.939 359.681 104.25 359.134C104.561 358.582 104.776 357.946 104.896 357.225C105.016 356.512 105.012 355.888 104.884 355.353C104.755 354.815 104.509 354.396 104.144 354.097C103.779 353.795 103.296 353.644 102.695 353.644C102.078 353.644 101.541 353.803 101.085 354.122C100.629 354.437 100.258 354.866 99.972 355.409C99.686 355.948 99.487 356.553 99.3751 357.225C99.2632 357.905 99.2611 358.522 99.3689 359.078C99.4767 359.629 99.7046 360.068 100.053 360.396C100.405 360.719 100.888 360.881 101.502 360.881ZM108.782 365.581C108.534 365.581 108.314 365.561 108.123 365.519C107.937 365.482 107.808 365.445 107.738 365.407L108.335 364.114C108.674 364.205 108.977 364.232 109.242 364.195C109.512 364.162 109.767 364.031 110.007 363.803C110.252 363.579 110.507 363.227 110.772 362.746L111.182 362L109.267 352.45H110.797L112.165 360.085H112.264L116.169 352.45H117.823L111.966 363.38C111.692 363.89 111.392 364.307 111.064 364.63C110.737 364.953 110.382 365.192 110.001 365.345C109.62 365.503 109.213 365.581 108.782 365.581Z" fill="black"/>
<path d="M102.141 386.199C101.341 386.199 100.669 385.998 100.126 385.596C99.5834 385.19 99.2 384.618 98.9762 383.88C98.7565 383.138 98.7295 382.261 98.8953 381.25C99.0653 380.247 99.3824 379.376 99.8466 378.638C100.315 377.901 100.889 377.331 101.569 376.929C102.249 376.527 102.991 376.325 103.795 376.325C104.417 376.325 104.891 376.429 105.219 376.636C105.55 376.839 105.791 377.072 105.94 377.333C106.089 377.59 106.203 377.801 106.282 377.967H106.406L107.19 373.266H108.657L106.543 386H105.125L105.374 384.533H105.2C105.063 384.707 104.872 384.926 104.628 385.192C104.383 385.453 104.06 385.687 103.658 385.894C103.26 386.097 102.754 386.199 102.141 386.199ZM102.502 384.881C103.09 384.881 103.617 384.727 104.081 384.421C104.549 384.11 104.939 383.681 105.25 383.134C105.561 382.582 105.776 381.946 105.896 381.225C106.016 380.512 106.012 379.888 105.884 379.353C105.755 378.815 105.509 378.396 105.144 378.097C104.779 377.795 104.296 377.644 103.695 377.644C103.078 377.644 102.541 377.803 102.085 378.122C101.629 378.437 101.258 378.866 100.972 379.409C100.686 379.948 100.487 380.553 100.375 381.225C100.263 381.905 100.261 382.522 100.369 383.078C100.477 383.629 100.705 384.068 101.053 384.396C101.405 384.719 101.888 384.881 102.502 384.881ZM115.167 376.45L114.968 377.693H110.019L110.217 376.45H115.167ZM112.033 374.162H113.5L111.983 383.264C111.917 383.679 111.927 383.99 112.014 384.197C112.106 384.4 112.242 384.537 112.425 384.607C112.611 384.674 112.812 384.707 113.028 384.707C113.189 384.707 113.322 384.698 113.426 384.682C113.529 384.661 113.612 384.645 113.674 384.632L113.774 385.95C113.662 385.988 113.511 386.025 113.32 386.062C113.134 386.104 112.903 386.124 112.63 386.124C112.215 386.124 111.826 386.035 111.461 385.857C111.096 385.679 110.816 385.407 110.622 385.042C110.427 384.678 110.375 384.218 110.466 383.662L112.033 374.162Z" fill="black"/>
<line x1="97" y1="368.5" x2="118" y2="368.5" stroke="black"/>
<defs>
<filter id="filter0_d_21_199" x="242.516" y="340.516" width="158.968" height="181.968" filterUnits="userSpaceOnUse" color-interpolation-filters="sRGB">
<feFlood flood-opacity="0" result="BackgroundImageFix"/>
<feColorMatrix in="SourceAlpha" type="matrix" values="0 0 0 0 0 0 0 0 0 0 0 0 0 0 0 0 0 0 127 0" result="hardAlpha"/>
<feMorphology radius="0.729526" operator="dilate" in="SourceAlpha" result="effect1_dropShadow_21_199"/>
<feOffset/>
<feGaussianBlur stdDeviation="4.37715"/>
<feComposite in2="hardAlpha" operator="out"/>
<feColorMatrix type="matrix" values="0 0 0 0 0.123069 0 0 0 0 0.746931 0 0 0 0 0.185455 0 0 0 0.4 0"/>
<feBlend mode="normal" in2="BackgroundImageFix" result="effect1_dropShadow_21_199"/>
<feBlend mode="normal" in="SourceGraphic" in2="effect1_dropShadow_21_199" result="shape"/>
</filter>
<filter id="filter1_d_21_199" x="131.516" y="38.5162" width="267.968" height="72.9677" filterUnits="userSpaceOnUse" color-interpolation-filters="sRGB">
<feFlood flood-opacity="0" result="BackgroundImageFix"/>
<feColorMatrix in="SourceAlpha" type="matrix" values="0 0 0 0 0 0 0 0 0 0 0 0 0 0 0 0 0 0 127 0" result="hardAlpha"/>
<feMorphology radius="0.729526" operator="dilate" in="SourceAlpha" result="effect1_dropShadow_21_199"/>
<feOffset/>
<feGaussianBlur stdDeviation="4.37715"/>
<feComposite in2="hardAlpha" operator="out"/>
<feColorMatrix type="matrix" values="0 0 0 0 0.92199 0 0 0 0 0.0413429 0 0 0 0 0.0413429 0 0 0 0.5 0"/>
<feBlend mode="normal" in2="BackgroundImageFix" result="effect1_dropShadow_21_199"/>
<feBlend mode="normal" in="SourceGraphic" in2="effect1_dropShadow_21_199" result="shape"/>
</filter>
<filter id="filter2_d_21_199" x="448.516" y="340.516" width="159.037" height="182.192" filterUnits="userSpaceOnUse" color-interpolation-filters="sRGB">
<feFlood flood-opacity="0" result="BackgroundImageFix"/>
<feColorMatrix in="SourceAlpha" type="matrix" values="0 0 0 0 0 0 0 0 0 0 0 0 0 0 0 0 0 0 127 0" result="hardAlpha"/>
<feMorphology radius="0.729526" operator="dilate" in="SourceAlpha" result="effect1_dropShadow_21_199"/>
<feOffset/>
<feGaussianBlur stdDeviation="4.37715"/>
<feComposite in2="hardAlpha" operator="out"/>
<feColorMatrix type="matrix" values="0 0 0 0 0.123069 0 0 0 0 0.746931 0 0 0 0 0.185455 0 0 0 0.4 0"/>
<feBlend mode="normal" in2="BackgroundImageFix" result="effect1_dropShadow_21_199"/>
<feBlend mode="normal" in="SourceGraphic" in2="effect1_dropShadow_21_199" result="shape"/>
</filter>
<filter id="filter3_d_21_199" x="397.608" y="221.5" width="46.5582" height="46.5581" filterUnits="userSpaceOnUse" color-interpolation-filters="sRGB">
<feFlood flood-opacity="0" result="BackgroundImageFix"/>
<feColorMatrix in="SourceAlpha" type="matrix" values="0 0 0 0 0 0 0 0 0 0 0 0 0 0 0 0 0 0 127 0" result="hardAlpha"/>
<feMorphology radius="0.5" operator="dilate" in="SourceAlpha" result="effect1_dropShadow_21_199"/>
<feOffset/>
<feGaussianBlur stdDeviation="3"/>
<feComposite in2="hardAlpha" operator="out"/>
<feColorMatrix type="matrix" values="0 0 0 0 0.16096 0 0 0 0 0.145792 0 0 0 0 0.904208 0 0 0 0.4 0"/>
<feBlend mode="normal" in2="BackgroundImageFix" result="effect1_dropShadow_21_199"/>
<feBlend mode="normal" in="SourceGraphic" in2="effect1_dropShadow_21_199" result="shape"/>
</filter>
<filter id="filter4_d_21_199" x="446.893" y="235.251" width="79.2133" height="110.127" filterUnits="userSpaceOnUse" color-interpolation-filters="sRGB">
<feFlood flood-opacity="0" result="BackgroundImageFix"/>
<feColorMatrix in="SourceAlpha" type="matrix" values="0 0 0 0 0 0 0 0 0 0 0 0 0 0 0 0 0 0 127 0" result="hardAlpha"/>
<feOffset/>
<feGaussianBlur stdDeviation="2.18858"/>
<feComposite in2="hardAlpha" operator="out"/>
<feColorMatrix type="matrix" values="0 0 0 0 0.103912 0 0 0 0 0.0998958 0 0 0 0 0.150104 0 0 0 0.36 0"/>
<feBlend mode="normal" in2="BackgroundImageFix" result="effect1_dropShadow_21_199"/>
<feBlend mode="normal" in="SourceGraphic" in2="effect1_dropShadow_21_199" result="shape"/>
</filter>
<filter id="filter5_d_21_199" x="316.893" y="235.251" width="79.2133" height="110.127" filterUnits="userSpaceOnUse" color-interpolation-filters="sRGB">
<feFlood flood-opacity="0" result="BackgroundImageFix"/>
<feColorMatrix in="SourceAlpha" type="matrix" values="0 0 0 0 0 0 0 0 0 0 0 0 0 0 0 0 0 0 127 0" result="hardAlpha"/>
<feOffset/>
<feGaussianBlur stdDeviation="2.18858"/>
<feComposite in2="hardAlpha" operator="out"/>
<feColorMatrix type="matrix" values="0 0 0 0 0.103912 0 0 0 0 0.0998958 0 0 0 0 0.150104 0 0 0 0.36 0"/>
<feBlend mode="normal" in2="BackgroundImageFix" result="effect1_dropShadow_21_199"/>
<feBlend mode="normal" in="SourceGraphic" in2="effect1_dropShadow_21_199" result="shape"/>
</filter>
<filter id="filter6_d_21_199" x="254.251" y="105.893" width="19.4987" height="49.4838" filterUnits="userSpaceOnUse" color-interpolation-filters="sRGB">
<feFlood flood-opacity="0" result="BackgroundImageFix"/>
<feColorMatrix in="SourceAlpha" type="matrix" values="0 0 0 0 0 0 0 0 0 0 0 0 0 0 0 0 0 0 127 0" result="hardAlpha"/>
<feOffset/>
<feGaussianBlur stdDeviation="2.18858"/>
<feComposite in2="hardAlpha" operator="out"/>
<feColorMatrix type="matrix" values="0 0 0 0 0.103912 0 0 0 0 0.0998958 0 0 0 0 0.150104 0 0 0 0.36 0"/>
<feBlend mode="normal" in2="BackgroundImageFix" result="effect1_dropShadow_21_199"/>
<feBlend mode="normal" in="SourceGraphic" in2="effect1_dropShadow_21_199" result="shape"/>
</filter>
<filter id="filter7_d_21_199" x="102.893" y="168.251" width="109.213" height="56.4391" filterUnits="userSpaceOnUse" color-interpolation-filters="sRGB">
<feFlood flood-opacity="0" result="BackgroundImageFix"/>
<feColorMatrix in="SourceAlpha" type="matrix" values="0 0 0 0 0 0 0 0 0 0 0 0 0 0 0 0 0 0 127 0" result="hardAlpha"/>
<feOffset/>
<feGaussianBlur stdDeviation="2.18858"/>
<feComposite in2="hardAlpha" operator="out"/>
<feColorMatrix type="matrix" values="0 0 0 0 0.103912 0 0 0 0 0.0998958 0 0 0 0 0.150104 0 0 0 0.36 0"/>
<feBlend mode="normal" in2="BackgroundImageFix" result="effect1_dropShadow_21_199"/>
<feBlend mode="normal" in="SourceGraphic" in2="effect1_dropShadow_21_199" result="shape"/>
</filter>
<filter id="filter8_d_21_199" x="316.893" y="168.251" width="109.213" height="56.4391" filterUnits="userSpaceOnUse" color-interpolation-filters="sRGB">
<feFlood flood-opacity="0" result="BackgroundImageFix"/>
<feColorMatrix in="SourceAlpha" type="matrix" values="0 0 0 0 0 0 0 0 0 0 0 0 0 0 0 0 0 0 127 0" result="hardAlpha"/>
<feOffset/>
<feGaussianBlur stdDeviation="2.18858"/>
<feComposite in2="hardAlpha" operator="out"/>
<feColorMatrix type="matrix" values="0 0 0 0 0.103912 0 0 0 0 0.0998958 0 0 0 0 0.150104 0 0 0 0.36 0"/>
<feBlend mode="normal" in2="BackgroundImageFix" result="effect1_dropShadow_21_199"/>
<feBlend mode="normal" in="SourceGraphic" in2="effect1_dropShadow_21_199" result="shape"/>
</filter>
<filter id="filter9_d_21_199" x="211.5" y="150.5" width="106.379" height="55.3125" filterUnits="userSpaceOnUse" color-interpolation-filters="sRGB">
<feFlood flood-opacity="0" result="BackgroundImageFix"/>
<feColorMatrix in="SourceAlpha" type="matrix" values="0 0 0 0 0 0 0 0 0 0 0 0 0 0 0 0 0 0 127 0" result="hardAlpha"/>
<feMorphology radius="0.5" operator="dilate" in="SourceAlpha" result="effect1_dropShadow_21_199"/>
<feOffset/>
<feGaussianBlur stdDeviation="3"/>
<feComposite in2="hardAlpha" operator="out"/>
<feColorMatrix type="matrix" values="0 0 0 0 0.16096 0 0 0 0 0.145792 0 0 0 0 0.904208 0 0 0 0.4 0"/>
<feBlend mode="normal" in2="BackgroundImageFix" result="effect1_dropShadow_21_199"/>
<feBlend mode="normal" in="SourceGraphic" in2="effect1_dropShadow_21_199" result="shape"/>
</filter>
<filter id="filter10_d_21_199" x="68.5162" y="217.516" width="78.9677" height="304.968" filterUnits="userSpaceOnUse" color-interpolation-filters="sRGB">
<feFlood flood-opacity="0" result="BackgroundImageFix"/>
<feColorMatrix in="SourceAlpha" type="matrix" values="0 0 0 0 0 0 0 0 0 0 0 0 0 0 0 0 0 0 127 0" result="hardAlpha"/>
<feMorphology radius="0.729526" operator="dilate" in="SourceAlpha" result="effect1_dropShadow_21_199"/>
<feOffset/>
<feGaussianBlur stdDeviation="4.37715"/>
<feComposite in2="hardAlpha" operator="out"/>
<feColorMatrix type="matrix" values="0 0 0 0 0.123069 0 0 0 0 0.746931 0 0 0 0 0.185455 0 0 0 0.4 0"/>
<feBlend mode="normal" in2="BackgroundImageFix" result="effect1_dropShadow_21_199"/>
<feBlend mode="normal" in="SourceGraphic" in2="effect1_dropShadow_21_199" result="shape"/>
</filter>
</defs>
</svg>
